<svg width="410" height="324" viewBox="0 0 410 324" fill="none" xmlns="http://www.w3.org/2000/svg">
<g clip-path="url(#clip0_601_2801)">
<mask id="mask0_601_2801" style="mask-type:luminance" maskUnits="userSpaceOnUse" x="0" y="0" width="410" height="324">
<path d="M0 -3.05176e-05H409.777V323.46H0V-3.05176e-05Z" fill="white"/>
</mask>
<g mask="url(#mask0_601_2801)">
<path d="M253.729 27.1479C206.376 26.7573 164.225 65.9573 163.879 108.364C163.609 141.093 193.872 166.2 229.463 176.137L222.629 195.989L242.16 178.992C248.661 180.108 255.244 180.735 261.761 180.792C309.109 181.175 340.617 139.136 340.961 96.7333C341.316 54.3293 301.077 27.5386 253.729 27.1479Z" fill="#F1531D"/>
</g>
<mask id="mask1_601_2801" style="mask-type:luminance" maskUnits="userSpaceOnUse" x="0" y="0" width="410" height="324">
<path d="M0 -3.05176e-05H409.777V323.46H0V-3.05176e-05Z" fill="white"/>
</mask>
<g mask="url(#mask1_601_2801)">
<path d="M230.178 250.974C226.94 250.974 223.868 251.661 221.076 252.897L219.516 250.136V240.458C221.046 240.018 222.314 238.797 222.698 237.126C223.27 234.674 221.746 232.221 219.293 231.653L203.912 228.058L203.981 212.826C203.981 212.366 203.894 211.932 203.768 211.513C209.03 211.449 213.278 207.174 213.278 201.898C213.278 196.581 208.973 192.269 203.656 192.269C198.338 192.269 194.022 196.581 194.022 201.898C194.022 203.625 194.518 205.225 195.312 206.624C193.593 206.864 191.961 207.748 190.822 209.237L172.606 233.042C170.314 236.044 170.884 240.333 173.882 242.63C174.277 242.93 174.702 243.169 175.133 243.37L169.829 252.853C167.06 251.642 164.01 250.974 160.806 250.974C148.309 250.974 138.136 261.142 138.136 273.641C138.136 286.137 148.309 296.314 160.806 296.314C172.621 296.314 182.344 287.221 183.376 275.674L189 275.608C189.633 276.502 190.577 277.182 191.729 277.43C192.058 277.504 192.382 277.533 192.709 277.533C194.802 277.533 196.69 276.082 197.157 273.949L197.942 270.349L216.614 254.276L217.108 255.153C211.313 259.264 207.505 266.009 207.505 273.641C207.505 286.137 217.676 296.314 230.178 296.314C242.677 296.314 252.853 286.137 252.853 273.641C252.853 261.142 242.677 250.974 230.178 250.974ZM190.416 262.082L181.057 245.625L192.485 252.625L190.416 262.082ZM177.465 248.537L188.96 268.744L188.473 270.998L183.324 271.065C182.573 264.469 178.98 258.729 173.802 255.088L177.465 248.537ZM176.428 271.165L164.721 271.32L170.437 261.104C173.578 263.516 175.78 267.076 176.428 271.165ZM160.806 289.476C152.081 289.476 144.974 282.372 144.974 273.641C144.974 264.909 152.081 257.808 160.806 257.808C162.804 257.808 164.705 258.197 166.458 258.866L158.817 272.529C158.424 273.24 158.433 274.105 158.85 274.804C159.258 275.493 160.006 275.921 160.806 275.921H160.828L176.485 275.749C175.448 283.485 168.82 289.476 160.806 289.476ZM199.565 262.942L202.085 251.409C202.094 251.364 202.092 251.324 202.098 251.27C202.128 251.11 202.146 250.938 202.156 250.772C202.168 250.636 202.182 250.502 202.18 250.364C202.18 250.216 202.156 250.068 202.146 249.925C202.128 249.77 202.11 249.62 202.082 249.476C202.048 249.337 202.008 249.214 201.962 249.081C201.917 248.932 201.876 248.788 201.816 248.646C201.762 248.52 201.69 248.392 201.618 248.266C201.549 248.136 201.481 248.008 201.4 247.888C201.322 247.769 201.225 247.653 201.13 247.544C201.033 247.425 200.941 247.309 200.832 247.2C200.736 247.104 200.629 247.024 200.524 246.937C200.397 246.828 200.265 246.725 200.121 246.632C200.082 246.604 200.053 246.576 200.016 246.548L186.044 237.981L194.802 226.538L194.778 231.653C194.773 233.776 196.234 235.632 198.305 236.113L214.958 240V249.688L199.565 262.942ZM230.178 289.476C221.453 289.476 214.35 282.372 214.35 273.641C214.35 268.56 216.764 264.044 220.496 261.142L228.196 274.765C228.614 275.502 229.388 275.921 230.178 275.921C230.557 275.921 230.941 275.826 231.302 275.625C232.397 275.004 232.781 273.616 232.162 272.516L224.464 258.896C226.241 258.204 228.161 257.808 230.178 257.808C238.91 257.808 246.013 264.909 246.013 273.641C246.013 282.372 238.91 289.476 230.178 289.476Z" fill="#313375"/>
</g>
<mask id="mask2_601_2801" style="mask-type:luminance" maskUnits="userSpaceOnUse" x="0" y="0" width="410" height="324">
<path d="M0 -3.05176e-05H409.777V323.46H0V-3.05176e-05Z" fill="white"/>
</mask>
<g mask="url(#mask2_601_2801)">
<path d="M186.85 211.073C186.85 211.073 176.973 202.713 165.576 220.949C160.036 229.813 158.622 233.081 158.633 234.097C158.645 235.173 181.53 223.988 181.53 223.988L191.408 214.867L186.85 211.073Z" fill="#313375"/>
</g>
<mask id="mask3_601_2801" style="mask-type:luminance" maskUnits="userSpaceOnUse" x="0" y="0" width="410" height="324">
<path d="M0 -3.05176e-05H409.777V323.46H0V-3.05176e-05Z" fill="white"/>
</mask>
<g mask="url(#mask3_601_2801)">
<path d="M197.312 191.392C195.415 191.392 194.303 190.864 194.01 189.837C193.707 188.776 194.426 187.709 196.148 186.673C197.427 185.904 199.187 185.176 201.111 184.627C203.119 184.047 205.068 183.731 206.588 183.731C208.492 183.731 209.604 184.248 209.896 185.28C210.699 188.077 204.123 190.113 202.792 190.497C200.782 191.069 198.835 191.392 197.312 191.392ZM196.654 189.081C196.823 189.097 197.043 189.108 197.312 189.108C198.608 189.108 200.376 188.817 202.163 188.303C204.759 187.563 206.479 186.639 207.259 186.036C207.08 186.025 206.858 186.008 206.588 186.008C205.298 186.008 203.527 186.301 201.738 186.817C199.15 187.563 197.427 188.484 196.654 189.081Z" fill="#313375"/>
</g>
<mask id="mask4_601_2801" style="mask-type:luminance" maskUnits="userSpaceOnUse" x="0" y="0" width="410" height="324">
<path d="M0 -3.05176e-05H409.777V323.46H0V-3.05176e-05Z" fill="white"/>
</mask>
<g mask="url(#mask4_601_2801)">
<path d="M160.857 250.974C157.617 250.974 154.541 251.661 151.747 252.897L150.189 250.136V240.458C151.726 240.018 152.986 238.797 153.377 237.126C153.946 234.674 152.419 232.221 149.97 231.653L134.59 228.058L134.653 212.826C134.659 212.366 134.567 211.932 134.441 211.513C139.709 211.449 143.957 207.174 143.957 201.898C143.957 196.581 139.646 192.269 134.333 192.269C129.011 192.269 124.701 196.581 124.701 201.898C124.701 203.625 125.193 205.225 125.99 206.624C124.271 206.864 122.637 207.748 121.495 209.237L103.283 233.042C100.99 236.044 101.562 240.333 104.559 242.63C104.957 242.93 105.381 243.169 105.817 243.37L100.506 252.853C97.7393 251.642 94.6886 250.974 91.4846 250.974C78.9833 250.974 68.814 261.142 68.814 273.641C68.814 286.137 78.9833 296.314 91.4846 296.314C103.301 296.314 113.022 287.221 114.051 275.674L119.677 275.608C120.311 276.502 121.255 277.182 122.406 277.43C122.734 277.504 123.061 277.533 123.385 277.533C125.477 277.533 127.366 276.082 127.835 273.949L128.618 270.349L147.294 254.276L147.782 255.153C141.989 259.264 138.183 266.009 138.183 273.641C138.183 286.137 148.355 296.314 160.857 296.314C173.355 296.314 183.525 286.137 183.525 273.641C183.525 261.142 173.355 250.974 160.857 250.974ZM121.094 262.082L111.734 245.625L123.165 252.625L121.094 262.082ZM108.143 248.537L119.638 268.744L119.145 270.998L113.998 271.065C113.249 264.469 109.655 258.729 104.481 255.088L108.143 248.537ZM107.103 271.165L95.394 271.32L101.117 261.104C104.251 263.516 106.454 267.076 107.103 271.165ZM91.4846 289.476C82.7526 289.476 75.65 282.372 75.65 273.641C75.65 264.909 82.7526 257.808 91.4846 257.808C93.4793 257.808 95.3806 258.197 97.1366 258.866L89.498 272.529C89.0993 273.24 89.1073 274.105 89.5233 274.804C89.9366 275.493 90.682 275.921 91.4846 275.921H91.506L107.158 275.749C106.127 283.485 99.5006 289.476 91.4846 289.476ZM130.241 262.942L132.761 251.409C132.77 251.364 132.767 251.324 132.774 251.27C132.806 251.11 132.825 250.938 132.834 250.772C132.846 250.636 132.858 250.502 132.858 250.364C132.853 250.216 132.834 250.068 132.818 249.925C132.801 249.77 132.787 249.62 132.755 249.476C132.727 249.337 132.683 249.214 132.643 249.081C132.595 248.932 132.551 248.788 132.491 248.646C132.437 248.52 132.365 248.392 132.297 248.266C132.227 248.136 132.157 248.008 132.077 247.888C131.993 247.769 131.901 247.653 131.806 247.544C131.713 247.425 131.621 247.309 131.511 247.2C131.407 247.104 131.307 247.024 131.202 246.937C131.069 246.828 130.941 246.725 130.801 246.632C130.761 246.604 130.733 246.576 130.694 246.548L116.721 237.981L125.477 226.538L125.457 231.653C125.449 233.776 126.913 235.632 128.983 236.113L145.629 240V249.688L130.241 262.942ZM160.857 289.476C152.127 289.476 145.023 282.372 145.023 273.641C145.023 268.56 147.439 264.044 151.174 261.142L158.874 274.765C159.291 275.502 160.063 275.921 160.857 275.921C161.235 275.921 161.625 275.826 161.981 275.625C163.075 275.004 163.457 273.616 162.841 272.516L155.142 258.896C156.913 258.204 158.835 257.808 160.857 257.808C169.586 257.808 176.689 264.909 176.689 273.641C176.689 282.372 169.586 289.476 160.857 289.476Z" fill="#E3106C"/>
</g>
<mask id="mask5_601_2801" style="mask-type:luminance" maskUnits="userSpaceOnUse" x="0" y="0" width="410" height="324">
<path d="M0 -3.05176e-05H409.777V323.46H0V-3.05176e-05Z" fill="white"/>
</mask>
<g mask="url(#mask5_601_2801)">
<path d="M220.105 83.562C220.067 83.1313 220.024 82.6753 219.98 82.2007C219.937 81.7233 219.855 81.306 219.732 80.946C219.609 80.586 219.428 80.2967 219.185 80.0807C218.943 79.862 218.577 79.7753 218.093 79.8193C217.431 79.8807 216.992 79.9433 216.775 80.006C216.557 80.07 216.469 80.3193 216.511 80.75L217.207 88.3447C217.247 88.778 217.323 89.0127 217.439 89.0433C217.552 89.078 218.051 89.054 218.933 88.9727C219.639 88.9073 220.075 88.6727 220.237 88.262C220.401 87.8553 220.436 87.1553 220.345 86.158L220.105 83.562ZM218.243 66.1247C218.201 65.6927 218.16 65.238 218.117 64.762C218.073 64.286 217.989 63.8687 217.867 63.5087C217.744 63.1473 217.563 62.8607 217.32 62.642C217.077 62.426 216.713 62.3367 216.227 62.382C215.651 62.434 215.277 62.4927 215.104 62.55C214.932 62.6113 214.865 62.8567 214.907 63.2887L215.561 70.43C215.601 70.862 215.733 71.09 215.959 71.114C216.184 71.1353 216.539 71.126 217.025 71.0807C217.777 71.0113 218.216 70.6993 218.344 70.142C218.469 69.5847 218.519 69.1327 218.487 68.786L218.243 66.1247ZM227.763 94.838C225.861 96.89 223.208 98.0713 219.8 98.3847L210.413 99.2473C209.94 99.29 209.571 99.314 209.309 99.3153C209.049 99.318 208.849 99.27 208.709 99.174C208.569 99.0793 208.477 98.9007 208.432 98.6433C208.387 98.386 208.34 97.9967 208.293 97.478L204.475 55.9327C204.432 55.458 204.409 55.0887 204.407 54.8273C204.405 54.566 204.461 54.3647 204.579 54.2233C204.697 54.0807 204.884 53.9887 205.14 53.942C205.397 53.8967 205.763 53.8513 206.239 53.8087L215.364 52.97C218.773 52.6567 221.599 53.3367 223.841 55.006C226.083 56.6767 227.359 59.1993 227.669 62.5753L228.147 67.7673C228.281 69.2407 228.136 70.398 227.713 71.2433C227.289 72.0913 226.792 72.7367 226.221 73.182C225.651 73.626 225.123 73.9273 224.635 74.0793C224.147 74.234 223.909 74.3553 223.916 74.4407C223.924 74.5287 224.191 74.59 224.719 74.6287C225.245 74.6687 225.849 74.8313 226.531 75.1167C227.212 75.4033 227.847 75.9007 228.436 76.6113C229.023 77.3207 229.383 78.3673 229.509 79.7527L230.147 86.698C230.459 90.0727 229.663 92.7887 227.763 94.838Z" fill="white"/>
</g>
<mask id="mask6_601_2801" style="mask-type:luminance" maskUnits="userSpaceOnUse" x="0" y="0" width="410" height="324">
<path d="M0 -3.05176e-05H409.777V323.46H0V-3.05176e-05Z" fill="white"/>
</mask>
<g mask="url(#mask6_601_2801)">
<path d="M244.939 95.5842C244.888 95.7428 244.706 95.8668 244.39 95.9615C244.074 96.0562 243.582 96.1455 242.918 96.2282C242.254 96.3108 241.299 96.4095 240.052 96.5242C238.892 96.6308 237.998 96.7028 237.372 96.7375C236.747 96.7735 236.282 96.7722 235.975 96.7348C235.667 96.6975 235.486 96.6162 235.432 96.4908C235.378 96.3642 235.34 96.1935 235.32 95.9762L231.35 52.7468C231.32 52.4428 231.331 52.2122 231.382 52.0548C231.434 51.8962 231.595 51.7748 231.868 51.6842C232.14 51.5922 232.588 51.5082 233.21 51.4268C233.831 51.3495 234.724 51.2575 235.883 51.1508C237.131 51.0362 238.099 50.9575 238.788 50.9162C239.478 50.8748 239.988 50.8828 240.318 50.9402C240.648 50.9975 240.843 51.0975 240.899 51.2468C240.956 51.3935 240.999 51.6188 241.026 51.9228L244.98 94.9575C245.004 95.2175 244.99 95.4268 244.939 95.5842Z" fill="white"/>
</g>
<mask id="mask7_601_2801" style="mask-type:luminance" maskUnits="userSpaceOnUse" x="0" y="0" width="410" height="324">
<path d="M0 -3.05176e-05H409.777V323.46H0V-3.05176e-05Z" fill="white"/>
</mask>
<g mask="url(#mask7_601_2801)">
<path d="M276.39 92.6951C276.356 92.8071 276.2 92.9098 275.926 92.9991C275.65 93.0898 275.18 93.1885 274.512 93.2925C273.846 93.3991 272.907 93.5058 271.695 93.6178C270.57 93.7205 269.662 93.8045 268.97 93.8671C268.32 93.9271 267.808 93.9538 267.438 93.9431C267.066 93.9338 266.808 93.8685 266.667 93.7525C266.527 93.6338 266.42 93.4471 266.354 93.1925C265.762 91.5005 265.214 89.9365 264.711 88.4991C264.208 87.0605 263.707 85.6458 263.208 84.2498C262.71 82.8565 262.22 81.4511 261.74 80.0311C261.26 78.6138 260.724 77.0378 260.128 75.3045C260.014 75.0085 259.852 74.9031 259.64 74.9885C259.43 75.0738 259.17 75.5658 258.862 76.4685C258.59 77.3218 258.5 78.2471 258.591 79.2418L259.904 93.5231C259.927 93.7818 259.786 94.0018 259.476 94.1831C259.168 94.3645 258.77 94.5218 258.284 94.6525C257.798 94.7845 257.276 94.8885 256.719 94.9605C256.162 95.0338 255.647 95.0911 255.175 95.1351C254.746 95.1751 254.25 95.2098 253.688 95.2391C253.127 95.2698 252.598 95.2738 252.098 95.2538C251.596 95.2338 251.167 95.1658 250.81 95.0445C250.451 94.9258 250.263 94.7565 250.244 94.5405L246.254 51.1138C246.234 50.8978 246.402 50.7205 246.756 50.5778C247.112 50.4351 247.546 50.3085 248.056 50.1965C248.566 50.0845 249.087 49.9925 249.623 49.9191C250.159 49.8498 250.598 49.7991 250.942 49.7671C251.328 49.7311 251.803 49.6885 252.36 49.6378C252.918 49.5858 253.459 49.5671 253.982 49.5858C254.503 49.6045 254.952 49.6618 255.33 49.7565C255.706 49.8538 255.908 50.0298 255.932 50.2898L257.375 65.9991C257.395 66.2165 257.423 66.5191 257.459 66.9085C257.491 67.2538 257.61 67.3751 257.819 67.2685C257.902 67.2165 257.963 67.0485 258.002 66.7591C258.04 66.4738 258.092 66.2191 258.16 65.9925C258.45 64.3951 258.72 62.9525 258.972 61.6631C259.226 60.3751 259.459 59.1098 259.671 57.8671C259.886 56.6271 260.106 55.3511 260.335 54.0418C260.564 52.7351 260.844 51.2805 261.179 49.6778C261.204 49.5005 261.268 49.3645 261.368 49.2671C261.47 49.1698 261.68 49.0858 262 49.0138C262.32 48.9418 262.783 48.8765 263.39 48.8205C264.039 48.7605 264.926 48.6791 266.051 48.5765C267.219 48.4685 268.151 48.3938 268.846 48.3525C269.539 48.3111 270.063 48.3058 270.416 48.3378C270.767 48.3711 271.002 48.4271 271.118 48.5031C271.234 48.5791 271.275 48.6645 271.24 48.7538C270.792 50.5405 270.4 52.0818 270.06 53.3791C269.722 54.6751 269.399 55.9165 269.092 57.1005C268.787 58.2858 268.452 59.5045 268.087 60.7591C267.722 62.0151 267.294 63.5178 266.8 65.2645C266.7 65.6231 266.592 65.9925 266.475 66.3751C266.358 66.7565 266.315 67.1205 266.347 67.4671C266.374 67.7698 266.431 68.0258 266.516 68.2365C266.6 68.4471 266.81 68.9511 267.144 69.7498C268.036 71.8511 268.835 73.7738 269.54 75.5191C270.248 77.2658 270.952 79.0018 271.656 80.7245C272.36 82.4498 273.082 84.2485 273.82 86.1231C274.56 87.9965 275.407 90.0911 276.362 92.4018C276.414 92.4871 276.422 92.5845 276.39 92.6951Z" fill="white"/>
</g>
<mask id="mask8_601_2801" style="mask-type:luminance" maskUnits="userSpaceOnUse" x="0" y="0" width="410" height="324">
<path d="M0 -3.05176e-05H409.777V323.46H0V-3.05176e-05Z" fill="white"/>
</mask>
<g mask="url(#mask8_601_2801)">
<path d="M298.479 89.1266C298.517 89.7786 298.527 90.2466 298.51 90.5319C298.494 90.8186 298.434 90.9959 298.333 91.0719C298.23 91.1466 298.091 91.1919 297.919 91.2079L282.709 92.6053C282.193 92.6533 281.689 92.7106 281.197 92.7773C280.703 92.8439 280.341 92.7799 280.106 92.5826C279.829 92.3893 279.67 92.0773 279.63 91.6453C279.59 91.2119 279.553 90.7999 279.515 90.4119L275.747 49.3853C275.707 48.9546 275.703 48.6719 275.734 48.5359C275.765 48.4039 275.877 48.1959 276.067 47.9173C276.259 47.6386 276.459 47.4666 276.671 47.4039C276.883 47.3426 277.159 47.2933 277.503 47.2613L293.615 45.7813C293.786 45.7653 293.931 45.7853 294.045 45.8386C294.159 45.8959 294.261 46.0493 294.349 46.3026C294.438 46.5559 294.509 46.9666 294.561 47.5279C294.613 48.0906 294.683 48.8693 294.775 49.8639C294.883 51.0333 294.967 51.9639 295.031 52.6546C295.091 53.3053 295.103 53.7946 295.067 54.1253C295.034 54.4546 294.963 54.6586 294.862 54.7333C294.759 54.8066 294.601 54.8546 294.385 54.8746L287.894 55.4706C287.634 55.4946 287.343 55.5439 287.022 55.6159C286.702 55.6906 286.505 55.7946 286.43 55.9319C286.277 56.1666 286.193 56.3253 286.179 56.4146C286.166 56.5039 286.179 56.7639 286.219 57.1959L286.654 61.9346C286.682 62.2373 286.71 62.5413 286.738 62.8439C286.766 63.1466 286.919 63.3946 287.198 63.5879C287.431 63.7413 287.654 63.8066 287.871 63.7866C288.13 63.7639 288.391 63.7386 288.65 63.7146L291.831 63.4239C292.003 63.4066 292.147 63.4266 292.262 63.4813C292.375 63.5359 292.467 63.7146 292.539 64.0133C292.611 64.3133 292.677 64.7853 292.735 65.4346C292.791 66.0413 292.87 66.8853 292.969 67.9653C293.063 69.0039 293.139 69.8279 293.195 70.4333C293.247 70.9959 293.275 71.4306 293.282 71.7346C293.287 72.0399 293.239 72.2293 293.138 72.3039C293.035 72.3786 292.875 72.4253 292.659 72.4453L289.739 72.7133C289.393 72.7453 289.069 72.7866 288.769 72.8359C288.467 72.8853 288.257 72.9586 288.134 73.0586C287.851 73.3026 287.725 73.5759 287.751 73.8786C287.781 74.1826 287.813 74.5493 287.853 74.9826L288.347 80.3693C288.389 80.8026 288.441 81.2666 288.509 81.7626C288.574 82.2586 288.699 82.5426 288.881 82.6119C289.062 82.6826 289.349 82.7213 289.742 82.7279C290.137 82.7373 290.506 82.7239 290.851 82.6919L297.018 82.1253C297.191 82.1093 297.346 82.1279 297.482 82.1813C297.618 82.2346 297.721 82.3999 297.789 82.6773C297.858 82.9546 297.93 83.3853 298.006 83.9666C298.081 84.5493 298.167 85.3573 298.262 86.3973C298.37 87.5666 298.442 88.4746 298.479 89.1266Z" fill="white"/>
</g>
<mask id="mask9_601_2801" style="mask-type:luminance" maskUnits="userSpaceOnUse" x="0" y="0" width="410" height="324">
<path d="M0 -3.05176e-05H409.777V323.46H0V-3.05176e-05Z" fill="white"/>
</mask>
<g mask="url(#mask9_601_2801)">
<path d="M204.794 132.442C204.677 131.646 204.549 130.851 204.411 130.055C204.273 129.26 204.129 128.403 203.979 127.478C203.827 126.552 203.65 125.446 203.443 124.155C203.435 124.068 203.407 123.875 203.358 123.574C203.307 123.274 203.237 122.963 203.142 122.644C203.046 122.327 202.955 122.039 202.866 121.786C202.777 121.532 202.667 121.412 202.539 121.423C202.45 121.432 202.378 121.591 202.321 121.9C202.262 122.214 202.227 122.554 202.218 122.924C202.209 123.298 202.21 123.658 202.219 124.006C202.229 124.355 202.237 124.551 202.241 124.594C202.261 125.77 202.29 126.803 202.327 127.694C202.367 128.584 202.389 129.422 202.395 130.208C202.403 130.992 202.41 131.779 202.417 132.562C202.423 133.348 202.449 134.242 202.498 135.24C202.522 135.499 202.601 135.643 202.734 135.675C202.87 135.707 203.215 135.696 203.779 135.644C204.255 135.6 204.613 135.58 204.854 135.579C205.093 135.58 205.198 135.406 205.166 135.059C205.035 134.112 204.91 133.239 204.794 132.442ZM217.163 150.584C216.803 150.706 216.355 150.812 215.819 150.903C215.281 150.998 214.71 151.071 214.105 151.127C213.498 151.182 212.979 151.23 212.546 151.27C211.595 151.358 210.685 151.43 209.818 151.487C208.949 151.547 208.45 151.342 208.322 150.872C208.106 149.975 207.926 149.186 207.775 148.502C207.625 147.816 207.466 147.155 207.299 146.515C207.13 145.875 206.971 145.214 206.822 144.53C206.67 143.847 206.489 143.055 206.275 142.158C206.201 141.815 206.011 141.658 205.71 141.686C205.45 141.71 205.059 141.746 204.541 141.794C203.934 141.85 203.458 141.892 203.113 141.924C202.81 141.952 202.653 142.142 202.641 142.492C202.638 143.408 202.625 144.219 202.602 144.918C202.578 145.618 202.565 146.295 202.559 146.951C202.554 147.607 202.551 148.294 202.551 149.012C202.553 149.734 202.554 150.574 202.555 151.532C202.543 151.884 202.074 152.124 201.149 152.251C200.221 152.38 199.239 152.492 198.202 152.587C197.941 152.611 197.551 152.647 197.033 152.695C196.513 152.743 195.991 152.77 195.469 152.774C194.945 152.779 194.485 152.755 194.087 152.704C193.69 152.652 193.486 152.564 193.474 152.432C193.771 148.084 194.051 144.123 194.313 140.54C194.573 136.959 194.807 133.458 195.017 130.035C195.225 126.611 195.438 123.124 195.657 119.567C195.878 116.012 196.097 112.11 196.317 107.855C196.339 107.636 196.53 107.443 196.886 107.28C197.241 107.116 197.677 106.979 198.19 106.864C198.703 106.751 199.239 106.66 199.801 106.586C200.361 106.512 200.815 106.459 201.161 106.427C201.55 106.391 202.015 106.36 202.559 106.331C203.101 106.306 203.614 106.302 204.097 106.322C204.578 106.344 204.999 106.426 205.363 106.567C205.723 106.708 205.939 106.907 206.006 107.162C207.081 111.251 208.07 115.014 208.974 118.442C209.878 121.872 210.777 125.238 211.669 128.536C212.561 131.839 213.483 135.222 214.434 138.691C215.385 142.163 216.446 145.98 217.615 150.148C217.673 150.319 217.523 150.463 217.163 150.584Z" fill="white"/>
</g>
<mask id="mask10_601_2801" style="mask-type:luminance" maskUnits="userSpaceOnUse" x="0" y="0" width="410" height="324">
<path d="M0 -3.05176e-05H409.777V323.46H0V-3.05176e-05Z" fill="white"/>
</mask>
<g mask="url(#mask10_601_2801)">
<path d="M245.639 147.739C245.631 147.892 245.479 148.015 245.183 148.108C244.886 148.202 244.414 148.288 243.767 148.368C243.119 148.45 242.167 148.548 240.913 148.663C239.702 148.775 238.889 148.828 238.474 148.822C238.057 148.818 237.717 148.543 237.447 147.999C236.686 146.368 236.055 144.943 235.55 143.724C235.045 142.504 234.553 141.306 234.074 140.128C233.594 138.951 233.083 137.666 232.542 136.274C231.999 134.884 231.331 133.179 230.534 131.156C230.309 130.611 230.046 130.014 229.746 129.364C229.446 128.716 229.167 128.404 228.907 128.427C228.605 128.455 228.49 128.858 228.559 129.638C228.627 130.375 228.691 131.064 228.751 131.714L230.295 148.527C230.321 148.786 230.306 148.994 230.255 149.152C230.205 149.31 230.019 149.435 229.702 149.531C229.383 149.626 228.889 149.714 228.221 149.796C227.551 149.88 226.59 149.979 225.334 150.095C224.167 150.202 223.278 150.272 222.669 150.307C222.061 150.342 221.625 150.338 221.361 150.296C221.094 150.255 220.945 150.171 220.911 150.044C220.877 149.914 220.851 149.743 220.831 149.526L216.859 106.295C216.833 105.992 216.821 105.764 216.829 105.61C216.835 105.458 216.967 105.336 217.222 105.248C217.475 105.159 217.903 105.076 218.506 104.998C219.111 104.922 219.998 104.828 221.166 104.72C222.074 104.638 222.799 104.583 223.343 104.554C223.886 104.527 224.302 104.543 224.591 104.603C224.881 104.664 225.086 104.766 225.209 104.906C225.33 105.048 225.447 105.267 225.563 105.562C225.795 106.194 226.167 107.142 226.675 108.404C227.183 109.667 227.749 111.067 228.37 112.603C228.991 114.139 229.65 115.735 230.349 117.395C231.047 119.055 231.699 120.576 232.307 121.962C232.425 122.299 232.578 122.667 232.769 123.064C232.957 123.462 233.161 123.651 233.377 123.631C233.679 123.603 233.811 123.263 233.774 122.612C233.735 121.962 233.695 121.399 233.651 120.92L232.178 104.888C232.15 104.584 232.162 104.355 232.214 104.196C232.265 104.04 232.427 103.916 232.703 103.826C232.978 103.736 233.429 103.651 234.054 103.57C234.678 103.491 235.577 103.398 236.745 103.29C238.001 103.175 238.962 103.098 239.637 103.056C240.309 103.018 240.789 103.028 241.079 103.088C241.369 103.15 241.53 103.254 241.566 103.403C241.602 103.554 241.634 103.78 241.662 104.083L245.615 147.119C245.639 147.378 245.647 147.584 245.639 147.739Z" fill="white"/>
</g>
<mask id="mask11_601_2801" style="mask-type:luminance" maskUnits="userSpaceOnUse" x="0" y="0" width="410" height="324">
<path d="M0 -3.05176e-05H409.777V323.46H0V-3.05176e-05Z" fill="white"/>
</mask>
<g mask="url(#mask11_601_2801)">
<path d="M267.57 143.4C265.822 145.438 263.244 146.613 259.834 146.925C258.196 147.076 256.684 146.964 255.301 146.59C253.917 146.216 252.709 145.606 251.673 144.762C250.64 143.921 249.801 142.861 249.162 141.59C248.524 140.317 248.13 138.881 247.985 137.28L247.74 134.617C247.696 134.142 247.672 133.772 247.67 133.51C247.668 133.25 247.79 133.042 248.037 132.889C248.281 132.734 248.705 132.621 249.304 132.542C249.902 132.466 250.781 132.374 251.942 132.268C253.101 132.161 253.985 132.104 254.59 132.089C255.194 132.078 255.633 132.125 255.902 132.233C256.172 132.338 256.329 132.52 256.376 132.777C256.421 133.034 256.462 133.381 256.502 133.812C256.586 134.721 256.8 135.586 257.14 136.405C257.481 137.225 258.092 137.594 258.97 137.513C259.453 137.469 259.826 137.314 260.09 137.052C260.356 136.789 260.537 136.465 260.634 136.085C260.732 135.705 260.781 135.285 260.785 134.828C260.786 134.368 260.765 133.902 260.721 133.425C260.61 132.213 260.481 130.808 260.333 129.205C260.182 127.561 260.024 125.83 259.857 124.013C259.686 122.153 259.513 120.27 259.338 118.366C259.158 116.418 258.986 114.536 258.82 112.717C258.649 110.858 258.489 109.126 258.342 107.525C258.192 105.88 258.06 104.453 257.948 103.241C257.909 102.809 257.909 102.458 257.95 102.193C257.99 101.928 258.145 101.718 258.412 101.562C258.678 101.408 259.09 101.282 259.645 101.186C260.198 101.093 260.949 101.001 261.894 100.914C263.098 100.804 264.021 100.73 264.668 100.692C265.314 100.656 265.782 100.689 266.073 100.792C266.365 100.897 266.533 101.077 266.578 101.336C266.624 101.593 266.668 101.958 266.712 102.436L269.729 135.282C270.041 138.657 269.32 141.364 267.57 143.4Z" fill="white"/>
</g>
<mask id="mask12_601_2801" style="mask-type:luminance" maskUnits="userSpaceOnUse" x="0" y="0" width="410" height="324">
<path d="M0 -3.05176e-05H409.777V323.46H0V-3.05176e-05Z" fill="white"/>
</mask>
<g mask="url(#mask12_601_2801)">
<path d="M283.922 125.172C283.805 124.376 283.677 123.581 283.539 122.785C283.401 121.991 283.255 121.133 283.106 120.208C282.954 119.283 282.778 118.176 282.57 116.885C282.562 116.799 282.534 116.605 282.485 116.304C282.435 116.004 282.363 115.693 282.269 115.375C282.174 115.057 282.082 114.769 281.994 114.516C281.905 114.263 281.795 114.143 281.666 114.153C281.578 114.163 281.506 114.321 281.449 114.631C281.389 114.944 281.354 115.284 281.345 115.655C281.337 116.028 281.337 116.388 281.346 116.736C281.355 117.085 281.363 117.281 281.367 117.324C281.389 118.5 281.417 119.533 281.455 120.424C281.495 121.315 281.517 122.152 281.523 122.939C281.53 123.723 281.537 124.509 281.545 125.292C281.551 126.079 281.577 126.972 281.625 127.971C281.65 128.229 281.727 128.373 281.862 128.405C281.997 128.437 282.343 128.427 282.906 128.375C283.383 128.331 283.741 128.311 283.981 128.309C284.221 128.311 284.326 128.136 284.293 127.789C284.162 126.843 284.038 125.969 283.922 125.172ZM296.291 143.315C295.931 143.436 295.482 143.543 294.946 143.633C294.409 143.728 293.838 143.801 293.231 143.857C292.625 143.912 292.106 143.96 291.674 144C290.722 144.088 289.811 144.16 288.946 144.217C288.075 144.277 287.578 144.072 287.449 143.603C287.234 142.705 287.053 141.916 286.902 141.232C286.751 140.547 286.593 139.885 286.426 139.245C286.257 138.605 286.099 137.944 285.95 137.26C285.797 136.577 285.617 135.785 285.403 134.888C285.329 134.545 285.139 134.388 284.837 134.416C284.577 134.44 284.187 134.476 283.669 134.524C283.062 134.58 282.586 134.623 282.239 134.655C281.938 134.683 281.779 134.872 281.769 135.223C281.765 136.139 281.751 136.949 281.729 137.648C281.706 138.348 281.693 139.025 281.687 139.681C281.682 140.337 281.679 141.024 281.679 141.743C281.681 142.464 281.682 143.304 281.682 144.263C281.671 144.615 281.202 144.855 280.277 144.981C279.349 145.111 278.367 145.223 277.329 145.317C277.069 145.341 276.679 145.377 276.161 145.425C275.641 145.473 275.119 145.5 274.597 145.504C274.073 145.509 273.613 145.485 273.215 145.435C272.818 145.383 272.614 145.295 272.601 145.163C272.898 140.815 273.179 136.853 273.441 133.271C273.699 129.689 273.934 126.188 274.143 122.765C274.351 119.341 274.566 115.855 274.785 112.297C275.005 108.743 275.223 104.84 275.445 100.585C275.466 100.367 275.658 100.173 276.013 100.011C276.369 99.8468 276.803 99.7095 277.317 99.5948C277.83 99.4815 278.367 99.3908 278.927 99.3162C279.489 99.2428 279.942 99.1895 280.287 99.1575C280.677 99.1215 281.143 99.0908 281.686 99.0615C282.229 99.0362 282.741 99.0308 283.225 99.0522C283.706 99.0748 284.127 99.1562 284.491 99.2975C284.851 99.4388 285.066 99.6375 285.134 99.8922C286.207 103.981 287.198 107.744 288.102 111.172C289.006 114.603 289.903 117.968 290.795 121.267C291.689 124.569 292.61 127.952 293.562 131.421C294.513 134.893 295.574 138.711 296.742 142.879C296.799 143.049 296.65 143.193 296.291 143.315Z" fill="white"/>
</g>
<mask id="mask13_601_2801" style="mask-type:luminance" maskUnits="userSpaceOnUse" x="0" y="0" width="410" height="324">
<path d="M0 -3.05176e-05H409.777V323.46H0V-3.05176e-05Z" fill="white"/>
</mask>
<g mask="url(#mask13_601_2801)">
<path d="M317.772 138.787C315.866 140.84 313.203 142.023 309.786 142.336C308.184 142.483 306.668 142.371 305.238 142.001C303.806 141.631 302.54 141.039 301.442 140.223C300.34 139.407 299.438 138.368 298.732 137.1C298.026 135.835 297.598 134.38 297.447 132.735L297.112 129.099C297.092 128.884 297.35 128.731 297.883 128.636C298.416 128.544 299.586 128.415 301.391 128.248C303.196 128.083 304.528 127.96 305.39 127.881C306.292 127.799 306.754 127.867 306.774 128.081L306.94 129.899C307.091 131.544 307.284 132.66 307.52 133.249C307.755 133.84 308.255 134.097 309.022 134.028C309.742 133.961 310.172 133.595 310.315 132.927C310.459 132.259 310.492 131.515 310.416 130.692C310.279 129.177 309.908 127.903 309.308 126.867C308.71 125.831 307.979 124.927 307.119 124.153C306.258 123.383 305.326 122.661 304.322 121.989C303.316 121.32 302.316 120.569 301.32 119.745C300.227 118.841 299.318 118.02 298.592 117.279C297.867 116.539 297.278 115.731 296.824 114.856C296.37 113.981 296.018 112.999 295.764 111.909C295.511 110.82 295.311 109.496 295.168 107.939C295.03 106.424 295.196 105.023 295.671 103.735C296.144 102.448 296.843 101.327 297.763 100.368C298.684 99.412 299.798 98.6334 301.102 98.032C302.407 97.432 303.819 97.0627 305.343 96.9227C306.906 96.7787 308.379 96.8734 309.762 97.204C311.144 97.536 312.374 98.088 313.45 98.8627C314.523 99.6374 315.399 100.613 316.076 101.795C316.75 102.976 317.16 104.345 317.303 105.904L317.615 109.28C317.634 109.497 317.36 109.62 316.798 109.649C316.232 109.68 315.192 109.763 313.679 109.903C310.043 110.236 308.216 110.297 308.195 110.08L307.927 107.159C307.859 106.424 307.639 105.876 307.266 105.517C306.892 105.159 306.482 105 306.031 105.041C305.58 105.083 305.203 105.304 304.9 105.703C304.596 106.101 304.478 106.668 304.546 107.404C304.646 108.485 304.768 109.36 304.918 110.021C305.067 110.684 305.342 111.291 305.744 111.843C306.143 112.395 306.723 112.964 307.479 113.548C308.234 114.135 309.29 114.888 310.647 115.812C311.632 116.508 312.642 117.244 313.679 118.02C314.714 118.799 315.679 119.747 316.571 120.864C317.463 121.981 318.234 123.331 318.882 124.907C319.531 126.483 319.96 128.397 320.167 130.648C320.476 134.023 319.679 136.736 317.772 138.787Z" fill="white"/>
</g>
</g>
<defs>
<clipPath id="clip0_601_2801">
<rect width="409.777" height="323.46" fill="white"/>
</clipPath>
</defs>
</svg>
