<svg width="402" height="397" viewBox="0 0 402 397" fill="none" xmlns="http://www.w3.org/2000/svg">
<g clip-path="url(#clip0_601_2790)">
<path d="M238.231 386.609C225.373 386.609 214.907 376.149 214.907 363.283C214.907 355.799 218.464 349.143 223.965 344.874L235.309 364.938C235.926 366.033 237.064 366.643 238.233 366.643C238.793 366.643 239.362 366.501 239.887 366.207C241.5 365.294 242.068 363.248 241.155 361.63L229.811 341.559C232.427 340.538 235.259 339.958 238.231 339.958C251.095 339.958 261.56 350.422 261.56 363.283C261.56 376.149 251.095 386.609 238.231 386.609ZM215.803 327.999L193.125 347.523L196.841 330.528C196.853 330.466 196.85 330.401 196.862 330.332C196.906 330.09 196.931 329.839 196.948 329.593C196.963 329.393 196.982 329.191 196.979 328.989C196.978 328.773 196.951 328.559 196.927 328.343C196.9 328.118 196.88 327.898 196.835 327.683C196.79 327.485 196.724 327.293 196.661 327.1C196.595 326.883 196.531 326.669 196.442 326.462C196.358 326.27 196.256 326.087 196.152 325.901C196.051 325.708 195.952 325.518 195.832 325.341C195.715 325.164 195.573 324.999 195.436 324.836C195.293 324.662 195.152 324.49 194.995 324.334C194.852 324.191 194.697 324.071 194.542 323.943C194.352 323.784 194.158 323.628 193.947 323.493C193.892 323.453 193.845 323.406 193.791 323.369L173.208 310.749L186.114 293.894L186.079 301.427C186.067 304.554 188.22 307.284 191.272 307.993L215.803 313.72V327.999ZM179.652 346.254L165.86 322.007L182.696 332.325L179.652 346.254ZM176.783 359.39L169.198 359.494C168.09 349.769 162.799 341.316 155.172 335.956L160.572 326.299L177.507 356.069L176.783 359.39ZM136.027 386.609C123.165 386.609 112.699 376.149 112.699 363.283C112.699 350.422 123.165 339.958 136.027 339.958C138.965 339.958 141.768 340.528 144.356 341.522L133.093 361.648C132.512 362.692 132.526 363.971 133.14 365C133.741 366.018 134.843 366.643 136.027 366.643H136.06L159.121 366.394C157.594 377.788 147.832 386.609 136.027 386.609ZM150.215 344.815C154.838 348.371 158.083 353.62 159.038 359.632L141.791 359.864L150.215 344.815ZM238.231 329.886C233.459 329.886 228.927 330.905 224.815 332.721L222.519 328.657V314.395C224.778 313.745 226.641 311.946 227.208 309.49C228.051 305.877 225.808 302.265 222.194 301.419L199.538 296.126L199.629 273.69C199.634 273.014 199.506 272.37 199.32 271.754C207.072 271.661 213.336 265.361 213.336 257.582C213.336 249.747 206.988 243.397 199.153 243.397C191.317 243.397 184.963 249.747 184.963 257.582C184.963 260.13 185.693 262.484 186.863 264.547C184.328 264.901 181.924 266.203 180.245 268.397L176.705 273.026L174.394 271.1C174.394 271.1 159.84 258.783 143.05 285.653C134.885 298.715 132.803 303.526 132.82 305.026C132.83 306.238 152.623 296.853 161.884 292.395L153.41 303.469C150.03 307.891 150.871 314.212 155.29 317.595C155.871 318.04 156.498 318.388 157.134 318.687L149.319 332.661C145.242 330.882 140.748 329.886 136.027 329.886C117.605 329.886 102.624 344.87 102.624 363.283C102.624 381.702 117.605 396.685 136.027 396.685C153.432 396.685 167.754 383.296 169.278 366.282L177.561 366.187C178.495 367.502 179.884 368.502 181.583 368.871C182.066 368.976 182.549 369.021 183.025 369.021C186.114 369.021 188.892 366.883 189.578 363.743L190.737 358.438L218.25 334.756L218.976 336.043C210.432 342.097 204.827 352.043 204.827 363.283C204.827 381.702 219.812 396.685 238.231 396.685C256.65 396.685 271.638 381.702 271.638 363.283C271.638 344.87 256.65 329.886 238.231 329.886Z" fill="#231F20"/>
<path d="M196.33 235.365C198.966 234.61 201.571 234.177 203.476 234.177C203.874 234.177 204.201 234.196 204.459 234.219C203.314 235.101 200.779 236.462 196.958 237.556C194.325 238.314 191.717 238.747 189.808 238.747C189.408 238.747 189.087 238.728 188.833 238.699C189.974 237.822 192.513 236.462 196.33 235.365ZM189.808 242.106C192.052 242.106 194.917 241.636 197.887 240.785C199.84 240.226 209.528 237.218 208.346 233.104C207.914 231.584 206.275 230.817 203.476 230.817C201.235 230.817 198.367 231.287 195.405 232.137C192.571 232.948 189.976 234.019 188.096 235.152C185.555 236.683 184.494 238.25 184.944 239.816C185.375 241.334 187.015 242.106 189.808 242.106Z" fill="#231F20"/>
<path d="M213.65 100.278C213.907 99.643 213.967 98.5496 213.828 96.9955L213.467 92.9438C213.407 92.2708 213.342 91.5602 213.277 90.8178C213.212 90.0746 213.082 89.4238 212.893 88.8621C212.706 88.2996 212.421 87.8493 212.042 87.5085C211.666 87.1677 211.098 87.0307 210.342 87.0983C209.31 87.1908 208.623 87.2867 208.285 87.3834C207.945 87.4828 207.807 87.8689 207.869 88.5437L208.924 100.393C208.985 101.069 209.101 101.433 209.282 101.484C209.457 101.537 210.234 101.502 211.616 101.379C212.715 101.281 213.397 100.913 213.65 100.278Z" fill="#231F20"/>
<path d="M216.28 160.628C216.069 159.388 215.849 158.048 215.616 156.605C215.385 155.162 215.111 153.433 214.796 151.419C214.786 151.284 214.741 150.982 214.665 150.513C214.587 150.044 214.478 149.559 214.331 149.062C214.187 148.564 214.042 148.119 213.907 147.723C213.769 147.326 213.599 147.137 213.396 147.155C213.259 147.166 213.147 147.418 213.054 147.901C212.961 148.384 212.907 148.918 212.89 149.497C212.872 150.077 212.872 150.64 212.887 151.182C212.901 151.725 212.913 152.03 212.919 152.097C212.943 153.933 212.986 155.546 213.042 156.935C213.099 158.325 213.13 159.632 213.139 160.856C213.145 162.082 213.149 163.305 213.158 164.53C213.167 165.755 213.204 167.147 213.274 168.705C213.311 169.11 213.432 169.338 213.641 169.386C213.85 169.437 214.393 169.422 215.272 169.343C216.015 169.278 216.572 169.246 216.947 169.246C217.321 169.248 217.484 168.977 217.435 168.436C217.236 166.959 217.046 165.596 216.868 164.352C216.69 163.111 216.495 161.868 216.28 160.628Z" fill="#231F20"/>
<path d="M210.774 72.0021C210.974 71.1347 211.053 70.43 211.006 69.8898L210.635 65.737C210.574 65.064 210.51 64.3551 210.446 63.611C210.378 62.8678 210.252 62.217 210.062 61.6536C209.87 61.0937 209.587 60.6425 209.211 60.3C208.833 59.9618 208.264 59.823 207.505 59.8907C206.607 59.972 206.025 60.0585 205.757 60.1493C205.484 60.2417 205.38 60.6262 205.44 61.2992L206.435 72.4405C206.494 73.1169 206.699 73.4731 207.049 73.5082C207.4 73.545 207.954 73.5304 208.714 73.4619C209.887 73.3583 210.574 72.872 210.774 72.0021Z" fill="#231F20"/>
<path d="M343.191 162.641C342.94 159.805 342.708 157.207 342.496 154.842C342.287 152.48 342.081 150.184 341.883 147.955C341.686 145.727 341.479 143.433 341.269 141.068C341.058 138.707 340.827 136.108 340.575 133.27C340.515 132.597 340.451 131.888 340.386 131.145C340.321 130.402 340.191 129.75 340.001 129.188C339.812 128.628 339.532 128.175 339.154 127.834C338.775 127.495 338.207 127.356 337.45 127.424C336.694 127.491 336.142 127.729 335.795 128.133C335.45 128.539 335.235 129.035 335.147 129.62C335.063 130.206 335.069 130.87 335.17 131.609C335.269 132.35 335.351 133.057 335.41 133.731L338.027 163.101C338.094 163.843 338.14 164.571 338.171 165.284C338.199 165.996 338.309 166.632 338.495 167.194C338.685 167.756 338.984 168.206 339.397 168.542C339.809 168.88 340.394 169.015 341.152 168.947C341.908 168.88 342.442 168.646 342.753 168.244C343.064 167.842 343.264 167.348 343.349 166.761C343.437 166.176 343.451 165.544 343.392 164.868C343.324 164.126 343.259 163.385 343.191 162.641Z" fill="#231F20"/>
<path d="M354.897 178.135C351.925 181.327 347.78 183.159 342.46 183.632C339.9 183.86 337.51 183.683 335.286 183.098C333.062 182.515 331.096 181.567 329.383 180.256C327.672 178.945 326.287 177.301 325.228 175.317C324.171 173.337 323.53 171.097 323.307 168.598L319.95 130.922C319.727 128.427 319.961 126.109 320.653 123.97C321.346 121.834 322.416 119.97 323.872 118.376C325.324 116.783 327.093 115.503 329.177 114.533C331.263 113.566 333.586 112.967 336.142 112.739C341.462 112.265 345.866 113.337 349.356 115.952C352.846 118.567 354.826 122.508 355.295 127.773L358.652 165.449C359.121 170.715 357.869 174.945 354.897 178.135ZM314.841 181.704C312.104 184.875 308.078 186.697 302.76 187.17C300.199 187.398 297.843 187.218 295.688 186.627C293.532 186.037 291.651 185.081 290.04 183.762C288.43 182.443 287.127 180.789 286.136 178.8C285.146 176.815 284.539 174.571 284.316 172.072L283.946 167.92C283.881 167.179 283.847 166.601 283.844 166.193C283.841 165.786 284.034 165.463 284.415 165.224C284.798 164.986 285.458 164.808 286.392 164.689C287.33 164.575 288.701 164.434 290.512 164.273C292.32 164.112 293.696 164.024 294.643 164.007C295.587 163.991 296.27 164.066 296.688 164.232C297.109 164.398 297.352 164.684 297.425 165.086C297.493 165.488 297.558 166.028 297.618 166.701C297.745 168.12 298.073 169.468 298.601 170.749C299.129 172.029 300.082 172.607 301.451 172.485C302.206 172.419 302.789 172.179 303.201 171.768C303.613 171.357 303.899 170.855 304.053 170.263C304.207 169.671 304.285 169.017 304.291 168.301C304.297 167.587 304.268 166.859 304.201 166.114C304.035 164.225 303.837 162.031 303.617 159.532C303.387 156.968 303.147 154.267 302.893 151.43C302.635 148.527 302.373 145.59 302.107 142.618C301.837 139.58 301.576 136.645 301.325 133.809C301.064 130.904 300.824 128.205 300.601 125.706C300.373 123.141 300.175 120.912 300.005 119.021C299.946 118.347 299.946 117.802 300.011 117.388C300.079 116.973 300.318 116.645 300.734 116.403C301.15 116.163 301.794 115.97 302.659 115.825C303.522 115.681 304.693 115.541 306.167 115.41C308.047 115.242 309.487 115.132 310.496 115.075C311.505 115.02 312.234 115.073 312.688 115.237C313.141 115.401 313.403 115.683 313.474 116.086C313.544 116.489 313.612 117.062 313.677 117.805L318.244 169.049C318.713 174.317 317.579 178.534 314.841 181.704ZM280.696 94.2012C279.922 92.0246 279.165 89.831 278.426 87.6159C277.682 85.4026 276.848 82.9435 275.93 80.2327C275.75 79.7737 275.498 79.6085 275.17 79.7395C274.84 79.8705 274.433 80.6394 273.947 82.0427C273.517 83.375 273.375 84.816 273.514 86.3692L275.501 108.65C275.537 109.055 275.314 109.398 274.831 109.678C274.348 109.961 273.729 110.203 272.97 110.406C272.209 110.611 271.396 110.769 270.525 110.88C269.658 110.992 268.855 111.079 268.118 111.144C267.446 111.205 266.674 111.257 265.799 111.3C264.922 111.345 264.094 111.35 263.317 111.317C262.535 111.285 261.865 111.175 261.309 110.987C260.752 110.798 260.458 110.535 260.427 110.197L254.392 42.4429C254.361 42.1047 254.624 41.8265 255.177 41.6056C255.731 41.3881 256.409 41.192 257.206 41.0173C258 40.8461 258.814 40.7057 259.65 40.5961C260.487 40.4882 261.172 40.4094 261.709 40.3614C262.311 40.3075 263.049 40.2415 263.922 40.1636C264.793 40.0857 265.634 40.0635 266.45 40.0917C267.265 40.1208 267.965 40.2116 268.553 40.364C269.141 40.5147 269.454 40.7947 269.491 41.1989L271.675 65.7084C271.706 66.0466 271.746 66.5184 271.8 67.1255C271.847 67.6666 272.034 67.8542 272.362 67.688C272.488 67.611 272.584 67.3464 272.647 66.8969C272.709 66.4499 272.792 66.0518 272.899 65.7016C273.357 63.2108 273.786 60.9624 274.185 58.9511C274.585 56.9432 274.953 54.9713 275.292 53.0345C275.631 51.0994 275.981 49.1113 276.342 47.0709C276.704 45.0313 277.148 42.7623 277.676 40.2664C277.719 39.9915 277.818 39.7775 277.975 39.6259C278.131 39.4761 278.462 39.3468 278.962 39.2321C279.462 39.1208 280.185 39.0214 281.129 38.9375C282.143 38.8485 283.525 38.7243 285.282 38.5677C287.105 38.4058 288.56 38.2928 289.641 38.2294C290.724 38.1686 291.54 38.1618 292.092 38.2166C292.639 38.2688 293.004 38.357 293.184 38.4752C293.366 38.5976 293.428 38.7261 293.374 38.8673C292.668 41.6526 292.049 44.0561 291.515 46.0768C290.981 48.0983 290.473 50.0317 289.992 51.8777C289.506 53.7246 288.981 55.6263 288.404 57.5828C287.83 59.5402 287.156 61.8794 286.376 64.6022C286.223 65.1613 286.054 65.7392 285.867 66.3317C285.68 66.9277 285.615 67.4954 285.663 68.0348C285.706 68.5074 285.791 68.9081 285.924 69.2361C286.054 69.5657 286.382 70.3543 286.898 71.6002C288.281 74.8804 289.515 77.884 290.611 80.6094C291.705 83.3373 292.795 86.0464 293.885 88.7384C294.979 91.433 296.096 94.2431 297.242 97.168C298.386 100.095 299.699 103.365 301.178 106.974C301.257 107.105 301.271 107.256 301.217 107.43C301.164 107.604 300.923 107.763 300.494 107.903C300.064 108.043 299.33 108.195 298.287 108.355C297.247 108.516 295.781 108.679 293.891 108.85C292.136 109.005 290.718 109.131 289.639 109.228C288.627 109.317 287.828 109.355 287.251 109.338C286.669 109.323 286.271 109.221 286.048 109.036C285.827 108.852 285.667 108.561 285.562 108.161C284.646 105.522 283.798 103.079 283.022 100.834C282.243 98.5911 281.465 96.3786 280.696 94.2012ZM280.512 188.386C280.499 188.626 280.261 188.816 279.798 188.961C279.335 189.104 278.6 189.238 277.588 189.363C276.58 189.487 275.094 189.636 273.136 189.81C271.246 189.978 269.977 190.057 269.331 190.047C268.683 190.037 268.152 189.607 267.736 188.759C266.553 186.211 265.575 183.985 264.793 182.08C264.01 180.176 263.247 178.306 262.504 176.465C261.764 174.627 260.972 172.622 260.134 170.45C259.291 168.279 258.254 165.615 257.02 162.46C256.673 161.605 256.265 160.672 255.802 159.657C255.339 158.646 254.903 158.156 254.499 158.192C254.025 158.234 253.844 158.862 253.952 160.079C254.053 161.227 254.149 162.307 254.24 163.319L256.579 189.549C256.613 189.954 256.591 190.281 256.511 190.525C256.432 190.772 256.14 190.967 255.644 191.114C255.146 191.259 254.376 191.397 253.333 191.524C252.287 191.651 250.786 191.801 248.832 191.976C247.009 192.138 245.622 192.246 244.673 192.294C243.726 192.347 243.045 192.338 242.63 192.273C242.218 192.207 241.983 192.075 241.932 191.875C241.878 191.676 241.839 191.408 241.808 191.069L235.799 123.62C235.756 123.147 235.742 122.792 235.756 122.552C235.766 122.313 235.971 122.124 236.369 121.986C236.765 121.849 237.432 121.722 238.374 121.603C239.315 121.486 240.7 121.345 242.523 121.183C243.941 121.057 245.071 120.975 245.919 120.932C246.766 120.891 247.414 120.917 247.868 121.012C248.318 121.109 248.64 121.267 248.828 121.489C249.018 121.712 249.202 122.053 249.38 122.512C249.739 123.501 250.312 124.98 251.101 126.953C251.889 128.923 252.764 131.109 253.728 133.506C254.689 135.906 255.711 138.4 256.794 140.992C257.873 143.583 258.885 145.959 259.826 148.122C260.009 148.651 260.249 149.225 260.54 149.844C260.834 150.465 261.15 150.76 261.489 150.73C261.961 150.688 262.167 150.158 262.114 149.143C262.055 148.127 261.995 147.249 261.928 146.505L259.701 121.49C259.659 121.018 259.675 120.66 259.757 120.412C259.839 120.168 260.091 119.975 260.523 119.834C260.953 119.694 261.654 119.564 262.631 119.442C263.606 119.323 265.008 119.179 266.83 119.017C268.788 118.843 270.29 118.727 271.341 118.665C272.39 118.608 273.138 118.625 273.59 118.721C274.04 118.819 274.294 118.983 274.351 119.215C274.404 119.45 274.453 119.802 274.495 120.273L280.479 187.42C280.512 187.825 280.527 188.148 280.512 188.386ZM236.087 192.702C235.524 192.89 234.824 193.054 233.984 193.196C233.145 193.339 232.255 193.453 231.308 193.537C230.362 193.621 229.554 193.693 228.879 193.753C227.392 193.885 225.975 193.996 224.621 194.081C223.268 194.169 222.491 193.848 222.29 193.115C221.96 191.716 221.68 190.482 221.451 189.412C221.216 188.347 220.971 187.312 220.713 186.314C220.454 185.317 220.208 184.283 219.979 183.216C219.747 182.148 219.467 180.913 219.138 179.513C219.021 178.979 218.727 178.734 218.255 178.776C217.852 178.811 217.244 178.865 216.433 178.939C215.487 179.021 214.743 179.089 214.204 179.136C213.732 179.178 213.483 179.472 213.467 180.019C213.456 181.449 213.435 182.711 213.397 183.802C213.356 184.894 213.331 185.951 213.319 186.973C213.311 187.993 213.302 189.066 213.3 190.191C213.296 191.313 213.296 192.624 213.294 194.122C213.274 194.668 212.542 195.039 211.096 195.235C209.65 195.433 208.118 195.604 206.496 195.748C206.092 195.783 205.484 195.837 204.674 195.91C203.863 195.982 203.05 196.02 202.235 196.024C201.419 196.03 200.7 195.993 200.081 195.91C199.461 195.831 199.142 195.688 199.125 195.486C199.608 188.705 200.062 182.524 200.483 176.939C200.905 171.356 201.286 165.894 201.628 160.554C201.967 155.217 202.314 149.775 202.673 144.231C203.029 138.687 203.388 132.6 203.75 125.965C203.787 125.621 204.083 125.323 204.64 125.069C205.193 124.816 205.875 124.602 206.677 124.428C207.477 124.254 208.313 124.114 209.191 124.001C210.065 123.889 210.77 123.808 211.311 123.76C211.921 123.705 212.645 123.658 213.495 123.617C214.343 123.576 215.139 123.572 215.894 123.607C216.643 123.642 217.3 123.771 217.865 123.992C218.43 124.215 218.764 124.524 218.865 124.924C220.525 131.309 222.053 137.18 223.449 142.534C224.844 147.888 226.231 153.141 227.607 158.291C228.987 163.443 230.411 168.727 231.879 174.141C233.348 179.558 234.984 185.52 236.79 192.028C236.88 192.293 236.646 192.516 236.087 192.702ZM196.559 117.47C196.151 117.473 195.839 117.399 195.623 117.247C195.405 117.097 195.262 116.82 195.191 116.416C195.121 116.016 195.052 115.41 194.98 114.599L189.205 49.7817C189.138 49.0402 189.103 48.464 189.102 48.0555C189.098 47.6471 189.189 47.3346 189.372 47.1137C189.558 46.8919 189.849 46.748 190.25 46.6778C190.652 46.6085 191.222 46.54 191.963 46.4741L206.202 45.2052C211.52 44.7308 215.925 45.8036 219.414 48.4169C222.906 51.0326 224.885 54.9739 225.352 60.2397L226.076 68.3422C226.279 70.6377 226.048 72.4461 225.386 73.763C224.72 75.0824 223.94 76.0868 223.051 76.7786C222.157 77.4705 221.332 77.9354 220.572 78.1734C219.81 78.4115 219.436 78.599 219.448 78.7317C219.46 78.8687 219.877 78.9671 220.699 79.0288C221.521 79.093 222.462 79.349 223.525 79.7977C224.584 80.2489 225.573 81.0281 226.489 82.1369C227.404 83.2466 227.958 84.882 228.15 87.0422L229.116 97.8787C229.585 103.145 228.333 107.375 225.361 110.565C222.389 113.757 218.242 115.589 212.924 116.062L198.282 117.368C197.539 117.433 196.966 117.468 196.559 117.47ZM231.19 43.8463C231.27 43.6014 231.523 43.4088 231.949 43.2675C232.377 43.1288 233.074 42.9986 234.044 42.8779C235.013 42.7572 236.403 42.6168 238.214 42.4549C240.157 42.2811 241.669 42.1655 242.746 42.1022C243.823 42.0414 244.619 42.0551 245.134 42.145C245.65 42.2357 245.95 42.3958 246.038 42.6253C246.125 42.8556 246.193 43.2084 246.235 43.6793L252.216 110.827C252.253 111.232 252.231 111.558 252.149 111.803C252.07 112.049 251.785 112.243 251.29 112.389C250.795 112.536 250.03 112.672 248.996 112.799C247.959 112.924 246.468 113.073 244.523 113.247C242.712 113.409 241.319 113.517 240.341 113.568C239.367 113.622 238.641 113.619 238.163 113.559C237.683 113.5 237.4 113.371 237.315 113.174C237.231 112.979 237.174 112.712 237.146 112.375L231.136 44.9226C231.093 44.4525 231.108 44.0929 231.19 43.8463ZM300.386 38.548C300.435 38.3399 300.61 38.0188 300.91 37.583C301.209 37.148 301.522 36.8834 301.853 36.785C302.184 36.6882 302.616 36.6146 303.153 36.5666L328.287 34.3267C328.559 34.3027 328.781 34.3344 328.959 34.4209C329.137 34.5065 329.296 34.7472 329.431 35.1427C329.57 35.5392 329.678 36.1779 329.756 37.0555C329.833 37.9323 329.943 39.1473 330.082 40.7005C330.242 42.5243 330.373 43.9765 330.469 45.0553C330.559 46.0682 330.576 46.832 330.52 47.3466C330.463 47.8629 330.355 48.1788 330.197 48.2953C330.036 48.4126 329.787 48.4853 329.452 48.5153L319.322 49.4169C318.918 49.4529 318.464 49.5282 317.964 49.6404C317.464 49.7534 317.155 49.9161 317.039 50.131C316.799 50.4941 316.666 50.7432 316.647 50.8802C316.624 51.0198 316.644 51.4265 316.703 52.1004L317.362 59.4939C317.404 59.9674 317.446 60.44 317.489 60.9118C317.531 61.3853 317.768 61.7715 318.203 62.0729C318.566 62.3135 318.916 62.4171 319.254 62.388C319.659 62.3511 320.063 62.316 320.469 62.2792L325.431 61.8374C325.7 61.8126 325.925 61.8451 326.103 61.9299C326.278 62.0164 326.422 62.2938 326.533 62.7604C326.642 63.2253 326.744 63.966 326.832 64.9789C326.917 65.9242 327.035 67.2419 327.185 68.9287C327.33 70.5487 327.446 71.8313 327.529 72.7775C327.607 73.6551 327.652 74.3315 327.66 74.8067C327.666 75.2828 327.589 75.579 327.431 75.6955C327.273 75.8111 327.022 75.8847 326.685 75.9147L322.128 76.3205C321.585 76.3693 321.083 76.431 320.614 76.5063C320.141 76.5843 319.814 76.6981 319.622 76.8505C319.181 77.2307 318.981 77.6571 319.023 78.128C319.066 78.6007 319.116 79.176 319.176 79.8499L319.924 88.2564C319.987 88.9319 320.066 89.658 320.17 90.4286C320.272 91.2027 320.464 91.6454 320.746 91.7558C321.03 91.8671 321.478 91.9305 322.092 91.9425C322.705 91.9561 323.281 91.939 323.82 91.8902L333.444 91.0331C333.712 91.0092 333.955 91.0391 334.164 91.1213C334.376 91.2044 334.534 91.4638 334.641 91.8962C334.746 92.3303 334.86 92.999 334.975 93.9084C335.091 94.8168 335.221 96.0806 335.365 97.7006C335.526 99.5244 335.636 100.943 335.693 101.959C335.749 102.976 335.76 103.707 335.732 104.151C335.706 104.597 335.611 104.875 335.452 104.993C335.292 105.109 335.077 105.179 334.808 105.203L311.078 107.318C310.27 107.389 309.484 107.475 308.719 107.577C307.947 107.68 307.382 107.58 307.018 107.271C306.585 106.969 306.339 106.48 306.28 105.806C306.219 105.132 306.161 104.489 306.108 103.881L300.404 39.8734C300.344 39.1996 300.339 38.7569 300.386 38.548ZM272.929 0.121216C203.167 -0.452469 141.063 57.3002 140.547 119.776C140.154 168.001 184.738 204.991 237.177 219.631L227.104 248.877L255.881 223.836C265.468 225.483 275.162 226.404 284.762 226.484C354.525 227.055 400.94 165.116 401.45 102.643C401.968 40.1679 342.688 0.694885 272.929 0.121216Z" fill="#231F20"/>
<path d="M136.096 386.609C123.235 386.609 112.77 376.149 112.77 363.283C112.77 355.799 116.329 349.143 121.829 344.874L133.173 364.938C133.789 366.033 134.929 366.643 136.1 366.643C136.657 366.643 137.227 366.501 137.75 366.207C139.365 365.294 139.93 363.248 139.018 361.63L127.675 341.559C130.287 340.538 133.121 339.958 136.096 339.958C148.956 339.958 159.421 350.422 159.421 363.283C159.421 376.149 148.956 386.609 136.096 386.609ZM90.9899 347.523L94.7034 330.528C94.7171 330.466 94.7111 330.401 94.7248 330.332C94.7719 330.09 94.7924 329.839 94.8096 329.593C94.8267 329.393 94.8464 329.191 94.8421 328.989C94.8378 328.773 94.8096 328.559 94.789 328.343C94.7616 328.118 94.7402 327.898 94.6957 327.683C94.6512 327.485 94.5878 327.293 94.527 327.1C94.4568 326.883 94.396 326.669 94.3053 326.462C94.2248 326.27 94.1177 326.087 94.0176 325.901C93.9131 325.708 93.8121 325.518 93.6956 325.341C93.5757 325.164 93.4345 324.999 93.2958 324.836C93.1553 324.662 93.0175 324.49 92.8574 324.334C92.7135 324.191 92.5611 324.071 92.4053 323.943C92.2118 323.784 92.02 323.628 91.8128 323.493C91.7554 323.453 91.7117 323.406 91.6552 323.369L71.074 310.749L83.9731 293.894L83.944 301.427C83.9295 304.554 86.0854 307.284 89.1336 307.993L113.663 313.72V327.999L90.9899 347.523ZM33.8901 386.609C21.0262 386.609 10.5608 376.149 10.5608 363.283C10.5608 350.422 21.0262 339.958 33.8901 339.958C36.826 339.958 39.6288 340.528 42.2179 341.522L30.9602 361.648C30.3742 362.692 30.3882 363.971 31 365C31.6064 366.018 32.7037 366.643 33.8901 366.643H33.9238L56.9839 366.394C55.459 377.788 45.6988 386.609 33.8901 386.609ZM56.9 359.632L39.6525 359.864L48.0783 344.815C52.7028 348.371 55.9462 353.62 56.9 359.632ZM58.4344 326.299L75.368 356.069L74.6436 359.39L67.0592 359.494C65.9538 349.769 60.6606 341.316 53.0333 335.956L58.4344 326.299ZM77.5172 346.254L63.7216 322.007L80.5602 332.325L77.5172 346.254ZM136.096 329.886C131.32 329.886 126.788 330.905 122.678 332.721L120.381 328.657V314.395C122.641 313.745 124.5 311.946 125.074 309.49C125.916 305.877 123.67 302.265 120.057 301.419L97.4005 296.126L97.4913 273.69C97.4973 273.014 97.3671 272.37 97.1822 271.754C104.938 271.661 111.2 265.361 111.2 257.582C111.2 249.747 104.847 243.397 97.0152 243.397C89.1807 243.397 82.8258 249.747 82.8258 257.582C82.8258 260.13 83.5536 262.484 84.7275 264.547C82.1922 264.901 79.7862 266.203 78.1088 268.397L51.272 303.469C47.8933 307.891 48.735 314.212 53.1523 317.595C53.7328 318.04 54.3604 318.388 55 318.687L47.1809 332.661C43.1039 330.882 38.6114 329.886 33.8901 329.886C15.4714 329.886 0.486084 344.87 0.486084 363.283C0.486084 381.702 15.4714 396.685 33.8901 396.685C51.296 396.685 65.6198 383.296 67.1379 366.282L75.4237 366.187C76.3587 367.502 77.7475 368.502 79.4454 368.871C79.93 368.976 80.4121 369.021 80.8881 369.021C83.9731 369.021 86.755 366.883 87.4426 363.743L88.6002 358.438L116.112 334.756L116.837 336.043C108.298 342.097 102.695 352.043 102.695 363.283C102.695 381.702 117.679 396.685 136.096 396.685C154.514 396.685 169.497 381.702 169.497 363.283C169.497 344.87 154.514 329.886 136.096 329.886Z" fill="#231F20"/>
</g>
<defs>
<clipPath id="clip0_601_2790">
<rect width="402" height="396.863" fill="white"/>
</clipPath>
</defs>
</svg>
