<svg width="410" height="324" viewBox="0 0 410 324" fill="none" xmlns="http://www.w3.org/2000/svg">
<g clip-path="url(#clip0_601_2859)">
<mask id="mask0_601_2859" style="mask-type:luminance" maskUnits="userSpaceOnUse" x="0" y="0" width="410" height="324">
<path d="M0 -3.05176e-05H409.777V323.46H0V-3.05176e-05Z" fill="white"/>
</mask>
<g mask="url(#mask0_601_2859)">
<path d="M230.178 250.974C226.94 250.974 223.868 251.661 221.076 252.897L219.516 250.136V240.458C221.046 240.018 222.314 238.797 222.698 237.126C223.27 234.674 221.746 232.221 219.293 231.653L203.912 228.058L203.981 212.826C203.981 212.366 203.894 211.932 203.768 211.513C209.03 211.449 213.278 207.174 213.278 201.898C213.278 196.581 208.973 192.269 203.656 192.269C198.338 192.269 194.022 196.581 194.022 201.898C194.022 203.625 194.518 205.225 195.312 206.624C193.593 206.864 191.961 207.748 190.822 209.237L172.606 233.042C170.314 236.044 170.884 240.333 173.882 242.63C174.277 242.93 174.702 243.169 175.133 243.37L169.829 252.853C167.06 251.642 164.01 250.974 160.806 250.974C148.309 250.974 138.136 261.142 138.136 273.641C138.136 286.137 148.309 296.314 160.806 296.314C172.621 296.314 182.344 287.221 183.376 275.674L189 275.608C189.633 276.502 190.577 277.182 191.729 277.43C192.058 277.504 192.382 277.533 192.709 277.533C194.802 277.533 196.69 276.082 197.157 273.949L197.942 270.349L216.614 254.276L217.108 255.153C211.313 259.264 207.505 266.009 207.505 273.641C207.505 286.137 217.676 296.314 230.178 296.314C242.677 296.314 252.853 286.137 252.853 273.641C252.853 261.142 242.677 250.974 230.178 250.974ZM190.416 262.082L181.057 245.625L192.485 252.625L190.416 262.082ZM177.465 248.537L188.96 268.744L188.473 270.998L183.324 271.065C182.573 264.469 178.98 258.729 173.802 255.088L177.465 248.537ZM176.428 271.165L164.721 271.32L170.437 261.104C173.578 263.516 175.78 267.076 176.428 271.165ZM160.806 289.476C152.081 289.476 144.974 282.372 144.974 273.641C144.974 264.909 152.081 257.808 160.806 257.808C162.804 257.808 164.705 258.197 166.458 258.866L158.817 272.529C158.424 273.24 158.432 274.105 158.85 274.804C159.258 275.493 160.006 275.921 160.806 275.921H160.828L176.485 275.749C175.448 283.485 168.82 289.476 160.806 289.476ZM199.565 262.942L202.085 251.409C202.094 251.364 202.092 251.324 202.098 251.27C202.128 251.11 202.146 250.938 202.156 250.772C202.168 250.636 202.182 250.502 202.18 250.364C202.18 250.216 202.156 250.068 202.146 249.925C202.128 249.77 202.11 249.62 202.082 249.476C202.048 249.337 202.008 249.214 201.962 249.081C201.917 248.932 201.876 248.788 201.816 248.646C201.762 248.52 201.69 248.392 201.618 248.266C201.549 248.136 201.481 248.008 201.4 247.888C201.322 247.769 201.225 247.653 201.13 247.544C201.033 247.425 200.941 247.309 200.832 247.2C200.736 247.104 200.629 247.024 200.524 246.937C200.397 246.828 200.265 246.725 200.121 246.632C200.082 246.604 200.053 246.576 200.016 246.548L186.044 237.981L194.802 226.538L194.778 231.653C194.773 233.776 196.234 235.632 198.305 236.113L214.958 240V249.688L199.565 262.942ZM230.178 289.476C221.453 289.476 214.35 282.372 214.35 273.641C214.35 268.56 216.764 264.044 220.496 261.142L228.196 274.765C228.614 275.502 229.388 275.921 230.178 275.921C230.557 275.921 230.941 275.826 231.302 275.625C232.397 275.004 232.781 273.616 232.162 272.516L224.464 258.896C226.241 258.204 228.161 257.808 230.178 257.808C238.91 257.808 246.013 264.909 246.013 273.641C246.013 282.372 238.91 289.476 230.178 289.476Z" fill="#231F20"/>
</g>
<mask id="mask1_601_2859" style="mask-type:luminance" maskUnits="userSpaceOnUse" x="0" y="0" width="410" height="324">
<path d="M0 -3.05176e-05H409.777V323.46H0V-3.05176e-05Z" fill="white"/>
</mask>
<g mask="url(#mask1_601_2859)">
<path d="M186.85 211.073C186.85 211.073 176.973 202.713 165.576 220.949C160.036 229.813 158.621 233.081 158.633 234.097C158.645 235.173 181.53 223.988 181.53 223.988L191.408 214.867L186.85 211.073Z" fill="#231F20"/>
</g>
<mask id="mask2_601_2859" style="mask-type:luminance" maskUnits="userSpaceOnUse" x="0" y="0" width="410" height="324">
<path d="M0 -3.05176e-05H409.777V323.46H0V-3.05176e-05Z" fill="white"/>
</mask>
<g mask="url(#mask2_601_2859)">
<path d="M197.312 191.392C195.415 191.392 194.303 190.864 194.01 189.837C193.707 188.776 194.426 187.709 196.148 186.673C197.427 185.904 199.187 185.176 201.111 184.627C203.119 184.047 205.068 183.731 206.588 183.731C208.492 183.731 209.604 184.248 209.896 185.28C210.699 188.077 204.123 190.113 202.792 190.497C200.782 191.069 198.835 191.392 197.312 191.392ZM196.654 189.081C196.823 189.097 197.043 189.108 197.312 189.108C198.608 189.108 200.376 188.817 202.163 188.303C204.759 187.563 206.479 186.639 207.259 186.036C207.08 186.025 206.858 186.008 206.588 186.008C205.298 186.008 203.527 186.301 201.738 186.817C199.15 187.563 197.427 188.484 196.654 189.081Z" fill="#231F20"/>
</g>
<mask id="mask3_601_2859" style="mask-type:luminance" maskUnits="userSpaceOnUse" x="0" y="0" width="410" height="324">
<path d="M0 -3.05176e-05H409.777V323.46H0V-3.05176e-05Z" fill="white"/>
</mask>
<g mask="url(#mask3_601_2859)">
<path d="M160.857 250.974C157.615 250.974 154.541 251.661 151.747 252.897L150.189 250.136V240.458C151.725 240.018 152.986 238.797 153.377 237.126C153.946 234.674 152.419 232.221 149.97 231.653L134.59 228.058L134.653 212.826C134.659 212.366 134.566 211.932 134.441 211.513C139.709 211.449 143.957 207.174 143.957 201.898C143.957 196.581 139.646 192.269 134.331 192.269C129.011 192.269 124.701 196.581 124.701 201.898C124.701 203.625 125.193 205.225 125.99 206.624C124.271 206.864 122.637 207.748 121.495 209.237L103.282 233.042C100.99 236.044 101.562 240.333 104.558 242.63C104.957 242.93 105.381 243.169 105.817 243.37L100.505 252.853C97.738 251.642 94.6886 250.974 91.4846 250.974C78.9833 250.974 68.814 261.142 68.814 273.641C68.814 286.137 78.9833 296.314 91.4846 296.314C103.299 296.314 113.022 287.221 114.051 275.674L119.675 275.608C120.311 276.502 121.255 277.182 122.405 277.43C122.734 277.504 123.061 277.533 123.385 277.533C125.477 277.533 127.366 276.082 127.835 273.949L128.618 270.349L147.293 254.276L147.781 255.153C141.989 259.264 138.183 266.009 138.183 273.641C138.183 286.137 148.354 296.314 160.857 296.314C173.355 296.314 183.525 286.137 183.525 273.641C183.525 261.142 173.355 250.974 160.857 250.974ZM121.094 262.082L111.733 245.625L123.163 252.625L121.094 262.082ZM108.143 248.537L119.638 268.744L119.145 270.998L113.997 271.065C113.249 264.469 109.655 258.729 104.481 255.088L108.143 248.537ZM107.103 271.165L95.394 271.32L101.115 261.104C104.251 263.516 106.453 267.076 107.103 271.165ZM91.4846 289.476C82.7526 289.476 75.65 282.372 75.65 273.641C75.65 264.909 82.7526 257.808 91.4846 257.808C93.4793 257.808 95.3806 258.197 97.1366 258.866L89.4966 272.529C89.0993 273.24 89.1073 274.105 89.5233 274.804C89.9366 275.493 90.6806 275.921 91.4846 275.921H91.506L107.158 275.749C106.126 283.485 99.5006 289.476 91.4846 289.476ZM130.241 262.942L132.761 251.409C132.77 251.364 132.767 251.324 132.774 251.27C132.806 251.11 132.825 250.938 132.834 250.772C132.846 250.636 132.858 250.502 132.858 250.364C132.853 250.216 132.834 250.068 132.818 249.925C132.801 249.77 132.786 249.62 132.755 249.476C132.726 249.337 132.683 249.214 132.643 249.081C132.595 248.932 132.551 248.788 132.491 248.646C132.437 248.52 132.365 248.392 132.297 248.266C132.227 248.136 132.157 248.008 132.075 247.888C131.993 247.769 131.901 247.653 131.806 247.544C131.713 247.425 131.619 247.309 131.51 247.2C131.407 247.104 131.307 247.024 131.202 246.937C131.069 246.828 130.941 246.725 130.799 246.632C130.761 246.604 130.731 246.576 130.694 246.548L116.719 237.981L125.477 226.538L125.457 231.653C125.447 233.776 126.913 235.632 128.983 236.113L145.627 240V249.688L130.241 262.942ZM160.857 289.476C152.126 289.476 145.023 282.372 145.023 273.641C145.023 268.56 147.439 264.044 151.174 261.142L158.874 274.765C159.291 275.502 160.063 275.921 160.857 275.921C161.235 275.921 161.625 275.826 161.981 275.625C163.075 275.004 163.457 273.616 162.841 272.516L155.142 258.896C156.913 258.204 158.835 257.808 160.857 257.808C169.586 257.808 176.689 264.909 176.689 273.641C176.689 282.372 169.586 289.476 160.857 289.476Z" fill="#231F20"/>
</g>
<mask id="mask4_601_2859" style="mask-type:luminance" maskUnits="userSpaceOnUse" x="0" y="0" width="410" height="324">
<path d="M0 -3.05176e-05H409.777V323.46H0V-3.05176e-05Z" fill="white"/>
</mask>
<g mask="url(#mask4_601_2859)">
<path d="M283.539 122.786C283.4 121.992 283.255 121.133 283.106 120.208C282.955 119.284 282.778 118.177 282.57 116.885C282.563 116.8 282.534 116.606 282.484 116.305C282.435 116.005 282.363 115.693 282.268 115.376C282.175 115.057 282.082 114.77 281.994 114.517C281.904 114.264 281.795 114.142 281.666 114.154C281.578 114.162 281.507 114.321 281.448 114.632C281.388 114.944 281.354 115.285 281.344 115.656C281.336 116.029 281.336 116.388 281.346 116.736C281.355 117.086 281.363 117.281 281.367 117.324C281.388 118.5 281.416 119.534 281.456 120.425C281.495 121.316 281.516 122.153 281.523 122.938C281.53 123.724 281.536 124.509 281.544 125.293C281.551 126.078 281.576 126.972 281.624 127.97C281.65 128.23 281.728 128.374 281.862 128.405C281.996 128.438 282.344 128.426 282.906 128.376C283.383 128.332 283.74 128.31 283.98 128.309C284.22 128.312 284.326 128.136 284.292 127.789C284.162 126.842 284.038 125.969 283.922 125.173C283.804 124.377 283.678 123.581 283.539 122.786Z" fill="#231F20"/>
</g>
<mask id="mask5_601_2859" style="mask-type:luminance" maskUnits="userSpaceOnUse" x="0" y="0" width="410" height="324">
<path d="M0 -3.05176e-05H409.777V323.46H0V-3.05176e-05Z" fill="white"/>
</mask>
<g mask="url(#mask5_601_2859)">
<path d="M216.775 80.0071C216.558 80.0698 216.47 80.3191 216.511 80.7511L217.207 88.3458C217.247 88.7778 217.323 89.0125 217.439 89.0445C217.552 89.0791 218.051 89.0538 218.934 88.9725C219.639 88.9071 220.075 88.6725 220.238 88.2631C220.402 87.8551 220.436 87.1565 220.346 86.1591L220.106 83.5631C220.067 83.1311 220.026 82.6751 219.98 82.2005C219.938 81.7245 219.855 81.3071 219.732 80.9458C219.61 80.5871 219.428 80.2978 219.186 80.0818C218.943 79.8618 218.579 79.7751 218.094 79.8205C217.431 79.8805 216.992 79.9445 216.775 80.0071Z" fill="#231F20"/>
</g>
<mask id="mask6_601_2859" style="mask-type:luminance" maskUnits="userSpaceOnUse" x="0" y="0" width="410" height="324">
<path d="M0 -3.05176e-05H409.777V323.46H0V-3.05176e-05Z" fill="white"/>
</mask>
<g mask="url(#mask6_601_2859)">
<path d="M215.958 71.1139C216.184 71.1366 216.54 71.1259 217.026 71.0819C217.777 71.0126 218.216 70.6993 218.344 70.1419C218.47 69.5859 218.518 69.1339 218.486 68.7873L218.242 66.1259C218.202 65.6939 218.16 65.2393 218.117 64.7619C218.073 64.2873 217.989 63.8686 217.868 63.5086C217.745 63.1486 217.562 62.8606 217.32 62.6419C217.077 62.4259 216.713 62.3366 216.226 62.3819C215.652 62.4353 215.277 62.4926 215.104 62.5513C214.932 62.6113 214.866 62.8579 214.906 63.2899L215.561 70.4299C215.601 70.8633 215.733 71.0913 215.958 71.1139Z" fill="#231F20"/>
</g>
<mask id="mask7_601_2859" style="mask-type:luminance" maskUnits="userSpaceOnUse" x="0" y="0" width="410" height="324">
<path d="M0 -3.05176e-05H409.777V323.46H0V-3.05176e-05Z" fill="white"/>
</mask>
<g mask="url(#mask7_601_2859)">
<path d="M204.412 130.055C204.273 129.261 204.129 128.402 203.98 127.477C203.829 126.553 203.65 125.446 203.444 124.154C203.437 124.069 203.408 123.875 203.358 123.574C203.308 123.274 203.237 122.962 203.142 122.645C203.048 122.326 202.956 122.039 202.866 121.786C202.777 121.533 202.668 121.411 202.54 121.423C202.45 121.431 202.38 121.59 202.321 121.901C202.262 122.213 202.228 122.554 202.218 122.925C202.209 123.298 202.21 123.657 202.22 124.005C202.229 124.355 202.237 124.55 202.241 124.593C202.261 125.769 202.29 126.803 202.329 127.694C202.368 128.585 202.389 129.422 202.396 130.207C202.404 130.993 202.41 131.778 202.417 132.562C202.424 133.347 202.449 134.241 202.498 135.239C202.522 135.499 202.602 135.643 202.734 135.674C202.87 135.707 203.217 135.695 203.78 135.645C204.256 135.601 204.613 135.579 204.854 135.578C205.093 135.581 205.198 135.405 205.166 135.058C205.036 134.111 204.91 133.238 204.794 132.442C204.677 131.646 204.55 130.85 204.412 130.055Z" fill="#231F20"/>
</g>
<mask id="mask8_601_2859" style="mask-type:luminance" maskUnits="userSpaceOnUse" x="0" y="0" width="410" height="324">
<path d="M0 -3.05176e-05H409.777V323.46H0V-3.05176e-05Z" fill="white"/>
</mask>
<g mask="url(#mask8_601_2859)">
<path d="M317.772 138.787C315.865 140.84 313.203 142.023 309.785 142.336C308.184 142.483 306.668 142.371 305.237 142.001C303.805 141.631 302.54 141.039 301.441 140.223C300.34 139.407 299.437 138.368 298.732 137.1C298.025 135.835 297.597 134.38 297.447 132.735L297.112 129.099C297.092 128.884 297.349 128.731 297.883 128.636C298.416 128.544 299.585 128.415 301.391 128.248C303.196 128.083 304.528 127.96 305.389 127.881C306.292 127.799 306.753 127.867 306.773 128.081L306.94 129.899C307.091 131.544 307.284 132.66 307.52 133.249C307.755 133.84 308.255 134.097 309.021 134.028C309.741 133.961 310.172 133.595 310.315 132.927C310.459 132.259 310.492 131.515 310.416 130.692C310.279 129.177 309.908 127.903 309.308 126.867C308.709 125.831 307.979 124.927 307.119 124.153C306.257 123.383 305.325 122.661 304.321 121.989C303.316 121.32 302.316 120.569 301.32 119.745C300.227 118.841 299.317 118.02 298.592 117.279C297.867 116.539 297.277 115.731 296.824 114.856C296.369 113.981 296.017 112.999 295.764 111.909C295.511 110.82 295.311 109.496 295.168 107.939C295.029 106.424 295.196 105.023 295.671 103.735C296.144 102.448 296.843 101.327 297.763 100.368C298.684 99.4119 299.797 98.6333 301.101 98.0319C302.407 97.4319 303.819 97.0626 305.343 96.9226C306.905 96.7786 308.379 96.8733 309.761 97.2039C311.144 97.5359 312.373 98.0879 313.449 98.8626C314.523 99.6373 315.399 100.613 316.076 101.795C316.749 102.976 317.16 104.345 317.303 105.904L317.615 109.28C317.633 109.497 317.36 109.62 316.797 109.649C316.232 109.68 315.192 109.763 313.679 109.903C310.043 110.236 308.216 110.297 308.195 110.08L307.927 107.159C307.859 106.424 307.639 105.876 307.265 105.517C306.892 105.159 306.481 105 306.031 105.041C305.58 105.083 305.203 105.304 304.9 105.703C304.596 106.101 304.477 106.668 304.545 107.404C304.645 108.485 304.768 109.36 304.917 110.021C305.067 110.684 305.341 111.291 305.744 111.843C306.143 112.395 306.723 112.964 307.479 113.548C308.233 114.135 309.289 114.888 310.647 115.812C311.632 116.508 312.641 117.244 313.679 118.02C314.713 118.799 315.679 119.747 316.571 120.864C317.463 121.981 318.233 123.331 318.881 124.907C319.531 126.483 319.96 128.397 320.167 130.648C320.476 134.023 319.679 136.736 317.772 138.787ZM296.292 143.315C295.931 143.436 295.481 143.543 294.945 143.633C294.409 143.728 293.837 143.801 293.232 143.857C292.625 143.912 292.105 143.96 291.675 144C290.721 144.088 289.811 144.16 288.945 144.217C288.076 144.277 287.577 144.072 287.448 143.603C287.235 142.705 287.052 141.916 286.903 141.232C286.751 140.547 286.592 139.885 286.425 139.245C286.256 138.605 286.099 137.944 285.949 137.26C285.797 136.577 285.617 135.785 285.404 134.888C285.328 134.545 285.139 134.388 284.836 134.416C284.577 134.44 284.188 134.476 283.668 134.524C283.063 134.58 282.585 134.623 282.24 134.655C281.937 134.683 281.779 134.872 281.768 135.223C281.764 136.139 281.751 136.949 281.729 137.648C281.705 138.348 281.692 139.025 281.688 139.681C281.683 140.337 281.68 141.024 281.68 141.743C281.681 142.464 281.683 143.304 281.683 144.263C281.671 144.615 281.201 144.855 280.276 144.981C279.349 145.111 278.367 145.223 277.328 145.317C277.069 145.343 276.68 145.377 276.16 145.425C275.64 145.473 275.12 145.5 274.596 145.504C274.073 145.509 273.612 145.485 273.215 145.435C272.817 145.383 272.613 145.295 272.6 145.163C272.899 140.815 273.18 136.853 273.44 133.271C273.699 129.689 273.933 126.188 274.143 122.765C274.352 119.341 274.567 115.855 274.785 112.297C275.004 108.743 275.223 104.84 275.444 100.585C275.467 100.367 275.657 100.175 276.013 100.011C276.368 99.8466 276.803 99.7093 277.316 99.5946C277.829 99.4813 278.367 99.3906 278.927 99.3159C279.488 99.2426 279.941 99.1893 280.288 99.1573C280.677 99.1213 281.143 99.0919 281.687 99.0626C282.229 99.0359 282.741 99.0306 283.224 99.0519C283.705 99.0746 284.128 99.1559 284.491 99.2973C284.852 99.4386 285.067 99.6373 285.133 99.8919C286.207 103.981 287.197 107.744 288.101 111.173C289.007 114.603 289.904 117.968 290.796 121.267C291.689 124.569 292.609 127.952 293.563 131.423C294.513 134.893 295.575 138.711 296.743 142.879C296.8 143.049 296.649 143.193 296.292 143.315ZM268.968 93.8679C268.32 93.9266 267.808 93.9533 267.437 93.9426C267.065 93.9333 266.808 93.8693 266.667 93.7519C266.525 93.6333 266.42 93.4466 266.353 93.1919C265.761 91.5013 265.213 89.9359 264.711 88.4986C264.208 87.0613 263.707 85.6453 263.208 84.2493C262.709 82.8559 262.22 81.4519 261.74 80.0319C261.26 78.6146 260.724 77.0373 260.128 75.3039C260.013 75.0093 259.852 74.9026 259.64 74.9879C259.429 75.0733 259.169 75.5653 258.86 76.4679C258.589 77.3213 258.5 78.2466 258.591 79.2413L259.904 93.5226C259.927 93.7813 259.785 94.0026 259.476 94.1826C259.168 94.3653 258.769 94.5213 258.284 94.6519C257.797 94.7853 257.276 94.8879 256.719 94.9599C256.161 95.0333 255.647 95.0919 255.175 95.1346C254.744 95.1746 254.248 95.2093 253.688 95.2386C253.127 95.2693 252.597 95.2733 252.097 95.2533C251.596 95.2333 251.167 95.1653 250.809 95.0439C250.451 94.9253 250.263 94.7559 250.244 94.5399L246.253 51.1146C246.233 50.8973 246.401 50.7199 246.756 50.5773C247.112 50.4346 247.545 50.3093 248.056 50.1959C248.565 50.0839 249.087 49.9919 249.623 49.9199C250.159 49.8493 250.597 49.7986 250.941 49.7666C251.328 49.7306 251.801 49.6879 252.359 49.6373C252.917 49.5853 253.459 49.5666 253.981 49.5866C254.503 49.6039 254.952 49.6613 255.329 49.7573C255.705 49.8533 255.908 50.0306 255.932 50.2893L257.375 65.9986C257.395 66.2159 257.423 66.5186 257.459 66.9079C257.491 67.2546 257.609 67.3746 257.819 67.2679C257.901 67.2159 257.963 67.0479 258.001 66.7586C258.04 66.4733 258.092 66.2186 258.16 65.9919C258.449 64.3946 258.72 62.9533 258.972 61.6626C259.225 60.3746 259.459 59.1093 259.671 57.8679C259.885 56.6266 260.105 55.3506 260.335 54.0413C260.564 52.7346 260.844 51.2799 261.179 49.6773C261.204 49.4999 261.268 49.3653 261.368 49.2666C261.468 49.1706 261.68 49.0866 262 49.0133C262.32 48.9413 262.783 48.8759 263.389 48.8199C264.039 48.7599 264.925 48.6786 266.051 48.5759C267.219 48.4679 268.151 48.3933 268.845 48.3519C269.539 48.3106 270.063 48.3066 270.415 48.3386C270.767 48.3706 271.001 48.4266 271.117 48.5026C271.233 48.5786 271.275 48.6639 271.24 48.7533C270.792 50.5399 270.4 52.0813 270.06 53.3786C269.721 54.6759 269.399 55.9159 269.092 57.0999C268.787 58.2853 268.452 59.5053 268.087 60.7586C267.721 62.0146 267.293 63.5173 266.8 65.2639C266.7 65.6226 266.592 65.9919 266.475 66.3746C266.356 66.7559 266.315 67.1199 266.347 67.4666C266.373 67.7693 266.431 68.0253 266.516 68.2359C266.6 68.4479 266.809 68.9506 267.144 69.7493C268.036 71.8506 268.835 73.7733 269.54 75.5186C270.247 77.2653 270.952 79.0013 271.656 80.7253C272.359 82.4506 273.08 84.2479 273.82 86.1226C274.56 87.9959 275.407 90.0906 276.361 92.4013C276.412 92.4866 276.421 92.5839 276.389 92.6946C276.356 92.8066 276.2 92.9093 275.925 92.9986C275.649 93.0893 275.18 93.1879 274.512 93.2919C273.845 93.3986 272.907 93.5066 271.695 93.6173C270.569 93.7199 269.661 93.8039 268.968 93.8679ZM267.571 143.399C265.823 145.437 263.244 146.612 259.835 146.925C258.195 147.076 256.684 146.964 255.3 146.589C253.916 146.215 252.708 145.607 251.673 144.763C250.639 143.92 249.8 142.861 249.163 141.589C248.523 140.316 248.131 138.881 247.984 137.28L247.74 134.617C247.695 134.141 247.672 133.772 247.671 133.511C247.668 133.249 247.791 133.041 248.036 132.889C248.281 132.733 248.704 132.62 249.303 132.543C249.903 132.467 250.781 132.373 251.943 132.267C253.101 132.161 253.984 132.104 254.589 132.089C255.193 132.077 255.633 132.125 255.903 132.232C256.172 132.337 256.329 132.52 256.375 132.777C256.42 133.035 256.463 133.38 256.503 133.812C256.585 134.72 256.8 135.587 257.139 136.405C257.48 137.225 258.091 137.595 258.969 137.513C259.453 137.469 259.827 137.315 260.089 137.051C260.355 136.788 260.536 136.465 260.633 136.084C260.732 135.705 260.781 135.284 260.785 134.827C260.787 134.368 260.765 133.901 260.721 133.424C260.611 132.213 260.48 130.807 260.333 129.205C260.183 127.561 260.023 125.831 259.856 124.012C259.687 122.153 259.513 120.271 259.339 118.365C259.159 116.417 258.985 114.535 258.819 112.717C258.648 110.857 258.489 109.125 258.343 107.524C258.191 105.88 258.06 104.453 257.948 103.24C257.909 102.808 257.909 102.459 257.951 102.192C257.991 101.927 258.144 101.717 258.411 101.561C258.679 101.407 259.089 101.281 259.644 101.185C260.197 101.092 260.949 101 261.895 100.913C263.097 100.803 264.021 100.731 264.668 100.692C265.313 100.656 265.783 100.689 266.073 100.792C266.364 100.897 266.532 101.077 266.577 101.336C266.624 101.592 266.668 101.959 266.712 102.435L269.729 135.281C270.04 138.656 269.32 141.364 267.571 143.399ZM245.184 148.108C244.885 148.201 244.413 148.288 243.767 148.369C243.12 148.451 242.168 148.548 240.912 148.664C239.701 148.775 238.888 148.828 238.473 148.821C238.057 148.817 237.716 148.543 237.448 148C236.687 146.368 236.055 144.944 235.549 143.724C235.044 142.505 234.552 141.307 234.075 140.128C233.593 138.951 233.083 137.667 232.541 136.275C231.999 134.885 231.331 133.179 230.533 131.156C230.308 130.612 230.045 130.013 229.745 129.364C229.447 128.717 229.168 128.404 228.908 128.427C228.604 128.455 228.489 128.857 228.56 129.637C228.628 130.375 228.691 131.064 228.751 131.715L230.296 148.527C230.32 148.787 230.305 148.995 230.255 149.152C230.204 149.311 230.02 149.436 229.701 149.531C229.383 149.625 228.888 149.715 228.22 149.796C227.551 149.88 226.589 149.98 225.335 150.095C224.167 150.203 223.277 150.273 222.669 150.307C222.061 150.341 221.625 150.339 221.36 150.297C221.093 150.256 220.944 150.171 220.911 150.044C220.876 149.915 220.852 149.744 220.831 149.527L216.859 106.296C216.832 105.992 216.82 105.764 216.828 105.611C216.836 105.457 216.967 105.336 217.221 105.249C217.475 105.16 217.904 105.077 218.507 104.999C219.111 104.921 219.997 104.828 221.165 104.721C222.075 104.637 222.8 104.583 223.344 104.553C223.885 104.528 224.301 104.543 224.591 104.603C224.88 104.664 225.085 104.765 225.208 104.907C225.329 105.048 225.448 105.268 225.564 105.561C225.796 106.195 226.167 107.143 226.676 108.404C227.184 109.667 227.748 111.067 228.369 112.603C228.991 114.139 229.649 115.735 230.349 117.396C231.047 119.056 231.699 120.576 232.307 121.961C232.424 122.3 232.577 122.668 232.768 123.064C232.957 123.463 233.16 123.651 233.376 123.632C233.68 123.604 233.811 123.263 233.773 122.613C233.736 121.961 233.695 121.399 233.651 120.921L232.179 104.888C232.149 104.585 232.161 104.356 232.213 104.197C232.264 104.04 232.427 103.916 232.703 103.827C232.977 103.736 233.428 103.651 234.053 103.569C234.679 103.491 235.577 103.397 236.744 103.289C238 103.175 238.963 103.097 239.636 103.057C240.308 103.019 240.789 103.028 241.079 103.089C241.368 103.149 241.529 103.255 241.567 103.403C241.601 103.553 241.633 103.781 241.661 104.083L245.616 147.12C245.639 147.379 245.647 147.585 245.639 147.739C245.632 147.892 245.479 148.015 245.184 148.108ZM217.164 150.584C216.803 150.705 216.355 150.812 215.819 150.903C215.281 150.997 214.711 151.071 214.105 151.127C213.499 151.181 212.979 151.231 212.547 151.269C211.595 151.357 210.685 151.429 209.817 151.487C208.949 151.547 208.451 151.341 208.321 150.872C208.107 149.976 207.925 149.185 207.776 148.501C207.625 147.816 207.467 147.155 207.3 146.515C207.131 145.875 206.971 145.213 206.821 144.531C206.671 143.847 206.489 143.055 206.276 142.157C206.2 141.815 206.012 141.657 205.709 141.685C205.451 141.709 205.06 141.745 204.54 141.793C203.935 141.849 203.459 141.893 203.113 141.925C202.809 141.952 202.652 142.141 202.64 142.492C202.637 143.408 202.625 144.219 202.603 144.919C202.577 145.617 202.565 146.295 202.56 146.951C202.555 147.607 202.552 148.293 202.552 149.012C202.553 149.733 202.555 150.573 202.556 151.532C202.543 151.884 202.075 152.124 201.148 152.251C200.221 152.38 199.24 152.492 198.201 152.588C197.941 152.612 197.552 152.648 197.032 152.695C196.513 152.743 195.992 152.769 195.468 152.773C194.945 152.779 194.484 152.756 194.087 152.704C193.689 152.652 193.485 152.564 193.473 152.432C193.772 148.085 194.052 144.123 194.312 140.54C194.573 136.959 194.807 133.457 195.017 130.036C195.225 126.611 195.439 123.124 195.657 119.567C195.877 116.012 196.096 112.109 196.316 107.855C196.34 107.636 196.529 107.444 196.887 107.28C197.241 107.116 197.677 106.979 198.189 106.865C198.703 106.752 199.24 106.66 199.8 106.585C200.36 106.512 200.815 106.459 201.161 106.427C201.551 106.392 202.016 106.361 202.56 106.332C203.101 106.305 203.615 106.301 204.096 106.321C204.577 106.344 205 106.425 205.363 106.567C205.724 106.708 205.94 106.907 206.007 107.161C207.08 111.252 208.071 115.013 208.973 118.443C209.879 121.872 210.777 125.237 211.669 128.537C212.561 131.839 213.483 135.221 214.435 138.692C215.385 142.163 216.447 145.981 217.616 150.148C217.673 150.319 217.523 150.463 217.164 150.584ZM204.579 54.2239C204.697 54.0813 204.884 53.9893 205.14 53.9426C205.397 53.8973 205.763 53.8519 206.239 53.8079L215.364 52.9706C218.773 52.6559 221.599 53.3359 223.841 55.0066C226.083 56.6759 227.359 59.1986 227.669 62.5746L228.147 67.7679C228.281 69.2399 228.136 70.3986 227.713 71.2439C227.289 72.0919 226.792 72.7359 226.221 73.1826C225.651 73.6266 225.123 73.9266 224.635 74.0799C224.147 74.2346 223.909 74.3546 223.916 74.4413C223.924 74.5279 224.191 74.5906 224.719 74.6279C225.245 74.6679 225.849 74.8319 226.531 75.1159C227.212 75.4039 227.847 75.9013 228.436 76.6106C229.023 77.3213 229.383 78.3679 229.509 79.7533L230.147 86.6986C230.459 90.0733 229.663 92.7879 227.763 94.8386C225.861 96.8906 223.208 98.0719 219.8 98.3853L210.413 99.2466C209.94 99.2906 209.571 99.3146 209.309 99.3159C209.049 99.3186 208.849 99.2693 208.709 99.1746C208.569 99.0786 208.477 98.9013 208.432 98.6426C208.387 98.3853 208.34 97.9973 208.293 97.4773L204.475 55.9333C204.432 55.4573 204.409 55.0893 204.407 54.8279C204.405 54.5666 204.461 54.3639 204.579 54.2239ZM231.381 52.0546C231.433 51.8973 231.595 51.7746 231.868 51.6839C232.14 51.5919 232.588 51.5079 233.209 51.4266C233.831 51.3493 234.724 51.2573 235.883 51.1506C237.131 51.0359 238.099 50.9573 238.788 50.9159C239.477 50.8746 239.988 50.8826 240.317 50.9399C240.648 50.9973 240.843 51.0973 240.899 51.2466C240.956 51.3933 240.999 51.6199 241.025 51.9226L244.98 94.9573C245.004 95.2173 244.989 95.4266 244.939 95.5839C244.888 95.7426 244.705 95.8666 244.389 95.9613C244.073 96.0559 243.581 96.1466 242.917 96.2279C242.253 96.3119 241.299 96.4093 240.052 96.5239C238.892 96.6306 237.997 96.7026 237.372 96.7373C236.747 96.7733 236.281 96.7719 235.975 96.7346C235.667 96.6973 235.485 96.6173 235.432 96.4906C235.377 96.3639 235.34 96.1933 235.32 95.9773L231.349 52.7466C231.32 52.4426 231.331 52.2119 231.381 52.0546ZM275.735 48.5359C275.764 48.4026 275.876 48.1959 276.068 47.9173C276.259 47.6386 276.46 47.4666 276.671 47.4026C276.883 47.3426 277.159 47.2933 277.503 47.2613L293.615 45.7813C293.787 45.7653 293.931 45.7853 294.044 45.8386C294.159 45.8959 294.26 46.0493 294.349 46.3026C294.437 46.5559 294.509 46.9666 294.56 47.5279C294.612 48.0906 294.684 48.8693 294.775 49.8639C294.883 51.0333 294.967 51.9639 295.031 52.6546C295.091 53.3053 295.103 53.7946 295.068 54.1239C295.033 54.4546 294.964 54.6586 294.861 54.7333C294.759 54.8066 294.6 54.8546 294.384 54.8733L287.893 55.4706C287.633 55.4946 287.344 55.5426 287.023 55.6159C286.701 55.6906 286.504 55.7946 286.429 55.9319C286.276 56.1666 286.192 56.3253 286.18 56.4146C286.165 56.5039 286.18 56.7639 286.219 57.1959L286.653 61.9346C286.683 62.2373 286.709 62.5413 286.739 62.8426C286.765 63.1466 286.919 63.3946 287.197 63.5879C287.431 63.7413 287.653 63.8066 287.871 63.7866C288.131 63.7626 288.391 63.7386 288.649 63.7146L291.831 63.4239C292.003 63.4066 292.147 63.4266 292.261 63.4813C292.375 63.5359 292.467 63.7146 292.539 64.0133C292.611 64.3133 292.677 64.7853 292.736 65.4346C292.792 66.0413 292.869 66.8853 292.968 67.9653C293.064 69.0039 293.139 69.8279 293.195 70.4333C293.247 70.9959 293.275 71.4293 293.281 71.7346C293.288 72.0399 293.24 72.2293 293.137 72.3039C293.035 72.3786 292.875 72.4253 292.659 72.4453L289.74 72.7133C289.392 72.7453 289.069 72.7866 288.768 72.8359C288.467 72.8853 288.256 72.9586 288.133 73.0586C287.852 73.3026 287.724 73.5759 287.751 73.8786C287.78 74.1813 287.812 74.5493 287.853 74.9826L288.348 80.3693C288.388 80.8026 288.44 81.2666 288.509 81.7613C288.575 82.2586 288.699 82.5413 288.88 82.6119C289.061 82.6826 289.349 82.7213 289.743 82.7279C290.136 82.7359 290.505 82.7239 290.852 82.6919L297.019 82.1253C297.191 82.1093 297.347 82.1279 297.481 82.1813C297.617 82.2346 297.72 82.3999 297.789 82.6773C297.857 82.9533 297.929 83.3853 298.005 83.9666C298.08 84.5493 298.167 85.3573 298.261 86.3973C298.369 87.5653 298.441 88.4746 298.479 89.1266C298.517 89.7786 298.527 90.2466 298.511 90.5319C298.493 90.8173 298.433 90.9959 298.332 91.0719C298.229 91.1466 298.091 91.1919 297.919 91.2079L282.708 92.6053C282.192 92.6519 281.689 92.7093 281.196 92.7773C280.703 92.8426 280.341 92.7799 280.105 92.5826C279.828 92.3893 279.669 92.0773 279.631 91.6453C279.589 91.2119 279.552 90.7999 279.516 90.4119L275.747 49.3853C275.707 48.9546 275.703 48.6719 275.735 48.5359ZM253.729 27.1479C206.376 26.7573 164.225 65.9573 163.879 108.364C163.609 141.093 193.872 166.201 229.463 176.137L222.629 195.989L242.16 178.992C248.661 180.108 255.244 180.735 261.761 180.792C309.109 181.175 340.617 139.136 340.961 96.7333C341.316 54.3293 301.077 27.5386 253.729 27.1479Z" fill="#231F20"/>
</g>
</g>
<defs>
<clipPath id="clip0_601_2859">
<rect width="409.777" height="323.46" fill="white"/>
</clipPath>
</defs>
</svg>
