<svg width="401" height="396" viewBox="0 0 401 396" fill="none" xmlns="http://www.w3.org/2000/svg">
<g clip-path="url(#clip0_601_2746)">
<path d="M272.542 0.18718C202.948 -0.385117 140.994 57.2273 140.48 119.553C140.086 167.66 184.563 204.561 236.876 219.167L226.828 248.342L255.535 223.361C265.098 225.004 274.769 225.923 284.346 226.004C353.94 226.573 400.243 164.783 400.754 102.46C401.269 40.1363 342.133 0.75946 272.542 0.18718Z" fill="#80CC28"/>
<path d="M237.928 385.741C225.1 385.741 214.66 375.308 214.66 362.472C214.66 355.005 218.209 348.367 223.697 344.107L235.014 364.123C235.627 365.215 236.763 365.822 237.931 365.822C238.488 365.822 239.055 365.682 239.579 365.388C241.188 364.478 241.755 362.436 240.845 360.823L229.528 340.8C232.138 339.782 234.962 339.202 237.928 339.202C250.76 339.202 261.2 349.641 261.2 362.472C261.2 375.308 250.76 385.741 237.928 385.741ZM192.931 346.75L196.637 329.796C196.649 329.734 196.647 329.669 196.657 329.6C196.703 329.359 196.727 329.108 196.744 328.863C196.759 328.663 196.778 328.463 196.775 328.261C196.774 328.045 196.747 327.832 196.722 327.616C196.696 327.392 196.676 327.172 196.631 326.957C196.586 326.761 196.521 326.569 196.458 326.375C196.392 326.159 196.329 325.946 196.24 325.739C196.156 325.549 196.053 325.365 195.95 325.179C195.849 324.987 195.75 324.799 195.631 324.621C195.513 324.445 195.372 324.279 195.236 324.116C195.093 323.945 194.953 323.773 194.796 323.617C194.654 323.474 194.499 323.353 194.343 323.227C194.156 323.067 193.961 322.913 193.751 322.778C193.695 322.738 193.649 322.691 193.594 322.654L173.06 310.064L185.937 293.25L185.901 300.764C185.89 303.885 188.037 306.608 191.081 307.315L215.553 313.027V327.273L192.931 346.75ZM135.97 385.741C123.14 385.741 112.698 375.308 112.698 362.472C112.698 349.641 123.14 339.202 135.97 339.202C138.902 339.202 141.698 339.77 144.279 340.763L133.045 360.839C132.464 361.882 132.478 363.158 133.089 364.185C133.69 365.2 134.79 365.822 135.97 365.822H136.003L159.008 365.575C157.486 376.942 147.748 385.741 135.97 385.741ZM158.926 358.83L141.72 359.061L150.124 344.048C154.736 347.595 157.973 352.832 158.926 358.83ZM160.455 325.577L177.35 355.275L176.628 358.588L169.062 358.691C167.957 348.99 162.677 340.557 155.068 335.21L160.455 325.577ZM179.49 345.484L165.731 321.295L182.527 331.588L179.49 345.484ZM237.928 329.154C233.167 329.154 228.646 330.172 224.545 331.983L222.253 327.93V313.702C224.508 313.054 226.366 311.258 226.932 308.809C227.772 305.203 225.534 301.602 221.929 300.757L199.327 295.477L199.419 273.095C199.425 272.421 199.296 271.778 199.11 271.164C206.844 271.07 213.092 264.785 213.092 257.026C213.092 249.21 206.76 242.876 198.944 242.876C191.127 242.876 184.788 249.21 184.788 257.026C184.788 259.569 185.516 261.917 186.683 263.974C184.155 264.327 181.757 265.625 180.082 267.816L153.311 302.802C149.94 307.213 150.779 313.519 155.187 316.894C155.766 317.338 156.392 317.686 157.026 317.982L149.23 331.924C145.163 330.147 140.68 329.154 135.97 329.154C117.593 329.154 102.647 344.103 102.647 362.472C102.647 380.845 117.593 395.792 135.97 395.792C153.334 395.792 167.621 382.435 169.14 365.463L177.404 365.369C178.336 366.68 179.721 367.678 181.417 368.047C181.898 368.151 182.38 368.195 182.855 368.195C185.937 368.195 188.709 366.063 189.391 362.93L190.548 357.638L217.994 334.014L218.719 335.298C210.196 341.336 204.604 351.259 204.604 362.472C204.604 380.845 219.553 395.792 237.928 395.792C256.301 395.792 271.254 380.845 271.254 362.472C271.254 344.103 256.301 329.154 237.928 329.154Z" fill="#00ADEF"/>
<path d="M174.245 270.511C174.245 270.511 159.726 258.223 142.978 285.028C134.831 298.06 132.754 302.859 132.771 304.355C132.785 305.934 166.43 289.496 166.43 289.496L180.944 276.095L174.245 270.511Z" fill="#00ADEF"/>
<path d="M188.649 238.187C188.903 238.217 189.223 238.236 189.622 238.236C191.525 238.236 194.127 237.803 196.754 237.048C200.565 235.956 203.095 234.598 204.237 233.719C203.981 233.696 203.654 233.677 203.257 233.677C201.356 233.677 198.758 234.108 196.128 234.862C192.32 235.956 189.788 237.315 188.649 238.187ZM189.622 241.588C186.835 241.588 185.199 240.816 184.769 239.303C184.32 237.742 185.379 236.177 187.914 234.65C189.789 233.519 192.378 232.45 195.205 231.642C198.16 230.794 201.022 230.326 203.257 230.326C206.049 230.326 207.684 231.091 208.115 232.607C209.293 236.711 199.629 239.711 197.682 240.27C194.72 241.118 191.86 241.588 189.622 241.588Z" fill="#00ADEF"/>
<path d="M213.223 92.7849C213.163 92.1135 213.098 91.4046 213.034 90.664C212.969 89.9226 212.84 89.2734 212.651 88.7131C212.465 88.1519 212.179 87.7027 211.803 87.3627C211.427 87.0236 210.861 86.8861 210.105 86.9536C209.076 87.0458 208.392 87.1414 208.054 87.238C207.716 87.337 207.577 87.7223 207.64 88.3954L208.69 100.215C208.752 100.89 208.868 101.254 209.048 101.304C209.223 101.357 209.998 101.321 211.376 101.199C212.473 101.102 213.152 100.735 213.406 100.102C213.662 99.4679 213.722 98.3771 213.584 96.8268L213.223 92.7849ZM210.398 65.6439C210.337 64.9726 210.275 64.2644 210.21 63.5222C210.141 62.7816 210.015 62.1316 209.826 61.5704C209.635 61.0126 209.353 60.5608 208.978 60.2208C208.6 59.8826 208.034 59.7442 207.276 59.8117C206.38 59.892 205.799 59.9791 205.531 60.0696C205.261 60.1619 205.156 60.5454 205.215 61.2168L206.207 72.3312C206.266 73.006 206.472 73.3621 206.822 73.3972C207.171 73.4339 207.723 73.4176 208.482 73.3502C209.652 73.2468 210.337 72.7616 210.537 71.8947C210.737 71.0285 210.815 70.3256 210.768 69.7857L210.398 65.6439ZM225.088 110.364C222.124 113.549 217.986 115.376 212.682 115.849L198.074 117.15C197.334 117.216 196.762 117.25 196.357 117.252C195.949 117.255 195.638 117.181 195.422 117.03C195.205 116.88 195.063 116.604 194.992 116.202C194.922 115.802 194.853 115.197 194.781 114.388L189.02 49.7283C188.954 48.9869 188.919 48.4129 188.917 48.0055C188.913 47.598 189.004 47.2854 189.187 47.0659C189.372 46.8447 189.663 46.702 190.063 46.632C190.462 46.5619 191.032 46.4936 191.771 46.4278L205.976 45.162C211.281 44.6888 215.675 45.759 219.155 48.3668C222.639 50.9763 224.613 54.9071 225.081 60.1602L225.802 68.2431C226.005 70.5331 225.773 72.3371 225.115 73.6508C224.449 74.9662 223.671 75.969 222.783 76.6583C221.893 77.3493 221.07 77.8132 220.312 78.0506C219.551 78.2881 219.178 78.4743 219.189 78.6075C219.201 78.7442 219.618 78.8433 220.438 78.9039C221.258 78.968 222.197 79.2234 223.257 79.671C224.314 80.1211 225.3 80.8993 226.213 82.0046C227.126 83.1115 227.68 84.743 227.87 86.898L228.835 97.7083C229.303 102.961 228.054 107.182 225.088 110.364Z" fill="white"/>
<path d="M251.813 111.599C251.733 111.844 251.449 112.038 250.955 112.185C250.462 112.33 249.698 112.466 248.667 112.592C247.632 112.718 246.144 112.868 244.205 113.04C242.398 113.201 241.008 113.309 240.034 113.361C239.061 113.414 238.337 113.411 237.861 113.35C237.381 113.292 237.099 113.164 237.014 112.967C236.93 112.773 236.873 112.506 236.845 112.17L230.851 44.8813C230.808 44.4107 230.822 44.0528 230.904 43.8059C230.983 43.5625 231.237 43.3703 231.662 43.2294C232.088 43.091 232.784 42.962 233.751 42.8407C234.718 42.7203 236.105 42.5802 237.91 42.4179C239.85 42.2454 241.358 42.1292 242.432 42.0668C243.506 42.0062 244.3 42.0199 244.814 42.1096C245.33 42.2001 245.628 42.3598 245.716 42.5887C245.803 42.8194 245.87 43.1704 245.912 43.6402L251.88 110.626C251.917 111.029 251.894 111.355 251.813 111.599Z" fill="white"/>
<path d="M300.762 107.236C300.708 107.411 300.468 107.569 300.04 107.708C299.611 107.848 298.879 107.999 297.839 108.159C296.801 108.32 295.339 108.483 293.454 108.652C291.704 108.808 290.287 108.934 289.211 109.029C288.202 109.119 287.405 109.156 286.83 109.139C286.249 109.125 285.852 109.023 285.629 108.839C285.409 108.655 285.249 108.365 285.144 107.966C284.231 105.333 283.385 102.895 282.61 100.657C281.832 98.4179 281.057 96.2116 280.29 94.0403C279.518 91.8682 278.763 89.6799 278.024 87.4701C277.284 85.2621 276.452 82.809 275.536 80.1047C275.355 79.646 275.105 79.482 274.777 79.6118C274.448 79.7434 274.042 80.5104 273.558 81.9104C273.129 83.2386 272.988 84.677 273.126 86.2265L275.107 108.453C275.144 108.857 274.921 109.2 274.439 109.479C273.957 109.762 273.34 110.003 272.581 110.205C271.823 110.41 271.011 110.568 270.144 110.678C269.278 110.789 268.478 110.877 267.743 110.943C267.071 111.001 266.302 111.054 265.429 111.097C264.555 111.142 263.729 111.147 262.953 111.115C262.173 111.082 261.505 110.973 260.949 110.784C260.394 110.596 260.101 110.334 260.071 109.997L254.05 42.4062C254.019 42.0688 254.281 41.7912 254.834 41.5717C255.385 41.3539 256.062 41.1583 256.857 40.9841C257.649 40.8124 258.461 40.6732 259.295 40.5638C260.129 40.4562 260.815 40.3767 261.35 40.3298C261.951 40.276 262.686 40.2102 263.557 40.1325C264.425 40.0547 265.266 40.0317 266.08 40.0607C266.891 40.0898 267.59 40.1803 268.177 40.3324C268.762 40.4827 269.075 40.762 269.112 41.1652L271.291 65.6156C271.322 65.9529 271.361 66.4236 271.416 67.0292C271.462 67.569 271.649 67.7561 271.976 67.5904C272.102 67.5135 272.199 67.2496 272.26 66.8011C272.323 66.3552 272.405 65.9589 272.511 65.6087C272.968 63.124 273.396 60.8809 273.793 58.8745C274.194 56.8715 274.56 54.9043 274.899 52.9714C275.236 51.0418 275.586 49.0585 275.947 47.0238C276.307 44.9884 276.751 42.7249 277.278 40.235C277.32 39.9608 277.419 39.7472 277.577 39.5961C277.731 39.4466 278.061 39.3167 278.56 39.2031C279.059 39.0921 279.78 38.993 280.722 38.9093C281.734 38.8196 283.112 38.6966 284.865 38.5412C286.684 38.3789 288.135 38.2661 289.215 38.2038C290.293 38.1423 291.108 38.1354 291.657 38.1901C292.205 38.2422 292.568 38.3302 292.748 38.4472C292.928 38.5693 292.992 38.6992 292.938 38.8393C292.233 41.6179 291.616 44.0155 291.083 46.0313C290.55 48.0488 290.042 49.9776 289.564 51.8174C289.079 53.6607 288.554 55.5578 287.979 57.5087C287.407 59.4622 286.733 61.7966 285.956 64.512C285.803 65.0698 285.635 65.6463 285.449 66.2374C285.263 66.8319 285.197 67.3982 285.245 67.9354C285.288 68.4078 285.373 68.8075 285.505 69.1347C285.635 69.4635 285.962 70.2494 286.478 71.493C287.856 74.7653 289.087 77.7609 290.181 80.4805C291.272 83.2019 292.36 85.9044 293.448 88.5899C294.539 91.278 295.652 94.0814 296.796 96.9992C297.938 99.9187 299.248 103.182 300.722 106.782C300.801 106.912 300.816 107.063 300.762 107.236Z" fill="white"/>
<path d="M335.154 101.779C335.21 102.793 335.221 103.523 335.193 103.966C335.168 104.409 335.072 104.688 334.915 104.805C334.753 104.921 334.54 104.991 334.272 105.015L310.598 107.124C309.792 107.195 309.009 107.282 308.245 107.385C307.476 107.486 306.912 107.386 306.549 107.078C306.117 106.777 305.872 106.289 305.813 105.616C305.751 104.944 305.695 104.303 305.641 103.696L299.95 39.8434C299.891 39.1711 299.886 38.7304 299.932 38.5211C299.981 38.3135 300.155 37.9932 300.454 37.5585C300.753 37.1245 301.067 36.8606 301.396 36.7624C301.725 36.6667 302.157 36.5933 302.692 36.5446L327.766 34.3109C328.037 34.2862 328.26 34.3178 328.438 34.404C328.615 34.4894 328.772 34.7295 328.907 35.1241C329.046 35.5196 329.153 36.1576 329.232 37.0323C329.308 37.907 329.418 39.119 329.557 40.6684C329.717 42.4878 329.846 43.9365 329.942 45.0127C330.032 46.0241 330.049 46.7851 329.993 47.2993C329.937 47.8135 329.829 48.1287 329.672 48.2449C329.51 48.361 329.263 48.4345 328.928 48.4644L318.823 49.3647C318.42 49.3997 317.966 49.4749 317.468 49.5868C316.969 49.6995 316.661 49.8618 316.546 50.0762C316.306 50.4384 316.174 50.6869 316.154 50.8236C316.131 50.9628 316.151 51.3685 316.21 52.0408L316.867 59.4165C316.909 59.8888 316.952 60.3595 316.994 60.831C317.036 61.3033 317.273 61.6886 317.707 61.9892C318.068 62.2292 318.417 62.3326 318.756 62.3035C319.158 62.2668 319.562 62.2309 319.968 62.195L324.917 61.7543C325.185 61.7296 325.41 61.762 325.588 61.8466C325.762 61.9337 325.907 62.2096 326.016 62.6751C326.126 63.1398 326.228 63.8778 326.315 64.8882C326.4 65.8312 326.517 67.1458 326.667 68.8285C326.81 70.4446 326.927 71.7241 327.011 72.668C327.087 73.5435 327.132 74.2182 327.141 74.6923C327.146 75.1681 327.07 75.4627 326.912 75.5789C326.755 75.6942 326.504 75.7677 326.168 75.7976L321.622 76.2033C321.081 76.2511 320.578 76.3127 320.111 76.3878C319.641 76.4647 319.313 76.5783 319.121 76.7304C318.682 77.1105 318.481 77.5358 318.524 78.0056C318.567 78.4771 318.617 79.0511 318.677 79.7233L319.424 88.1095C319.485 88.7834 319.565 89.5069 319.669 90.2765C319.77 91.0495 319.962 91.4903 320.244 91.6005C320.525 91.7115 320.973 91.7738 321.586 91.7867C322.197 91.8003 322.772 91.7824 323.311 91.7345L332.911 90.8795C333.177 90.8556 333.42 90.8847 333.629 90.9684C333.841 91.0504 333.998 91.3092 334.105 91.7405C334.209 92.1727 334.322 92.8407 334.438 93.7478C334.554 94.6541 334.683 95.9148 334.827 97.5309C334.987 99.3503 335.097 100.766 335.154 101.779Z" fill="white"/>
<path d="M216.616 164.021C216.438 162.783 216.244 161.543 216.03 160.305C215.819 159.069 215.599 157.731 215.368 156.292C215.137 154.853 214.863 153.128 214.551 151.12C214.539 150.985 214.494 150.683 214.417 150.214C214.341 149.747 214.231 149.264 214.086 148.768C213.942 148.271 213.798 147.827 213.662 147.432C213.524 147.036 213.356 146.847 213.152 146.865C213.017 146.876 212.905 147.127 212.811 147.609C212.718 148.093 212.665 148.624 212.648 149.201C212.63 149.78 212.63 150.342 212.645 150.882C212.659 151.425 212.67 151.729 212.676 151.796C212.701 153.627 212.743 155.236 212.8 156.621C212.856 158.009 212.888 159.313 212.896 160.534C212.901 161.755 212.907 162.976 212.915 164.198C212.924 165.42 212.96 166.808 213.031 168.363C213.068 168.767 213.189 168.995 213.397 169.043C213.606 169.093 214.147 169.079 215.024 169C215.765 168.935 216.32 168.903 216.695 168.903C217.068 168.904 217.231 168.634 217.183 168.095C216.982 166.621 216.794 165.262 216.616 164.021ZM235.788 192.303C235.228 192.49 234.529 192.654 233.692 192.795C232.854 192.939 231.966 193.052 231.022 193.135C230.078 193.22 229.272 193.291 228.598 193.35C227.115 193.483 225.701 193.593 224.35 193.678C223.001 193.766 222.225 193.445 222.025 192.714C221.696 191.318 221.416 190.088 221.188 189.022C220.954 187.958 220.708 186.925 220.453 185.929C220.193 184.935 219.948 183.904 219.719 182.838C219.488 181.774 219.21 180.541 218.879 179.145C218.764 178.613 218.47 178.368 218.001 178.409C217.597 178.444 216.991 178.499 216.183 178.573C215.238 178.655 214.497 178.722 213.959 178.77C213.487 178.811 213.239 179.105 213.223 179.65C213.211 181.076 213.192 182.336 213.152 183.424C213.113 184.513 213.087 185.568 213.076 186.587C213.068 187.606 213.059 188.675 213.057 189.797C213.054 190.917 213.054 192.226 213.052 193.719C213.031 194.264 212.302 194.634 210.858 194.83C209.415 195.027 207.887 195.197 206.269 195.342C205.866 195.376 205.261 195.43 204.451 195.504C203.642 195.575 202.831 195.613 202.019 195.617C201.205 195.623 200.488 195.586 199.87 195.504C199.251 195.423 198.932 195.282 198.916 195.079C199.398 188.315 199.852 182.149 200.271 176.577C200.692 171.008 201.072 165.559 201.414 160.233C201.751 154.908 202.098 149.48 202.456 143.948C202.811 138.419 203.169 132.345 203.529 125.726C203.566 125.385 203.862 125.086 204.418 124.833C204.97 124.579 205.649 124.367 206.45 124.193C207.248 124.02 208.081 123.88 208.958 123.767C209.829 123.656 210.533 123.575 211.072 123.527C211.681 123.473 212.402 123.425 213.251 123.384C214.096 123.343 214.891 123.34 215.644 123.374C216.391 123.409 217.047 123.538 217.612 123.758C218.176 123.981 218.507 124.29 218.609 124.689C220.263 131.058 221.788 136.914 223.181 142.255C224.573 147.597 225.957 152.837 227.33 157.974C228.706 163.115 230.126 168.386 231.592 173.787C233.058 179.189 234.689 185.138 236.49 191.63C236.58 191.893 236.346 192.118 235.788 192.303Z" fill="white"/>
<path d="M280.107 187.998C280.093 188.238 279.857 188.427 279.394 188.571C278.932 188.714 278.199 188.848 277.19 188.971C276.184 189.095 274.701 189.244 272.748 189.418C270.862 189.586 269.597 189.664 268.951 189.654C268.305 189.645 267.776 189.216 267.362 188.369C266.181 185.827 265.206 183.607 264.425 181.707C263.644 179.808 262.882 177.942 262.142 176.106C261.403 174.271 260.614 172.271 259.777 170.105C258.937 167.939 257.903 165.281 256.671 162.134C256.324 161.281 255.918 160.35 255.456 159.339C254.993 158.329 254.559 157.841 254.157 157.877C253.683 157.919 253.503 158.545 253.61 159.758C253.711 160.904 253.807 161.982 253.897 162.991L256.231 189.158C256.264 189.563 256.242 189.888 256.163 190.131C256.085 190.378 255.794 190.572 255.298 190.718C254.803 190.864 254.032 191.001 252.992 191.128C251.95 191.255 250.453 191.405 248.503 191.579C246.685 191.74 245.301 191.848 244.354 191.896C243.41 191.948 242.731 191.94 242.316 191.875C241.904 191.809 241.671 191.678 241.62 191.479C241.566 191.28 241.527 191.012 241.495 190.674L235.5 123.387C235.459 122.916 235.444 122.561 235.459 122.322C235.47 122.084 235.672 121.895 236.07 121.758C236.465 121.622 237.129 121.494 238.071 121.376C239.009 121.26 240.391 121.119 242.208 120.956C243.624 120.831 244.751 120.749 245.597 120.706C246.442 120.665 247.087 120.692 247.542 120.786C247.99 120.883 248.311 121.041 248.5 121.262C248.689 121.484 248.872 121.823 249.049 122.282C249.407 123.269 249.979 124.745 250.766 126.713C251.553 128.678 252.426 130.859 253.387 133.25C254.345 135.644 255.366 138.132 256.445 140.717C257.522 143.303 258.531 145.674 259.469 147.831C259.653 148.358 259.893 148.931 260.182 149.549C260.476 150.168 260.791 150.463 261.13 150.433C261.601 150.39 261.807 149.862 261.752 148.849C261.693 147.835 261.634 146.96 261.566 146.217L259.346 121.263C259.303 120.792 259.32 120.434 259.402 120.188C259.484 119.944 259.735 119.752 260.166 119.611C260.595 119.471 261.293 119.341 262.269 119.22C263.24 119.101 264.638 118.958 266.457 118.795C268.41 118.623 269.91 118.507 270.958 118.446C272.004 118.388 272.75 118.405 273.202 118.501C273.65 118.598 273.904 118.761 273.96 118.994C274.014 119.228 274.061 119.579 274.103 120.048L280.073 187.034C280.107 187.438 280.121 187.76 280.107 187.998Z" fill="white"/>
<path d="M314.353 181.331C311.622 184.494 307.606 186.311 302.3 186.784C299.747 187.012 297.397 186.831 295.246 186.241C293.096 185.654 291.218 184.7 289.611 183.384C288.005 182.068 286.706 180.418 285.717 178.434C284.73 176.452 284.124 174.215 283.901 171.722L283.532 167.58C283.467 166.841 283.434 166.265 283.43 165.857C283.428 165.451 283.62 165.129 284 164.891C284.383 164.653 285.04 164.476 285.973 164.358C286.908 164.242 288.276 164.102 290.082 163.942C291.886 163.78 293.259 163.694 294.203 163.676C295.144 163.661 295.827 163.736 296.243 163.901C296.664 164.067 296.906 164.352 296.979 164.754C297.047 165.154 297.112 165.692 297.171 166.364C297.298 167.78 297.625 169.125 298.153 170.402C298.68 171.679 299.629 172.257 300.996 172.134C301.748 172.068 302.329 171.83 302.741 171.419C303.152 171.009 303.436 170.508 303.592 169.918C303.744 169.327 303.822 168.674 303.828 167.961C303.834 167.248 303.806 166.521 303.739 165.78C303.571 163.895 303.375 161.705 303.155 159.212C302.926 156.655 302.686 153.959 302.433 151.13C302.176 148.234 301.915 145.305 301.649 142.34C301.38 139.309 301.12 136.379 300.869 133.551C300.609 130.655 300.37 127.961 300.147 125.468C299.919 122.909 299.722 120.686 299.553 118.799C299.494 118.128 299.494 117.584 299.558 117.17C299.626 116.757 299.865 116.429 300.28 116.188C300.695 115.949 301.337 115.756 302.2 115.611C303.062 115.468 304.229 115.328 305.7 115.197C307.575 115.031 309.012 114.919 310.018 114.863C311.025 114.808 311.751 114.861 312.205 115.024C312.656 115.189 312.918 115.47 312.989 115.871C313.059 116.273 313.127 116.845 313.192 117.585L317.747 168.707C318.214 173.961 317.084 178.169 314.353 181.331Z" fill="white"/>
<path d="M341.941 154.534C341.732 152.177 341.527 149.887 341.329 147.665C341.132 145.441 340.926 143.152 340.717 140.794C340.506 138.438 340.275 135.844 340.024 133.014C339.965 132.343 339.899 131.636 339.835 130.893C339.77 130.153 339.641 129.503 339.452 128.942C339.263 128.383 338.984 127.932 338.607 127.591C338.229 127.252 337.662 127.114 336.907 127.182C336.151 127.249 335.601 127.487 335.255 127.889C334.912 128.294 334.698 128.789 334.61 129.374C334.525 129.957 334.53 130.62 334.632 131.357C334.731 132.096 334.812 132.801 334.872 133.474L337.481 162.773C337.549 163.514 337.594 164.24 337.626 164.95C337.654 165.661 337.763 166.296 337.949 166.856C338.138 167.416 338.438 167.865 338.849 168.201C339.26 168.538 339.844 168.673 340.599 168.605C341.355 168.538 341.888 168.305 342.197 167.903C342.507 167.503 342.708 167.01 342.792 166.425C342.88 165.84 342.893 165.21 342.834 164.536C342.767 163.796 342.702 163.056 342.634 162.314C342.383 159.485 342.152 156.893 341.941 154.534ZM354.311 177.771C351.347 180.955 347.211 182.783 341.904 183.254C339.351 183.482 336.966 183.306 334.748 182.722C332.53 182.14 330.568 181.195 328.86 179.886C327.152 178.579 325.77 176.938 324.713 174.96C323.66 172.984 323.02 170.749 322.797 168.257L319.448 130.672C319.226 128.183 319.46 125.87 320.15 123.736C320.841 121.605 321.909 119.746 323.36 118.155C324.809 116.567 326.575 115.29 328.654 114.323C330.734 113.357 333.051 112.76 335.601 112.532C340.909 112.06 345.304 113.129 348.784 115.737C352.265 118.346 354.241 122.278 354.709 127.531L358.057 165.115C358.525 170.368 357.277 174.589 354.311 177.771Z" fill="white"/>
<path d="M136.039 385.741C123.209 385.741 112.769 375.308 112.769 362.472C112.769 355.005 116.321 348.367 121.806 344.107L133.123 364.123C133.737 365.215 134.875 365.822 136.043 365.822C136.599 365.822 137.168 365.682 137.69 365.388C139.301 364.478 139.864 362.436 138.956 360.823L127.639 340.8C130.244 339.782 133.071 339.202 136.039 339.202C148.868 339.202 159.308 349.641 159.308 362.472C159.308 375.308 148.868 385.741 136.039 385.741ZM91.0421 346.75L94.7475 329.796C94.7594 329.734 94.7543 329.669 94.768 329.6C94.815 329.359 94.8355 329.108 94.8534 328.863C94.8696 328.663 94.8901 328.463 94.885 328.261C94.8807 328.045 94.8534 327.832 94.8312 327.616C94.8047 327.392 94.7842 327.172 94.7389 326.957C94.6945 326.761 94.6313 326.569 94.5715 326.375C94.5006 326.159 94.44 325.946 94.3494 325.739C94.2691 325.549 94.1624 325.365 94.0624 325.179C93.9582 324.987 93.8583 324.799 93.7413 324.621C93.6208 324.445 93.4799 324.279 93.3424 324.116C93.2023 323.945 93.0648 323.773 92.905 323.617C92.7616 323.474 92.6095 323.353 92.454 323.227C92.2619 323.067 92.0697 322.913 91.863 322.778C91.8057 322.738 91.763 322.691 91.7058 322.654L71.1743 310.064L84.0423 293.25L84.0124 300.764C83.9987 303.885 86.1486 306.608 89.1903 307.315L113.659 313.027V327.273L91.0421 346.75ZM34.0802 385.741C21.2477 385.741 10.8076 375.308 10.8076 362.472C10.8076 349.641 21.2477 339.202 34.0802 339.202C37.0087 339.202 39.8047 339.77 42.3882 340.763L31.1573 360.839C30.5724 361.882 30.5867 363.158 31.1974 364.185C31.802 365.2 32.8963 365.822 34.0802 365.822H34.1142L57.1182 365.575C55.5978 376.942 45.8604 385.741 34.0802 385.741ZM57.0345 358.83L39.829 359.061L48.2341 344.048C52.8474 347.595 56.083 352.832 57.0345 358.83ZM58.5652 325.577L75.4588 355.275L74.7353 358.588L67.1691 358.691C66.0673 348.99 60.786 340.557 53.178 335.21L58.5652 325.577ZM77.6019 345.484L63.8396 321.295L80.6376 331.588L77.6019 345.484ZM136.039 329.154C131.274 329.154 126.753 330.172 122.654 331.983L120.362 327.93V313.702C122.617 313.054 124.472 311.258 125.044 308.809C125.884 305.203 123.643 301.602 120.039 300.757L97.4372 295.477L97.5278 273.095C97.5329 272.421 97.4039 271.778 97.2186 271.164C104.956 271.07 111.203 264.785 111.203 257.026C111.203 249.21 104.865 242.876 97.0529 242.876C89.2373 242.876 82.8985 249.21 82.8985 257.026C82.8985 259.569 83.6237 261.917 84.7948 263.974C82.2648 264.327 79.8654 265.625 78.1921 267.816L51.4201 302.802C48.0496 307.213 48.8892 313.519 53.2958 316.894C53.875 317.338 54.5011 317.686 55.1391 317.982L47.3389 331.924C43.2714 330.147 38.7904 329.154 34.0802 329.154C15.7063 329.154 0.756836 344.103 0.756836 362.472C0.756836 380.845 15.7063 395.792 34.0802 395.792C51.444 395.792 65.7333 382.435 67.2477 365.463L75.5135 365.369C76.4462 366.68 77.8316 367.678 79.5255 368.047C80.0089 368.151 80.4889 368.195 80.9647 368.195C84.0423 368.195 86.8174 366.063 87.5033 362.93L88.6582 357.638L116.104 334.014L116.826 335.298C108.309 341.336 102.719 351.259 102.719 362.472C102.719 380.845 117.666 395.792 136.039 395.792C154.413 395.792 169.359 380.845 169.359 362.472C169.359 344.103 154.413 329.154 136.039 329.154Z" fill="#E3106B"/>
</g>
<defs>
<clipPath id="clip0_601_2746">
<rect width="401" height="396" fill="white"/>
</clipPath>
</defs>
</svg>
