<svg width="400" height="395" viewBox="0 0 400 395" fill="none" xmlns="http://www.w3.org/2000/svg">
<g clip-path="url(#clip0_601_2779)">
<path d="M236.994 384.267C224.227 384.267 213.837 373.888 213.837 361.12C213.837 353.693 217.369 347.088 222.831 342.852L234.093 362.762C234.703 363.849 235.834 364.454 236.996 364.454C237.551 364.454 238.115 364.314 238.637 364.021C240.238 363.116 240.802 361.085 239.896 359.479L228.634 339.562C231.231 338.549 234.042 337.974 236.994 337.974C249.764 337.974 260.154 348.357 260.154 361.12C260.154 373.888 249.764 384.267 236.994 384.267ZM214.726 326.106L192.212 345.48L195.9 328.615C195.912 328.554 195.911 328.49 195.921 328.421C195.966 328.181 195.99 327.931 196.007 327.687C196.022 327.489 196.041 327.289 196.038 327.088C196.036 326.874 196.01 326.661 195.985 326.447C195.959 326.224 195.94 326.005 195.895 325.793C195.849 325.596 195.785 325.405 195.722 325.213C195.657 324.998 195.594 324.786 195.504 324.581C195.422 324.39 195.32 324.208 195.217 324.024C195.117 323.832 195.018 323.644 194.899 323.468C194.782 323.292 194.642 323.129 194.506 322.967C194.364 322.794 194.224 322.623 194.069 322.469C193.927 322.327 193.773 322.208 193.618 322.081C193.431 321.923 193.237 321.769 193.028 321.634C192.973 321.594 192.927 321.548 192.872 321.511L172.437 308.988L185.252 292.262L185.216 299.737C185.205 302.84 187.342 305.549 190.372 306.253L214.726 311.936V326.106ZM178.836 344.221L165.143 320.159L181.858 330.399L178.836 344.221ZM175.988 357.257L168.458 357.36C167.358 347.709 162.104 339.32 154.532 334.001L159.893 324.419L176.706 353.961L175.988 357.257ZM135.525 384.267C122.756 384.267 112.365 373.888 112.365 361.12C112.365 348.357 122.756 337.974 135.525 337.974C138.442 337.974 141.225 338.539 143.794 339.525L132.613 359.497C132.035 360.533 132.049 361.803 132.657 362.824C133.256 363.834 134.35 364.454 135.525 364.454H135.558L158.453 364.207C156.937 375.514 147.246 384.267 135.525 384.267ZM149.61 342.793C154.201 346.322 157.422 351.531 158.37 357.497L141.247 357.727L149.61 342.793ZM236.994 327.978C232.254 327.978 227.756 328.989 223.675 330.791L221.394 326.759V312.606C223.638 311.961 225.487 310.176 226.051 307.739C226.886 304.153 224.659 300.569 221.071 299.73L198.577 294.477L198.669 272.212C198.675 271.542 198.547 270.903 198.361 270.291C206.059 270.199 212.277 263.947 212.277 256.228C212.277 248.453 205.975 242.151 198.197 242.151C190.417 242.151 184.108 248.453 184.108 256.228C184.108 258.757 184.833 261.092 185.995 263.139C183.478 263.491 181.091 264.782 179.425 266.96L175.909 271.554L173.615 269.643C173.615 269.643 159.167 257.419 142.499 284.084C134.391 297.046 132.324 301.82 132.34 303.308C132.351 304.512 152.001 295.198 161.196 290.774L152.783 301.764C149.427 306.152 150.262 312.424 154.649 315.781C155.226 316.223 155.849 316.569 156.48 316.865L148.721 330.732C144.673 328.966 140.212 327.978 135.525 327.978C117.235 327.978 102.362 342.847 102.362 361.12C102.362 379.398 117.235 394.266 135.525 394.266C152.806 394.266 167.024 380.979 168.535 364.096L176.76 364.002C177.687 365.306 179.066 366.298 180.753 366.665C181.233 366.769 181.712 366.814 182.185 366.814C185.252 366.814 188.01 364.693 188.689 361.577L189.841 356.311L217.156 332.811L217.876 334.088C209.394 340.096 203.829 349.966 203.829 361.12C203.829 379.398 218.707 394.266 236.994 394.266C255.278 394.266 270.16 379.398 270.16 361.12C270.16 342.847 255.278 327.978 236.994 327.978Z" fill="white"/>
<path d="M195.393 234.181C198.011 233.431 200.597 233.002 202.487 233.002C202.883 233.002 203.209 233.021 203.463 233.044C202.327 233.919 199.81 235.269 196.017 236.355C193.402 237.107 190.812 237.537 188.918 237.537C188.521 237.537 188.203 237.518 187.95 237.489C189.083 236.619 191.604 235.269 195.393 234.181ZM188.918 240.87C191.146 240.87 193.992 240.404 196.94 239.559C198.878 239.004 208.495 236.019 207.323 231.937C206.894 230.428 205.267 229.668 202.487 229.668C200.263 229.668 197.416 230.134 194.474 230.977C191.662 231.782 189.085 232.845 187.218 233.969C184.696 235.488 183.642 237.044 184.089 238.598C184.517 240.104 186.145 240.87 188.918 240.87Z" fill="white"/>
<path d="M209.733 72.0679C209.932 71.2072 210.011 70.5079 209.964 69.9718L209.596 65.8509C209.535 65.183 209.473 64.4795 209.408 63.7411C209.34 63.0036 209.214 62.3578 209.026 61.7987C208.836 61.243 208.555 60.7953 208.182 60.4554C207.806 60.1198 207.243 59.9821 206.488 60.0492C205.595 60.13 205.017 60.2158 204.751 60.3058C204.483 60.3976 204.378 60.7791 204.438 61.447L205.424 72.503C205.483 73.1742 205.688 73.5277 206.037 73.5625C206.384 73.599 206.933 73.5846 207.688 73.5166C208.853 73.4138 209.535 72.9312 209.733 72.0679Z" fill="white"/>
<path d="M212.589 100.128C212.844 99.4971 212.903 98.412 212.766 96.8699L212.407 92.8492C212.347 92.1814 212.283 91.4761 212.218 90.7395C212.154 90.0019 212.025 89.3562 211.837 88.7988C211.652 88.2405 211.368 87.7936 210.993 87.4555C210.619 87.1173 210.056 86.9813 209.304 87.0485C208.28 87.1402 207.599 87.2354 207.262 87.3314C206.926 87.4299 206.788 87.8132 206.85 88.4827L207.895 100.241C207.958 100.912 208.072 101.274 208.252 101.324C208.426 101.377 209.197 101.342 210.57 101.219C211.66 101.123 212.336 100.757 212.589 100.128Z" fill="white"/>
<path d="M352.818 177.389C349.868 180.556 345.753 182.375 340.471 182.844C337.93 183.07 335.557 182.895 333.349 182.313C331.142 181.736 329.189 180.795 327.49 179.493C325.79 178.192 324.415 176.561 323.363 174.592C322.314 172.627 321.678 170.404 321.456 167.925L318.123 130.538C317.902 128.062 318.135 125.761 318.822 123.638C319.509 121.519 320.572 119.669 322.016 118.087C323.458 116.507 325.214 115.237 327.284 114.274C329.355 113.314 331.66 112.72 334.198 112.494C339.481 112.023 343.854 113.087 347.318 115.682C350.782 118.277 352.749 122.188 353.214 127.412L356.547 164.8C357.012 170.025 355.77 174.224 352.818 177.389ZM313.051 180.931C310.334 184.077 306.337 185.885 301.057 186.354C298.516 186.581 296.177 186.402 294.036 185.816C291.897 185.23 290.027 184.282 288.428 182.973C286.83 181.663 285.537 180.023 284.553 178.049C283.571 176.078 282.968 173.852 282.746 171.372L282.378 167.252C282.314 166.516 282.281 165.944 282.277 165.538C282.275 165.135 282.465 164.813 282.844 164.576C283.225 164.34 283.88 164.164 284.808 164.046C285.739 163.932 287.1 163.793 288.898 163.633C290.693 163.473 292.059 163.386 292.998 163.369C293.935 163.353 294.614 163.428 295.029 163.592C295.447 163.757 295.689 164.041 295.761 164.44C295.829 164.839 295.894 165.374 295.952 166.042C296.079 167.45 296.404 168.788 296.929 170.059C297.453 171.33 298.398 171.903 299.759 171.782C300.507 171.716 301.085 171.478 301.496 171.07C301.904 170.663 302.188 170.165 302.342 169.577C302.493 168.99 302.572 168.34 302.578 167.63C302.584 166.922 302.556 166.199 302.488 165.46C302.322 163.586 302.126 161.408 301.907 158.928C301.68 156.384 301.441 153.703 301.189 150.888C300.934 148.008 300.674 145.093 300.409 142.144C300.141 139.129 299.882 136.216 299.632 133.402C299.374 130.52 299.136 127.841 298.914 125.361C298.687 122.816 298.491 120.604 298.322 118.727C298.264 118.058 298.264 117.518 298.328 117.107C298.395 116.695 298.633 116.369 299.047 116.13C299.459 115.892 300.098 115.7 300.957 115.556C301.815 115.413 302.976 115.274 304.44 115.144C306.305 114.977 307.736 114.868 308.737 114.812C309.74 114.757 310.462 114.809 310.914 114.972C311.363 115.135 311.624 115.415 311.695 115.814C311.764 116.215 311.832 116.783 311.896 117.52L316.429 168.372C316.894 173.6 315.771 177.785 313.051 180.931ZM279.152 94.0974C278.384 91.9375 277.633 89.7607 276.897 87.5625C276.16 85.3661 275.332 82.9259 274.421 80.2358C274.241 79.7804 273.992 79.6164 273.666 79.7464C273.338 79.8764 272.934 80.6394 272.452 82.032C272.025 83.3541 271.885 84.7841 272.023 86.3254L273.994 108.436C274.031 108.838 273.809 109.178 273.329 109.456C272.849 109.737 272.235 109.977 271.481 110.178C270.726 110.381 269.918 110.539 269.055 110.648C268.193 110.76 267.396 110.846 266.665 110.911C265.997 110.971 265.231 111.023 264.362 111.065C263.493 111.11 262.671 111.115 261.899 111.082C261.122 111.05 260.457 110.941 259.904 110.754C259.352 110.568 259.06 110.306 259.03 109.971L253.038 42.7353C253.007 42.3997 253.268 42.1236 253.818 41.9043C254.367 41.6885 255.04 41.4939 255.832 41.3206C256.62 41.1507 257.428 41.0113 258.258 40.9026C259.088 40.7955 259.77 40.7173 260.303 40.6697C260.901 40.6162 261.633 40.5508 262.5 40.4734C263.363 40.3961 264.2 40.3741 265.01 40.4021C265.817 40.431 266.513 40.5211 267.097 40.6723C267.68 40.8218 267.991 41.0997 268.028 41.5007L270.196 65.8227C270.227 66.1584 270.266 66.6265 270.32 67.2289C270.367 67.7659 270.552 67.952 270.878 67.7872C271.004 67.7107 271.1 67.4482 271.161 67.0021C271.223 66.5585 271.305 66.1635 271.411 65.8159C271.865 63.3442 272.292 61.113 272.687 59.1171C273.086 57.1246 273.449 55.1678 273.787 53.2458C274.123 51.3255 274.471 49.3526 274.83 47.3278C275.189 45.3039 275.63 43.0522 276.154 40.5754C276.196 40.3027 276.295 40.0903 276.452 39.9399C276.606 39.7912 276.934 39.6629 277.43 39.549C277.927 39.4386 278.645 39.34 279.582 39.2567C280.589 39.1684 281.96 39.0452 283.705 38.8897C285.515 38.7291 286.959 38.6169 288.034 38.554C289.108 38.4937 289.919 38.4869 290.465 38.5413C291.01 38.5931 291.371 38.6806 291.551 38.7979C291.73 38.9194 291.793 39.0469 291.739 39.1871C291.038 41.9511 290.423 44.3361 289.893 46.3413C289.363 48.3474 288.858 50.266 288.382 52.0979C287.899 53.9306 287.377 55.8178 286.805 57.7593C286.235 59.7017 285.564 62.023 284.791 64.725C284.639 65.2798 284.47 65.8533 284.286 66.4413C284.101 67.0327 284.036 67.596 284.084 68.1313C284.126 68.6003 284.21 68.998 284.342 69.3234C284.47 69.6505 284.797 70.4331 285.31 71.6694C286.681 74.9245 287.907 77.9051 288.995 80.6096C290.082 83.3167 291.164 86.0051 292.247 88.6765C293.332 91.3504 294.44 94.1391 295.579 97.0415C296.716 99.9458 298.02 103.191 299.486 106.773C299.565 106.902 299.58 107.052 299.526 107.225C299.472 107.397 299.234 107.555 298.808 107.694C298.381 107.833 297.652 107.985 296.617 108.143C295.584 108.303 294.129 108.465 292.253 108.634C290.511 108.788 289.102 108.913 288.031 109.009C287.027 109.098 286.233 109.135 285.661 109.118C285.083 109.104 284.687 109.002 284.465 108.819C284.247 108.636 284.087 108.347 283.983 107.951C283.075 105.332 282.232 102.907 281.461 100.68C280.687 98.4537 279.916 96.2581 279.152 94.0974ZM278.971 187.562C278.957 187.8 278.721 187.988 278.261 188.132C277.801 188.274 277.071 188.407 276.067 188.531C275.066 188.654 273.59 188.802 271.646 188.974C269.769 189.141 268.51 189.22 267.868 189.209C267.225 189.2 266.698 188.774 266.286 187.931C265.111 185.403 264.14 183.194 263.363 181.304C262.586 179.414 261.828 177.559 261.091 175.732C260.356 173.908 259.57 171.918 258.738 169.763C257.902 167.608 256.872 164.965 255.646 161.834C255.301 160.986 254.898 160.06 254.438 159.053C253.978 158.049 253.545 157.563 253.145 157.599C252.673 157.64 252.494 158.263 252.6 159.471C252.701 160.61 252.796 161.682 252.886 162.687L255.209 188.716C255.242 189.118 255.22 189.442 255.141 189.684C255.063 189.929 254.774 190.123 254.28 190.268C253.787 190.413 253.021 190.549 251.985 190.675C250.948 190.802 249.459 190.95 247.518 191.124C245.708 191.285 244.331 191.392 243.388 191.44C242.449 191.492 241.773 191.483 241.36 191.419C240.95 191.353 240.718 191.222 240.667 191.023C240.614 190.826 240.576 190.56 240.544 190.224L234.578 123.291C234.536 122.822 234.521 122.469 234.536 122.231C234.547 121.994 234.748 121.806 235.145 121.669C235.537 121.533 236.199 121.408 237.136 121.29C238.07 121.173 239.444 121.033 241.253 120.872C242.663 120.748 243.784 120.666 244.625 120.623C245.467 120.583 246.109 120.609 246.561 120.703C247.007 120.799 247.327 120.957 247.515 121.177C247.703 121.398 247.884 121.736 248.061 122.192C248.417 123.173 248.987 124.641 249.77 126.598C250.553 128.554 251.422 130.723 252.378 133.101C253.332 135.483 254.348 137.958 255.422 140.53C256.493 143.102 257.498 145.46 258.431 147.606C258.614 148.131 258.853 148.7 259.141 149.315C259.433 149.931 259.747 150.224 260.085 150.194C260.553 150.151 260.757 149.626 260.703 148.619C260.645 147.611 260.586 146.739 260.518 146.001L258.309 121.177C258.266 120.709 258.283 120.353 258.364 120.108C258.446 119.866 258.696 119.674 259.125 119.534C259.552 119.395 260.247 119.266 261.218 119.145C262.184 119.027 263.576 118.884 265.386 118.724C267.33 118.55 268.822 118.436 269.865 118.374C270.906 118.317 271.649 118.334 272.099 118.43C272.544 118.526 272.796 118.69 272.853 118.92C272.906 119.153 272.953 119.503 272.995 119.969L278.937 186.603C278.971 187.004 278.984 187.326 278.971 187.562ZM234.864 191.844C234.306 192.031 233.61 192.193 232.777 192.335C231.943 192.476 231.06 192.589 230.121 192.673C229.18 192.756 228.379 192.827 227.708 192.888C226.232 193.018 224.825 193.128 223.481 193.213C222.137 193.3 221.366 192.981 221.167 192.255C220.839 190.865 220.561 189.641 220.334 188.58C220.101 187.523 219.856 186.496 219.602 185.505C219.344 184.516 219.1 183.49 218.872 182.431C218.642 181.371 218.365 180.146 218.036 178.756C217.921 178.226 217.629 177.983 217.161 178.025C216.76 178.06 216.157 178.113 215.352 178.187C214.412 178.268 213.674 178.335 213.139 178.382C212.67 178.424 212.423 178.716 212.407 179.258C212.395 180.678 212.376 181.929 212.336 183.013C212.297 184.096 212.272 185.145 212.261 186.159C212.252 187.172 212.244 188.237 212.241 189.353C212.239 190.466 212.239 191.767 212.235 193.253C212.216 193.795 211.49 194.164 210.053 194.358C208.617 194.555 207.097 194.724 205.487 194.867C205.086 194.901 204.483 194.955 203.677 195.028C202.873 195.099 202.064 195.137 201.257 195.141C200.447 195.147 199.733 195.11 199.118 195.028C198.502 194.949 198.185 194.808 198.168 194.607C198.648 187.878 199.1 181.744 199.517 176.202C199.936 170.662 200.314 165.242 200.654 159.942C200.99 154.646 201.335 149.246 201.691 143.744C202.045 138.243 202.401 132.202 202.76 125.618C202.796 125.277 203.091 124.981 203.644 124.729C204.194 124.478 204.869 124.265 205.666 124.093C206.46 123.92 207.29 123.781 208.163 123.669C209.029 123.558 209.73 123.478 210.267 123.43C210.872 123.376 211.59 123.329 212.434 123.288C213.276 123.247 214.067 123.244 214.816 123.278C215.56 123.313 216.213 123.441 216.775 123.66C217.336 123.882 217.665 124.188 217.767 124.586C219.414 130.922 220.931 136.747 222.317 142.06C223.703 147.373 225.08 152.586 226.446 157.697C227.815 162.809 229.229 168.053 230.688 173.425C232.146 178.801 233.77 184.717 235.562 191.176C235.652 191.438 235.419 191.66 234.864 191.844ZM195.622 117.188C195.216 117.191 194.906 117.118 194.692 116.966C194.475 116.818 194.334 116.543 194.263 116.142C194.193 115.745 194.125 115.144 194.053 114.339L188.32 50.0179C188.254 49.2821 188.219 48.7103 188.218 48.3049C188.213 47.8997 188.304 47.5895 188.486 47.3703C188.671 47.1502 188.96 47.0075 189.358 46.9378C189.755 46.869 190.322 46.801 191.058 46.7356L205.194 45.4764C210.474 45.0057 214.847 46.0703 218.312 48.6635C221.778 51.2593 223.742 55.1703 224.208 60.3958L224.925 68.4363C225.127 70.7143 224.898 72.5088 224.242 73.8156C223.579 75.125 222.805 76.1217 221.921 76.8082C221.034 77.4948 220.216 77.9561 219.462 78.1923C218.704 78.4285 218.333 78.6146 218.345 78.7463C218.357 78.8823 218.771 78.98 219.587 79.0411C220.404 79.1049 221.338 79.3589 222.393 79.8042C223.444 80.2519 224.426 81.0252 225.335 82.1255C226.243 83.2267 226.794 84.8495 226.984 86.9933L227.944 97.7468C228.409 102.972 227.167 107.171 224.215 110.336C221.266 113.504 217.147 115.321 211.868 115.791L197.33 117.087C196.594 117.152 196.025 117.186 195.622 117.188ZM230.002 44.1279C230.082 43.8849 230.334 43.6937 230.757 43.5535C231.181 43.4159 231.873 43.2867 232.836 43.1669C233.798 43.0471 235.179 42.9078 236.976 42.7472C238.906 42.5747 240.406 42.46 241.475 42.3971C242.544 42.3368 243.336 42.3504 243.845 42.4396C244.359 42.5297 244.656 42.6886 244.743 42.9163C244.83 43.1448 244.897 43.4949 244.939 43.9622L250.878 110.596C250.915 110.997 250.892 111.321 250.811 111.564C250.732 111.809 250.449 112.001 249.958 112.146C249.466 112.292 248.706 112.427 247.68 112.552C246.65 112.677 245.169 112.825 243.24 112.998C241.442 113.158 240.059 113.265 239.089 113.316C238.121 113.37 237.4 113.366 236.926 113.307C236.449 113.248 236.168 113.121 236.084 112.925C236 112.732 235.944 112.467 235.916 112.132L229.95 45.196C229.907 44.7295 229.921 44.3726 230.002 44.1279ZM298.701 38.8701C298.749 38.6637 298.922 38.345 299.22 37.9126C299.517 37.4809 299.829 37.2183 300.157 37.1206C300.485 37.0246 300.914 36.9516 301.447 36.904L326.401 34.6812C326.67 34.6574 326.892 34.6889 327.069 34.7747C327.246 34.8596 327.402 35.0984 327.536 35.491C327.674 35.8844 327.78 36.5182 327.859 37.3891C327.935 38.2592 328.045 39.4649 328.183 41.0062C328.342 42.816 328.472 44.2571 328.566 45.3277C328.656 46.3329 328.673 47.0907 328.617 47.6014C328.561 48.1138 328.454 48.4273 328.297 48.5428C328.137 48.6593 327.89 48.7315 327.557 48.7612L317.501 49.6559C317.099 49.6916 316.648 49.7664 316.152 49.8777C315.655 49.9898 315.348 50.1513 315.234 50.3645C314.995 50.7248 314.864 50.9721 314.844 51.108C314.821 51.2465 314.842 51.6501 314.9 52.3188L315.554 59.6558C315.596 60.1256 315.638 60.5947 315.68 61.0628C315.722 61.5327 315.958 61.9159 316.39 62.215C316.749 62.4538 317.097 62.5565 317.433 62.5277C317.834 62.4911 318.236 62.4563 318.64 62.4198L323.565 61.9814C323.832 61.9567 324.056 61.989 324.233 62.0731C324.407 62.1589 324.55 62.4342 324.659 62.8973C324.769 63.3587 324.87 64.0936 324.956 65.0988C325.041 66.0368 325.158 67.3445 325.307 69.0184C325.45 70.6259 325.565 71.8988 325.649 72.8377C325.725 73.7086 325.77 74.3798 325.779 74.8514C325.784 75.3238 325.708 75.6178 325.551 75.7333C325.394 75.848 325.144 75.9211 324.81 75.9509L320.286 76.3536C319.747 76.4021 319.248 76.4632 318.782 76.538C318.314 76.6153 317.989 76.7283 317.797 76.8796C317.36 77.2568 317.161 77.68 317.203 78.1473C317.246 78.6163 317.296 79.1873 317.354 79.856L318.098 88.1981C318.159 88.8685 318.238 89.589 318.342 90.3537C318.443 91.1219 318.634 91.5611 318.914 91.6707C319.195 91.7812 319.64 91.8441 320.25 91.856C320.858 91.8696 321.43 91.8526 321.967 91.8041L331.52 90.9536C331.787 90.9298 332.027 90.9595 332.236 91.0411C332.446 91.1236 332.603 91.381 332.709 91.8101C332.813 92.2409 332.925 92.9045 333.041 93.8068C333.155 94.7083 333.285 95.9625 333.427 97.5701C333.587 99.3799 333.696 100.788 333.753 101.796C333.809 102.805 333.82 103.531 333.793 103.971C333.767 104.413 333.671 104.689 333.515 104.807C333.354 104.921 333.142 104.991 332.875 105.015L309.315 107.114C308.513 107.184 307.733 107.27 306.973 107.371C306.207 107.473 305.646 107.374 305.285 107.067C304.856 106.768 304.612 106.283 304.552 105.613C304.49 104.944 304.435 104.306 304.382 103.703L298.718 40.1854C298.66 39.5167 298.654 39.0775 298.701 38.8701ZM271.441 0.737488C202.182 0.168213 140.524 57.4789 140.013 119.476C139.621 167.332 183.885 204.039 235.946 218.567L225.947 247.59L254.516 222.74C264.033 224.374 273.658 225.288 283.189 225.367C352.449 225.934 398.53 164.469 399.038 102.474C399.551 40.4777 340.698 1.30678 271.441 0.737488Z" fill="white"/>
<path d="M215.2 160.015C214.99 158.785 214.771 157.455 214.541 156.023C214.311 154.591 214.039 152.875 213.728 150.877C213.717 150.744 213.672 150.444 213.595 149.978C213.52 149.512 213.41 149.031 213.265 148.538C213.122 148.044 212.979 147.602 212.844 147.209C212.706 146.816 212.539 146.628 212.336 146.646C212.202 146.657 212.09 146.906 211.996 147.386C211.904 147.866 211.851 148.395 211.834 148.969C211.817 149.546 211.817 150.104 211.831 150.642C211.846 151.181 211.856 151.484 211.862 151.55C211.887 153.372 211.929 154.972 211.986 156.351C212.042 157.73 212.073 159.027 212.081 160.242C212.086 161.458 212.092 162.672 212.1 163.888C212.109 165.103 212.145 166.485 212.216 168.03C212.252 168.432 212.373 168.659 212.58 168.707C212.788 168.757 213.327 168.742 214.199 168.664C214.937 168.6 215.489 168.567 215.862 168.567C216.233 168.57 216.395 168.3 216.348 167.763C216.148 166.298 215.96 164.946 215.783 163.711C215.606 162.479 215.414 161.246 215.2 160.015Z" fill="white"/>
<path d="M341.198 162.014C340.948 159.199 340.717 156.621 340.507 154.274C340.3 151.931 340.095 149.652 339.899 147.44C339.703 145.229 339.498 142.952 339.289 140.605C339.079 138.263 338.85 135.683 338.6 132.867C338.541 132.2 338.476 131.496 338.412 130.759C338.347 130.021 338.219 129.374 338.03 128.816C337.843 128.26 337.565 127.812 337.19 127.473C336.813 127.136 336.25 126.999 335.498 127.066C334.746 127.133 334.198 127.368 333.854 127.769C333.512 128.172 333.299 128.665 333.211 129.245C333.127 129.826 333.132 130.486 333.233 131.219C333.332 131.954 333.413 132.656 333.472 133.325L336.069 162.47C336.136 163.207 336.182 163.929 336.213 164.636C336.241 165.343 336.35 165.974 336.535 166.532C336.723 167.089 337.021 167.536 337.43 167.869C337.839 168.205 338.421 168.339 339.172 168.272C339.924 168.205 340.455 167.973 340.763 167.573C341.071 167.175 341.271 166.685 341.354 166.102C341.442 165.521 341.455 164.894 341.397 164.224C341.33 163.487 341.265 162.751 341.198 162.014Z" fill="white"/>
<path d="M135.593 384.267C122.824 384.267 112.434 373.888 112.434 361.12C112.434 353.693 115.969 347.088 121.429 342.852L132.691 362.762C133.302 363.849 134.435 364.454 135.597 364.454C136.15 364.454 136.716 364.314 137.236 364.021C138.839 363.116 139.4 361.085 138.495 359.479L127.233 339.562C129.826 338.549 132.639 337.974 135.593 337.974C148.36 337.974 158.751 348.357 158.751 361.12C158.751 373.888 148.36 384.267 135.593 384.267ZM90.8117 345.48L94.4993 328.615C94.5112 328.554 94.5061 328.49 94.5197 328.421C94.5665 328.181 94.5869 327.931 94.6047 327.687C94.6209 327.489 94.6413 327.289 94.6362 327.088C94.6319 326.874 94.6047 326.661 94.5826 326.447C94.5563 326.224 94.5359 326.005 94.4908 325.793C94.4466 325.596 94.3837 325.405 94.3242 325.213C94.2537 324.998 94.1933 324.786 94.1032 324.581C94.0233 324.39 93.917 324.208 93.8176 324.024C93.7139 323.832 93.6144 323.644 93.4979 323.468C93.3781 323.292 93.2378 323.129 93.101 322.967C92.9616 322.794 92.8247 322.623 92.6657 322.469C92.5229 322.327 92.3716 322.208 92.2169 322.081C92.0256 321.923 91.8344 321.769 91.6287 321.634C91.5717 321.594 91.5292 321.548 91.4722 321.511L71.0392 308.988L83.8455 292.262L83.8157 299.737C83.8021 302.84 85.9417 305.549 88.9688 306.253L113.321 311.936V326.106L90.8117 345.48ZM34.123 384.267C21.352 384.267 10.962 373.888 10.962 361.12C10.962 348.357 21.352 337.974 34.123 337.974C37.0374 337.974 39.8201 338.539 42.3912 339.525L31.2142 359.497C30.632 360.533 30.6463 361.803 31.254 362.824C31.8557 363.834 32.9448 364.454 34.123 364.454H34.1568L57.0505 364.207C55.5374 375.514 45.8467 384.267 34.123 384.267ZM56.9672 357.497L39.8443 357.727L48.209 342.793C52.8002 346.322 56.0203 351.531 56.9672 357.497ZM58.4905 324.419L75.3031 353.961L74.5831 357.257L67.0533 357.36C65.9567 347.709 60.7007 339.32 53.1292 334.001L58.4905 324.419ZM77.436 344.221L63.7397 320.159L80.4571 330.399L77.436 344.221ZM135.593 327.978C130.851 327.978 126.351 328.989 122.272 330.791L119.991 326.759V312.606C122.235 311.961 124.082 310.176 124.65 307.739C125.487 304.153 123.256 300.569 119.67 299.73L97.1762 294.477L97.2663 272.212C97.2714 271.542 97.143 270.903 96.9586 270.291C104.659 270.199 110.876 263.947 110.876 256.228C110.876 248.453 104.568 242.151 96.7937 242.151C89.0156 242.151 82.7072 248.453 82.7072 256.228C82.7072 258.757 83.4289 261.092 84.5944 263.139C82.0765 263.491 79.6886 264.782 78.0234 266.96L51.3798 301.764C48.0254 306.152 48.861 312.424 53.2465 315.781C53.8228 316.223 54.4459 316.569 55.0809 316.865L47.3181 330.732C43.2701 328.966 38.8106 327.978 34.123 327.978C15.8372 327.978 0.959473 342.847 0.959473 361.12C0.959473 379.398 15.8372 394.266 34.123 394.266C51.4036 394.266 65.6243 380.979 67.1315 364.096L75.3576 364.002C76.2858 365.306 77.6646 366.298 79.3503 366.665C79.8314 366.769 80.3092 366.814 80.7827 366.814C83.8455 366.814 86.6073 364.693 87.2899 361.577L88.4392 356.311L115.754 332.811L116.472 334.088C107.996 340.096 102.432 349.966 102.432 361.12C102.432 379.398 117.308 394.266 135.593 394.266C153.879 394.266 168.753 379.398 168.753 361.12C168.753 342.847 153.879 327.978 135.593 327.978Z" fill="white"/>
</g>
<defs>
<clipPath id="clip0_601_2779">
<rect width="400" height="395" fill="white"/>
</clipPath>
</defs>
</svg>
