<svg width="401" height="396" viewBox="0 0 401 396" fill="none" xmlns="http://www.w3.org/2000/svg">
<g clip-path="url(#clip0_601_2763)">
<path d="M272.541 0.186737C202.949 -0.385544 140.994 57.2267 140.48 119.552C140.086 167.659 184.563 204.56 236.875 219.166L226.828 248.341L255.534 223.36C265.097 225.003 274.768 225.923 284.346 226.003C353.939 226.573 400.242 164.783 400.753 102.46C401.268 40.1358 342.132 0.759033 272.541 0.186737Z" fill="#E3106B"/>
<path d="M237.926 385.74C225.099 385.74 214.66 375.307 214.66 362.471C214.66 355.004 218.208 348.366 223.696 344.106L235.012 364.122C235.627 365.214 236.763 365.821 237.93 365.821C238.488 365.821 239.054 365.681 239.578 365.387C241.188 364.477 241.754 362.435 240.844 360.822L229.527 340.799C232.138 339.782 234.962 339.202 237.926 339.202C250.759 339.202 261.2 349.64 261.2 362.471C261.2 375.307 250.759 385.74 237.926 385.74ZM192.929 346.749L196.636 329.795C196.649 329.733 196.646 329.668 196.658 329.599C196.702 329.358 196.727 329.107 196.743 328.862C196.759 328.662 196.777 328.462 196.774 328.26C196.772 328.045 196.746 327.831 196.722 327.615C196.695 327.391 196.676 327.171 196.63 326.956C196.586 326.76 196.52 326.568 196.457 326.375C196.391 326.159 196.328 325.945 196.238 325.738C196.156 325.548 196.052 325.364 195.949 325.178C195.848 324.986 195.75 324.798 195.629 324.62C195.513 324.444 195.372 324.279 195.235 324.115C195.093 323.944 194.952 323.772 194.796 323.616C194.654 323.473 194.498 323.353 194.344 323.226C194.154 323.066 193.959 322.912 193.75 322.777C193.695 322.738 193.648 322.69 193.594 322.653L173.061 310.064L185.935 293.249L185.9 300.764C185.889 303.884 188.037 306.607 191.081 307.314L215.553 313.027V327.272L192.929 346.749ZM135.969 385.74C123.139 385.74 112.698 375.307 112.698 362.471C112.698 349.64 123.139 339.202 135.969 339.202C138.9 339.202 141.697 339.77 144.278 340.762L133.044 360.838C132.463 361.881 132.477 363.157 133.089 364.184C133.69 365.2 134.788 365.821 135.969 365.821H136.004L159.008 365.574C157.485 376.941 147.747 385.74 135.969 385.74ZM158.925 358.829L141.719 359.06L150.123 344.047C154.735 347.594 157.972 352.831 158.925 358.829ZM160.456 325.576L177.348 355.274L176.627 358.588L169.061 358.69C167.956 348.989 162.677 340.556 155.068 335.209L160.456 325.576ZM179.49 345.483L165.73 321.294L182.526 331.588L179.49 345.483ZM237.926 329.153C233.166 329.153 228.645 330.171 224.544 331.982L222.252 327.929V313.701C224.507 313.053 226.365 311.257 226.932 308.808C227.771 305.203 225.533 301.601 221.928 300.757L199.327 295.476L199.418 273.094C199.424 272.42 199.295 271.778 199.11 271.163C206.843 271.069 213.092 264.785 213.092 257.025C213.092 249.21 206.759 242.875 198.942 242.875C191.126 242.875 184.786 249.21 184.786 257.025C184.786 259.568 185.516 261.916 186.683 263.973C184.154 264.327 181.755 265.624 180.081 267.815L153.31 302.802C149.939 307.212 150.778 313.518 155.186 316.893C155.765 317.337 156.392 317.685 157.025 317.982L149.229 331.923C145.162 330.147 140.678 329.153 135.969 329.153C117.592 329.153 102.647 344.102 102.647 362.471C102.647 380.844 117.592 395.792 135.969 395.792C153.333 395.792 167.62 382.434 169.14 365.462L177.403 365.368C178.335 366.679 179.72 367.677 181.416 368.046C181.898 368.15 182.38 368.194 182.854 368.194C185.935 368.194 188.708 366.062 189.391 362.929L190.548 357.637L217.994 334.013L218.718 335.297C210.194 341.335 204.602 351.258 204.602 362.471C204.602 380.844 219.552 395.792 237.926 395.792C256.301 395.792 271.254 380.844 271.254 362.471C271.254 344.102 256.301 329.153 237.926 329.153Z" fill="#00ADEF"/>
<path d="M174.244 270.511C174.244 270.511 159.725 258.223 142.976 285.027C134.831 298.059 132.754 302.858 132.771 304.354C132.784 305.933 166.428 289.495 166.428 289.495L180.942 276.094L174.244 270.511Z" fill="#00ADEF"/>
<path d="M188.649 238.186C188.902 238.216 189.221 238.235 189.62 238.235C191.525 238.235 194.127 237.802 196.753 237.047C200.566 235.955 203.096 234.597 204.237 233.718C203.98 233.695 203.653 233.676 203.255 233.676C201.356 233.676 198.757 234.107 196.127 234.861C192.319 235.955 189.788 237.314 188.649 238.186ZM189.62 241.587C186.835 241.587 185.198 240.815 184.769 239.302C184.319 237.741 185.379 236.176 187.913 234.649C189.789 233.518 192.378 232.449 195.204 231.641C198.159 230.793 201.021 230.325 203.255 230.325C206.049 230.325 207.684 231.09 208.115 232.606C209.293 236.711 199.629 239.71 197.681 240.269C194.718 241.117 191.858 241.587 189.62 241.587Z" fill="#00ADEF"/>
<path d="M213.221 92.785C213.162 92.1136 213.098 91.4046 213.033 90.6641C212.968 89.9227 212.839 89.2735 212.649 88.7132C212.463 88.152 212.178 87.7027 211.801 87.3628C211.427 87.0237 210.86 86.8861 210.104 86.9536C209.076 87.0459 208.391 87.1415 208.052 87.238C207.715 87.3371 207.576 87.7224 207.638 88.3954L208.689 100.215C208.751 100.89 208.867 101.254 209.047 101.304C209.222 101.357 209.998 101.321 211.375 101.199C212.472 101.102 213.151 100.735 213.405 100.102C213.662 99.4679 213.72 98.3772 213.583 96.8269L213.221 92.785ZM210.397 65.644C210.335 64.9727 210.274 64.2645 210.209 63.5223C210.141 62.7817 210.014 62.1317 209.825 61.5705C209.634 61.0127 209.352 60.5609 208.977 60.221C208.599 59.8827 208.033 59.7443 207.275 59.8118C206.378 59.8921 205.798 59.9792 205.53 60.0698C205.26 60.162 205.155 60.5455 205.214 61.2169L206.206 72.3313C206.266 73.006 206.472 73.3622 206.821 73.3973C207.17 73.434 207.723 73.4177 208.481 73.3502C209.65 73.2469 210.335 72.7617 210.536 71.8948C210.736 71.0286 210.815 70.3257 210.766 69.7858L210.397 65.644ZM225.088 110.364C222.122 113.549 217.985 115.376 212.681 115.849L198.074 117.15C197.333 117.216 196.762 117.25 196.355 117.252C195.948 117.255 195.637 117.181 195.421 117.03C195.204 116.88 195.061 116.604 194.991 116.202C194.92 115.802 194.852 115.197 194.78 114.388L189.019 49.7285C188.953 48.987 188.917 48.4131 188.916 48.0056C188.912 47.5982 189.003 47.2856 189.186 47.066C189.371 46.8448 189.661 46.7022 190.062 46.6321C190.462 46.5621 191.031 46.4937 191.77 46.428L205.975 45.1621C211.28 44.6889 215.674 45.7592 219.154 48.3669C222.638 50.9764 224.612 54.9072 225.08 60.1603L225.801 68.2432C226.004 70.5332 225.772 72.3372 225.113 73.6509C224.448 74.9663 223.67 75.9691 222.782 76.6584C221.891 77.3494 221.069 77.8133 220.311 78.0507C219.549 78.2882 219.177 78.4744 219.188 78.6076C219.2 78.7443 219.616 78.8434 220.437 78.904C221.257 78.9681 222.196 79.2234 223.256 79.671C224.313 80.1212 225.299 80.8993 226.212 82.0046C227.125 83.1116 227.678 84.743 227.869 86.8981L228.834 97.7084C229.302 102.961 228.053 107.182 225.088 110.364Z" fill="white"/>
<path d="M251.811 111.599C251.733 111.844 251.447 112.038 250.954 112.185C250.462 112.33 249.697 112.466 248.665 112.592C247.631 112.718 246.143 112.867 244.204 113.04C242.397 113.2 241.008 113.309 240.032 113.361C239.06 113.414 238.335 113.41 237.859 113.35C237.38 113.292 237.098 113.163 237.014 112.967C236.929 112.772 236.874 112.506 236.845 112.169L230.85 44.881C230.807 44.4103 230.822 44.0524 230.903 43.8056C230.982 43.5621 231.236 43.3699 231.662 43.229C232.087 43.0906 232.783 42.9617 233.75 42.8404C234.717 42.72 236.103 42.5799 237.91 42.4176C239.85 42.245 241.358 42.1289 242.431 42.0665C243.504 42.0059 244.3 42.0195 244.812 42.1092C245.328 42.1998 245.628 42.3595 245.714 42.5884C245.802 42.819 245.87 43.1701 245.912 43.6399L251.879 110.626C251.915 111.029 251.893 111.354 251.811 111.599Z" fill="white"/>
<path d="M300.76 107.236C300.707 107.411 300.468 107.569 300.039 107.708C299.611 107.848 298.878 107.999 297.838 108.159C296.801 108.32 295.338 108.483 293.453 108.652C291.702 108.808 290.287 108.934 289.21 109.029C288.201 109.119 287.404 109.156 286.829 109.139C286.248 109.125 285.85 109.023 285.628 108.839C285.408 108.655 285.247 108.365 285.143 107.966C284.231 105.333 283.385 102.895 282.609 100.657C281.831 98.418 281.057 96.2117 280.29 94.0404C279.517 91.8682 278.762 89.6799 278.023 87.4702C277.282 85.2622 276.45 82.809 275.534 80.1048C275.354 79.6461 275.103 79.4821 274.777 79.6119C274.447 79.7434 274.04 80.5105 273.556 81.9105C273.128 83.2387 272.987 84.6771 273.125 86.2265L275.106 108.453C275.143 108.857 274.92 109.2 274.438 109.479C273.957 109.762 273.339 110.003 272.581 110.205C271.823 110.41 271.011 110.568 270.143 110.678C269.278 110.789 268.477 110.877 267.741 110.943C267.07 111.001 266.302 111.054 265.427 111.097C264.554 111.142 263.728 111.147 262.953 111.115C262.172 111.082 261.504 110.973 260.949 110.784C260.394 110.596 260.101 110.334 260.07 109.997L254.049 42.4064C254.018 42.069 254.279 41.7914 254.833 41.5719C255.385 41.3541 256.061 41.1585 256.856 40.9842C257.648 40.8125 258.46 40.6733 259.295 40.564C260.129 40.4563 260.814 40.3769 261.349 40.3299C261.949 40.2761 262.684 40.2103 263.556 40.1326C264.423 40.0549 265.264 40.0318 266.079 40.0609C266.89 40.0899 267.589 40.1805 268.176 40.3325C268.762 40.4828 269.075 40.7621 269.112 41.1653L271.29 65.6156C271.322 65.953 271.361 66.4237 271.414 67.0293C271.463 67.5691 271.648 67.7562 271.975 67.5905C272.102 67.5136 272.198 67.2496 272.26 66.8012C272.322 66.3553 272.403 65.959 272.511 65.6088C272.967 63.1241 273.396 60.881 273.793 58.8746C274.193 56.8716 274.56 54.9044 274.898 52.9715C275.236 51.0419 275.586 49.0586 275.947 47.024C276.307 44.9885 276.75 42.725 277.276 40.2351C277.319 39.9609 277.417 39.7474 277.576 39.5962C277.731 39.4467 278.06 39.3169 278.559 39.2033C279.058 39.0922 279.78 38.9932 280.721 38.9095C281.733 38.8198 283.111 38.6968 284.864 38.5413C286.682 38.379 288.133 38.2663 289.214 38.2039C290.293 38.1424 291.107 38.1356 291.657 38.1903C292.204 38.2424 292.568 38.3303 292.748 38.4473C292.928 38.5695 292.99 38.6993 292.936 38.8394C292.231 41.618 291.615 44.0156 291.082 46.0314C290.549 48.049 290.042 49.9777 289.563 51.8175C289.078 53.6608 288.553 55.5579 287.979 57.5088C287.407 59.4623 286.733 61.7967 285.954 64.5121C285.803 65.0698 285.633 65.6464 285.448 66.2375C285.262 66.832 285.197 67.3983 285.244 67.9355C285.287 68.4079 285.372 68.8076 285.504 69.1348C285.633 69.4636 285.96 70.2495 286.477 71.4931C287.855 74.7654 289.086 77.7609 290.181 80.4806C291.271 83.2019 292.359 85.9045 293.447 88.59C294.537 91.278 295.651 94.0814 296.795 96.9992C297.937 99.9187 299.248 103.182 300.722 106.782C300.8 106.912 300.815 107.063 300.76 107.236Z" fill="white"/>
<path d="M335.153 101.779C335.209 102.793 335.22 103.522 335.192 103.966C335.168 104.409 335.071 104.687 334.914 104.804C334.752 104.921 334.538 104.991 334.271 105.015L310.598 107.124C309.792 107.194 309.008 107.282 308.244 107.384C307.475 107.486 306.911 107.386 306.547 107.077C306.116 106.777 305.871 106.289 305.812 105.616C305.749 104.944 305.694 104.302 305.639 103.696L299.949 39.843C299.89 39.1708 299.884 38.73 299.933 38.5208C299.98 38.3132 300.155 37.9929 300.454 37.5581C300.753 37.1242 301.065 36.8603 301.396 36.762C301.725 36.6664 302.156 36.5929 302.692 36.5442L327.765 34.3106C328.036 34.2858 328.259 34.3174 328.437 34.4037C328.614 34.4891 328.772 34.7291 328.907 35.1238C329.046 35.5192 329.153 36.1573 329.231 37.032C329.307 37.9066 329.417 39.1187 329.555 40.6681C329.716 42.4875 329.845 43.9361 329.942 45.0124C330.031 46.0237 330.049 46.7848 329.992 47.299C329.936 47.8132 329.829 48.1284 329.671 48.2445C329.51 48.3607 329.263 48.4341 328.927 48.464L318.822 49.3643C318.419 49.3993 317.966 49.4745 317.467 49.5864C316.968 49.6992 316.66 49.8614 316.545 50.0758C316.305 50.438 316.173 50.6866 316.153 50.8232C316.131 50.9625 316.151 51.3682 316.209 52.0404L316.866 59.4161C316.909 59.8884 316.951 60.3591 316.993 60.8306C317.035 61.3029 317.272 61.6882 317.706 61.9888C318.066 62.2288 318.416 62.3322 318.755 62.3031C319.158 62.2664 319.56 62.2305 319.967 62.1947L324.916 61.7539C325.183 61.7292 325.41 61.7616 325.587 61.8462C325.762 61.9333 325.905 62.2092 326.015 62.6747C326.125 63.1394 326.226 63.8774 326.313 64.8878C326.399 65.8308 326.517 67.1454 326.667 68.8281C326.81 70.4441 326.926 71.7237 327.01 72.6675C327.086 73.5431 327.131 74.2178 327.139 74.6919C327.145 75.1676 327.069 75.4623 326.912 75.5785C326.753 75.6938 326.503 75.7673 326.168 75.7972L321.621 76.2029C321.08 76.2507 320.578 76.3122 320.11 76.3874C319.64 76.4643 319.313 76.5779 319.121 76.7299C318.681 77.11 318.482 77.5354 318.523 78.0052C318.565 78.4767 318.616 79.0507 318.675 79.7229L319.423 88.109C319.484 88.783 319.564 89.5065 319.668 90.2761C319.769 91.0491 319.961 91.4898 320.243 91.6C320.525 91.711 320.973 91.7734 321.584 91.7862C322.196 91.7999 322.771 91.7819 323.309 91.7341L332.909 90.8791C333.177 90.8552 333.42 90.8842 333.628 90.9679C333.839 91.0499 333.997 91.3087 334.105 91.7401C334.209 92.1723 334.321 92.8402 334.437 93.7473C334.553 94.6536 334.682 95.9144 334.826 97.5304C334.986 99.3498 335.097 100.766 335.153 101.779Z" fill="white"/>
<path d="M216.616 164.021C216.438 162.782 216.243 161.543 216.029 160.305C215.817 159.068 215.598 157.731 215.367 156.291C215.136 154.852 214.862 153.128 214.55 151.119C214.538 150.984 214.492 150.683 214.416 150.214C214.341 149.747 214.231 149.263 214.084 148.768C213.941 148.271 213.797 147.827 213.662 147.431C213.524 147.036 213.354 146.847 213.151 146.865C213.016 146.876 212.904 147.126 212.811 147.609C212.717 148.092 212.664 148.624 212.647 149.201C212.63 149.78 212.63 150.341 212.644 150.881C212.658 151.424 212.67 151.728 212.675 151.796C212.7 153.626 212.743 155.236 212.799 156.621C212.855 158.008 212.887 159.313 212.894 160.533C212.9 161.755 212.906 162.976 212.915 164.197C212.922 165.42 212.959 166.808 213.03 168.362C213.067 168.766 213.188 168.994 213.396 169.042C213.605 169.093 214.146 169.078 215.023 169C215.764 168.935 216.319 168.902 216.694 168.902C217.066 168.904 217.229 168.634 217.182 168.094C216.981 166.621 216.793 165.262 216.616 164.021ZM235.787 192.303C235.226 192.49 234.527 192.654 233.69 192.795C232.853 192.938 231.965 193.051 231.021 193.135C230.077 193.219 229.27 193.29 228.597 193.35C227.114 193.482 225.699 193.593 224.349 193.678C222.999 193.765 222.224 193.445 222.024 192.714C221.695 191.318 221.415 190.088 221.186 189.021C220.953 187.958 220.708 186.925 220.452 185.929C220.192 184.935 219.947 183.904 219.719 182.838C219.487 181.774 219.208 180.541 218.878 179.144C218.762 178.612 218.47 178.368 218 178.409C217.596 178.444 216.99 178.499 216.181 178.572C215.236 178.654 214.496 178.722 213.957 178.769C213.487 178.81 213.239 179.104 213.221 179.649C213.21 181.076 213.191 182.336 213.151 183.424C213.112 184.513 213.086 185.568 213.075 186.587C213.067 187.606 213.058 188.674 213.056 189.797C213.053 190.916 213.053 192.225 213.05 193.718C213.03 194.263 212.3 194.634 210.857 194.829C209.414 195.027 207.886 195.197 206.268 195.341C205.865 195.375 205.26 195.43 204.451 195.503C203.641 195.574 202.83 195.613 202.018 195.616C201.203 195.622 200.486 195.585 199.868 195.503C199.251 195.422 198.932 195.281 198.915 195.079C199.397 188.315 199.85 182.149 200.269 176.577C200.69 171.008 201.071 165.558 201.412 160.232C201.75 154.908 202.097 149.479 202.456 143.948C202.81 138.419 203.169 132.345 203.528 125.726C203.565 125.384 203.861 125.085 204.416 124.833C204.969 124.579 205.648 124.366 206.449 124.193C207.247 124.019 208.081 123.879 208.957 123.767C209.828 123.656 210.533 123.574 211.071 123.527C211.68 123.473 212.401 123.425 213.25 123.384C214.096 123.343 214.89 123.34 215.643 123.374C216.389 123.409 217.047 123.538 217.61 123.758C218.174 123.981 218.507 124.289 218.609 124.688C220.262 131.058 221.787 136.914 223.179 142.255C224.572 147.597 225.956 152.836 227.329 157.974C228.704 163.114 230.124 168.385 231.59 173.786C233.056 179.189 234.688 185.137 236.489 191.63C236.579 191.893 236.345 192.117 235.787 192.303Z" fill="white"/>
<path d="M280.106 187.997C280.092 188.237 279.855 188.426 279.393 188.571C278.931 188.713 278.197 188.847 277.189 188.97C276.182 189.095 274.7 189.244 272.747 189.418C270.862 189.585 269.596 189.664 268.95 189.654C268.304 189.644 267.775 189.215 267.361 188.369C266.179 185.827 265.204 183.606 264.423 181.706C263.642 179.808 262.882 177.941 262.141 176.106C261.402 174.271 260.613 172.271 259.776 170.104C258.936 167.938 257.902 165.281 256.67 162.133C256.323 161.281 255.916 160.35 255.454 159.339C254.992 158.329 254.559 157.84 254.156 157.876C253.682 157.918 253.502 158.544 253.609 159.758C253.71 160.903 253.807 161.981 253.896 162.991L256.23 189.157C256.264 189.562 256.241 189.888 256.162 190.13C256.084 190.377 255.793 190.572 255.297 190.718C254.801 190.863 254.031 191.001 252.992 191.127C251.949 191.254 250.452 191.405 248.501 191.578C246.684 191.739 245.3 191.848 244.352 191.896C243.409 191.948 242.729 191.939 242.315 191.874C241.903 191.809 241.67 191.677 241.619 191.478C241.566 191.279 241.526 191.012 241.495 190.673L235.499 123.387C235.457 122.915 235.443 122.561 235.457 122.322C235.469 122.084 235.671 121.895 236.069 121.758C236.464 121.621 237.128 121.494 238.07 121.375C239.009 121.259 240.39 121.118 242.208 120.956C243.623 120.83 244.75 120.748 245.596 120.706C246.441 120.665 247.087 120.692 247.541 120.786C247.988 120.883 248.309 121.041 248.499 121.262C248.688 121.484 248.871 121.823 249.048 122.282C249.406 123.268 249.978 124.745 250.765 126.712C251.551 128.678 252.426 130.858 253.386 133.25C254.345 135.643 255.365 138.132 256.444 140.717C257.521 143.303 258.53 145.674 259.469 147.83C259.652 148.357 259.892 148.931 260.182 149.548C260.474 150.167 260.79 150.462 261.129 150.432C261.599 150.39 261.805 149.862 261.751 148.849C261.692 147.835 261.633 146.959 261.566 146.217L259.344 121.263C259.302 120.792 259.319 120.433 259.401 120.188C259.483 119.944 259.734 119.752 260.165 119.611C260.593 119.471 261.292 119.341 262.267 119.22C263.24 119.101 264.637 118.957 266.456 118.795C268.409 118.622 269.908 118.506 270.957 118.446C272.002 118.388 272.749 118.405 273.2 118.5C273.649 118.598 273.903 118.761 273.959 118.993C274.013 119.227 274.061 119.578 274.102 120.048L280.072 187.034C280.106 187.437 280.12 187.76 280.106 187.997Z" fill="white"/>
<path d="M314.352 181.331C311.621 184.493 307.604 186.311 302.299 186.784C299.746 187.011 297.396 186.831 295.245 186.241C293.094 185.653 291.217 184.7 289.611 183.384C288.004 182.067 286.704 180.418 285.715 178.434C284.729 176.452 284.123 174.215 283.9 171.722L283.531 167.58C283.466 166.84 283.432 166.264 283.429 165.857C283.426 165.45 283.618 165.128 283.998 164.89C284.382 164.653 285.038 164.476 285.972 164.358C286.907 164.242 288.274 164.102 290.081 163.942C291.885 163.78 293.257 163.693 294.202 163.675C295.143 163.66 295.826 163.735 296.243 163.901C296.663 164.067 296.905 164.351 296.979 164.753C297.046 165.154 297.11 165.691 297.17 166.364C297.297 167.78 297.624 169.125 298.151 170.401C298.678 171.679 299.628 172.256 300.995 172.133C301.748 172.068 302.328 171.829 302.739 171.418C303.151 171.008 303.435 170.508 303.591 169.918C303.743 169.327 303.821 168.674 303.827 167.961C303.833 167.248 303.805 166.521 303.737 165.779C303.57 163.895 303.374 161.705 303.154 159.212C302.925 156.654 302.685 153.959 302.432 151.13C302.176 148.234 301.913 145.304 301.648 142.339C301.378 139.309 301.118 136.379 300.868 133.551C300.609 130.654 300.369 127.96 300.147 125.468C299.918 122.909 299.721 120.686 299.552 118.799C299.493 118.127 299.493 117.583 299.558 117.17C299.625 116.756 299.865 116.428 300.279 116.188C300.693 115.948 301.336 115.755 302.199 115.611C303.061 115.468 304.227 115.327 305.699 115.197C307.573 115.03 309.011 114.919 310.017 114.863C311.023 114.808 311.751 114.86 312.204 115.023C312.655 115.188 312.917 115.469 312.987 115.871C313.058 116.273 313.126 116.844 313.191 117.585L317.745 168.706C318.213 173.96 317.083 178.169 314.352 181.331Z" fill="white"/>
<path d="M341.94 154.534C341.731 152.177 341.526 149.887 341.329 147.664C341.132 145.441 340.926 143.152 340.717 140.793C340.506 138.438 340.274 135.844 340.024 133.014C339.965 132.342 339.9 131.635 339.835 130.893C339.77 130.152 339.64 129.502 339.451 128.941C339.263 128.383 338.983 127.932 338.606 127.591C338.228 127.252 337.662 127.114 336.907 127.182C336.151 127.249 335.601 127.486 335.254 127.889C334.911 128.294 334.696 128.789 334.609 129.373C334.525 129.957 334.531 130.62 334.632 131.357C334.73 132.096 334.812 132.801 334.871 133.473L337.482 162.773C337.549 163.513 337.594 164.239 337.625 164.95C337.653 165.661 337.764 166.295 337.95 166.856C338.138 167.416 338.437 167.864 338.848 168.2C339.26 168.537 339.843 168.672 340.598 168.605C341.354 168.537 341.887 168.304 342.197 167.903C342.507 167.502 342.707 167.009 342.791 166.424C342.879 165.84 342.894 165.21 342.834 164.536C342.766 163.796 342.701 163.055 342.634 162.314C342.383 159.484 342.151 156.893 341.94 154.534ZM354.311 177.77C351.346 180.954 347.211 182.782 341.904 183.254C339.35 183.482 336.965 183.305 334.747 182.722C332.529 182.139 330.567 181.194 328.859 179.886C327.151 178.578 325.77 176.937 324.713 174.96C323.659 172.983 323.019 170.749 322.796 168.256L319.448 130.672C319.226 128.183 319.46 125.87 320.15 123.736C320.84 121.605 321.909 119.745 323.36 118.155C324.809 116.567 326.573 115.29 328.654 114.323C330.734 113.357 333.05 112.76 335.601 112.532C340.909 112.06 345.303 113.129 348.784 115.737C352.265 118.346 354.24 122.278 354.708 127.531L358.058 165.115C358.524 170.368 357.276 174.588 354.311 177.77Z" fill="white"/>
<path d="M136.039 385.74C123.208 385.74 112.769 375.307 112.769 362.471C112.769 355.004 116.32 348.366 121.807 344.106L133.123 364.122C133.737 365.214 134.874 365.821 136.043 365.821C136.598 365.821 137.167 365.681 137.688 365.387C139.299 364.477 139.863 362.435 138.954 360.822L127.638 340.799C130.244 339.782 133.071 339.202 136.039 339.202C148.867 339.202 159.307 349.64 159.307 362.471C159.307 375.307 148.867 385.74 136.039 385.74ZM91.0416 346.749L94.747 329.795C94.7598 329.733 94.7538 329.668 94.7675 329.599C94.8145 329.358 94.835 329.107 94.8521 328.862C94.87 328.662 94.8888 328.462 94.8845 328.26C94.8802 328.045 94.8521 327.831 94.8316 327.615C94.8042 327.391 94.7829 327.171 94.7376 326.956C94.694 326.76 94.6308 326.568 94.5702 326.375C94.5001 326.159 94.4395 325.945 94.349 325.738C94.2687 325.548 94.1619 325.364 94.0611 325.178C93.9577 324.986 93.857 324.798 93.7399 324.62C93.6212 324.444 93.4803 324.279 93.341 324.115C93.2018 323.944 93.0634 323.772 92.9046 323.616C92.7611 323.473 92.609 323.353 92.4536 323.226C92.2605 323.066 92.0692 322.912 91.8616 322.777C91.8061 322.738 91.7617 322.69 91.7053 322.653L71.173 310.064L84.0418 293.249L84.0128 300.764C83.9982 303.884 86.149 306.607 89.1898 307.314L113.66 313.027V327.272L91.0416 346.749ZM34.0798 385.74C21.2467 385.74 10.8073 375.307 10.8073 362.471C10.8073 349.64 21.2467 339.202 34.0798 339.202C37.0086 339.202 39.8047 339.77 42.3878 340.762L31.157 360.838C30.5724 361.881 30.5864 363.157 31.1963 364.184C31.8009 365.2 32.8963 365.821 34.0798 365.821H34.1142L57.117 365.574C55.5965 376.941 45.8608 385.74 34.0798 385.74ZM57.035 358.829L39.8287 359.06L48.2337 344.047C52.847 347.594 56.0826 352.831 57.035 358.829ZM58.5648 325.576L75.4575 355.274L74.7349 358.588L67.1687 358.69C66.0668 348.989 60.7856 340.556 53.1767 335.209L58.5648 325.576ZM77.6014 345.483L63.8392 321.294L80.6363 331.588L77.6014 345.483ZM136.039 329.153C131.274 329.153 126.753 330.171 122.653 331.982L120.362 327.929V313.701C122.617 313.053 124.472 311.257 125.043 308.808C125.883 305.203 123.642 301.601 120.039 300.757L97.4367 295.476L97.5273 273.094C97.5333 272.42 97.4026 271.778 97.2189 271.163C104.955 271.069 111.203 264.785 111.203 257.025C111.203 249.21 104.865 242.875 97.0524 242.875C89.2368 242.875 82.8972 249.21 82.8972 257.025C82.8972 259.568 83.6233 261.916 84.7943 263.973C82.2651 264.327 79.8641 265.624 78.1917 267.815L51.4197 302.802C48.0483 307.212 48.888 313.518 53.2954 316.893C53.8746 317.337 54.5007 317.685 55.1387 317.982L47.3385 331.923C43.2714 330.147 38.7893 329.153 34.0798 329.153C15.7054 329.153 0.755859 344.102 0.755859 362.471C0.755859 380.844 15.7054 395.792 34.0798 395.792C51.4436 395.792 65.732 382.434 67.2473 365.462L75.5122 365.368C76.4457 366.679 77.8303 367.677 79.525 368.046C80.0085 368.15 80.4893 368.194 80.9634 368.194C84.0418 368.194 86.817 366.062 87.5029 362.929L88.6568 357.637L116.103 334.013L116.826 335.297C108.309 341.335 102.717 351.258 102.717 362.471C102.717 380.844 117.666 395.792 136.039 395.792C154.413 395.792 169.359 380.844 169.359 362.471C169.359 344.102 154.413 329.153 136.039 329.153Z" fill="#F1511B"/>
</g>
<defs>
<clipPath id="clip0_601_2763">
<rect width="401" height="396" fill="white"/>
</clipPath>
</defs>
</svg>
