<svg width="90" height="86" viewBox="0 0 90 86" fill="none" xmlns="http://www.w3.org/2000/svg">
<path d="M45.6656 0.00162506C21.6013 -0.196259 0.1787 19.7251 0.000897238 41.2762C-0.135261 57.9108 15.2441 70.6704 33.3328 75.721L29.8585 85.8091L39.7848 77.1711C43.0916 77.7394 46.4356 78.0572 49.7471 78.085C73.8114 78.282 89.8222 56.9161 89.9988 35.3658C90.1769 13.8153 69.729 0.199509 45.6656 0.00162506Z" fill="#486284"/>
<path d="M25.1537 32.0203C25.133 31.7881 25.1105 31.543 25.0881 31.2869C25.0659 31.0305 25.0211 30.8061 24.9558 30.6123C24.8914 30.4183 24.7927 30.2629 24.6625 30.1454C24.5325 30.0281 24.3367 29.9806 24.0753 30.0039C23.7197 30.0358 23.4831 30.0689 23.3662 30.1022C23.2492 30.1365 23.2014 30.2697 23.2229 30.5025L23.5862 34.5896C23.6078 34.8229 23.6477 34.9487 23.71 34.9661C23.7705 34.9844 24.0384 34.972 24.5151 34.9298C24.8943 34.8961 25.1292 34.7691 25.2169 34.5503C25.3055 34.3311 25.3262 33.954 25.2783 33.4179L25.1537 32.0203ZM24.1769 22.6354C24.1557 22.4033 24.1341 22.1584 24.1117 21.9017C24.088 21.6457 24.0443 21.4209 23.979 21.2268C23.9129 21.034 23.8154 20.8777 23.6858 20.7602C23.5552 20.6432 23.3594 20.5954 23.0971 20.6187C22.7873 20.6465 22.5865 20.6766 22.4937 20.7079C22.4004 20.7398 22.3641 20.8724 22.3847 21.1046L22.7276 24.9477C22.748 25.1811 22.8192 25.3042 22.9403 25.3163C23.0611 25.329 23.2519 25.3234 23.5142 25.3001C23.9188 25.2643 24.1557 25.0966 24.2248 24.7968C24.2939 24.4973 24.3211 24.2542 24.3048 24.0676L24.1769 22.6354ZM29.2564 38.0987C28.2316 39.2 26.8006 39.8318 24.9664 39.9954L19.9153 40.4452C19.6595 40.468 19.4616 40.4798 19.3216 40.4807C19.1807 40.4816 19.0729 40.4559 18.9985 40.4039C18.9232 40.3519 18.8741 40.2565 18.8496 40.1174C18.8254 39.9792 18.8015 39.7701 18.7767 39.4904L16.7845 17.1321C16.7618 16.8757 16.7497 16.6772 16.7491 16.5363C16.7476 16.3955 16.7792 16.2874 16.8424 16.2115C16.9065 16.135 17.0069 16.0856 17.1454 16.0614C17.2834 16.0372 17.4804 16.0136 17.7358 15.9908L22.6476 15.5531C24.482 15.3895 26.0013 15.7596 27.2049 16.6613C28.4097 17.5636 29.0919 18.9228 29.2538 20.7392L29.5031 23.5342C29.5734 24.326 29.4933 24.9498 29.2656 25.404C29.0352 25.8589 28.7664 26.2056 28.4593 26.444C28.1515 26.6829 27.8668 26.8433 27.6048 26.9254C27.3417 27.0075 27.2126 27.0719 27.2167 27.118C27.2209 27.1652 27.365 27.1995 27.6485 27.2205C27.9321 27.2426 28.2567 27.3309 28.6232 27.4857C28.9885 27.6414 29.3297 27.9104 29.6454 28.2926C29.9611 28.6754 30.1525 29.2395 30.2184 29.9847L30.5519 33.7227C30.7137 35.5391 30.2819 36.9985 29.2564 38.0987Z" fill="#F8F8F8"/>
<path d="M38.4972 38.5258C38.4697 38.6105 38.3714 38.6776 38.2007 38.7284C38.0299 38.7786 37.7659 38.8255 37.4094 38.8693C37.0514 38.9127 36.5369 38.9644 35.8665 39.024C35.2418 39.0796 34.7613 39.1171 34.4243 39.1351C34.0878 39.1534 33.8374 39.1522 33.6729 39.1312C33.5069 39.1112 33.4094 39.0668 33.3802 38.9989C33.3509 38.9316 33.3314 38.8394 33.3217 38.7231L31.2489 15.4559C31.2341 15.2932 31.2389 15.1694 31.2672 15.0841C31.2947 14.9999 31.3824 14.9335 31.5295 14.8847C31.6766 14.8369 31.9173 14.7923 32.2516 14.7503C32.586 14.7087 33.0656 14.6603 33.69 14.6041C34.3608 14.5445 34.8821 14.5043 35.2533 14.4828C35.6249 14.4618 35.8995 14.4665 36.0771 14.4975C36.2554 14.5288 36.3585 14.5841 36.3889 14.6632C36.4191 14.743 36.4424 14.8643 36.4569 15.0268L38.5205 38.1894C38.5332 38.3288 38.5252 38.4413 38.4972 38.5258Z" fill="#F8F8F8"/>
<path d="M55.4229 37.0175C55.4043 37.0778 55.3213 37.1324 55.1734 37.1806C55.0251 37.229 54.772 37.2813 54.4122 37.3365C54.0534 37.3923 53.5477 37.4485 52.8959 37.5069C52.2907 37.561 51.801 37.6044 51.4289 37.6375C51.08 37.6685 50.8042 37.6815 50.6054 37.6756C50.4046 37.6706 50.2672 37.6354 50.1901 37.5716C50.1142 37.5081 50.0587 37.4077 50.0227 37.2698C49.7069 36.3595 49.4142 35.5165 49.1464 34.7424C48.8773 33.9683 48.6094 33.2054 48.3442 32.4546C48.0772 31.7035 47.8161 30.9468 47.5606 30.1827C47.3045 29.4193 47.0169 28.571 46.7002 27.6359C46.6376 27.4773 46.5511 27.4206 46.438 27.4655C46.324 27.511 46.1837 27.7762 46.0162 28.2603C45.8679 28.7196 45.8192 29.2169 45.867 29.7527L46.552 37.4384C46.5647 37.5781 46.4876 37.6966 46.321 37.7931C46.1541 37.8909 45.9409 37.9742 45.6786 38.0442C45.4163 38.1151 45.1357 38.1694 44.8357 38.2075C44.5365 38.2459 44.2597 38.2763 44.0054 38.2991C43.7733 38.3195 43.5072 38.3378 43.2053 38.3525C42.9032 38.3679 42.6176 38.3697 42.3494 38.3587C42.0794 38.3472 41.8485 38.3097 41.6565 38.2444C41.4645 38.1792 41.3632 38.0888 41.3526 37.9721L39.2709 14.6004C39.26 14.4838 39.3506 14.3878 39.5417 14.3119C39.7325 14.2366 39.9665 14.1689 40.2414 14.1087C40.5152 14.0493 40.7961 14.0012 41.0844 13.9634C41.3729 13.9262 41.6098 13.8987 41.795 13.8824C42.0026 13.8638 42.2569 13.8411 42.5582 13.8142C42.8583 13.7873 43.1489 13.7794 43.4304 13.7894C43.711 13.7994 43.9526 13.8308 44.1555 13.8833C44.3581 13.9353 44.4662 14.0319 44.4789 14.1713L45.2323 22.6258C45.243 22.7425 45.2565 22.9052 45.2754 23.1146C45.2917 23.3013 45.3561 23.366 45.4692 23.3087C45.5129 23.2821 45.5463 23.1908 45.5676 23.0358C45.5891 22.8816 45.6175 22.7445 45.6544 22.6235C45.8121 21.7643 45.9604 20.9887 46.0977 20.2949C46.2362 19.6023 46.3626 18.9221 46.4799 18.2537C46.5966 17.5865 46.7177 16.9007 46.8423 16.1971C46.9669 15.4933 47.1202 14.7106 47.3025 13.8497C47.3172 13.7549 47.3512 13.681 47.4058 13.6287C47.4593 13.577 47.5733 13.5322 47.7458 13.4929C47.9183 13.4545 48.1679 13.4202 48.4933 13.3913C48.8433 13.3603 49.3197 13.3177 49.9261 13.264C50.5549 13.2079 51.0567 13.1689 51.43 13.1473C51.8031 13.126 52.0848 13.1237 52.2748 13.1426C52.4641 13.1606 52.5896 13.191 52.6519 13.2315C52.7142 13.2737 52.7361 13.3186 52.7175 13.3671C52.4738 14.3278 52.2603 15.1569 52.076 15.8539C51.892 16.5516 51.7162 17.2185 51.5508 17.8547C51.3831 18.492 51.2017 19.148 51.003 19.8226C50.8051 20.4981 50.572 21.3053 50.3033 22.2442C50.2504 22.4371 50.1922 22.6364 50.1278 22.8408C50.0637 23.0464 50.041 23.2422 50.0575 23.428C50.0723 23.5913 50.1015 23.7295 50.1473 23.8427C50.1922 23.9564 50.3053 24.2281 50.4837 24.6581C50.9601 25.7897 51.386 26.8255 51.7641 27.7659C52.1415 28.7069 52.5175 29.6414 52.8938 30.5699C53.271 31.4994 53.6558 32.4688 54.0516 33.4777C54.4465 34.4872 54.8996 35.6155 55.409 36.8604C55.4365 36.9053 55.4415 36.9576 55.4229 37.0175Z" fill="#F8F8F8"/>
<path d="M67.3153 35.1304C67.3348 35.481 67.3387 35.7332 67.3289 35.8865C67.3201 36.0398 67.287 36.1361 67.2327 36.1766C67.1768 36.2167 67.103 36.2409 67.0102 36.2492L58.8245 36.9784C58.5457 37.003 58.2749 37.0331 58.0108 37.0685C57.7447 37.1037 57.5498 37.0691 57.4242 36.9625C57.2751 36.8585 57.1903 36.6899 57.1696 36.4571C57.1484 36.2247 57.1289 36.0029 57.1103 35.7932L55.1423 13.714C55.1219 13.4816 55.1202 13.3292 55.1364 13.2568C55.1533 13.185 55.2135 13.0743 55.3169 12.9239C55.4203 12.7739 55.5287 12.6826 55.6424 12.6486C55.7564 12.6156 55.9055 12.5902 56.0907 12.5733L64.7608 11.801C64.8545 11.7924 64.9315 11.8033 64.993 11.8332C65.0544 11.8627 65.1088 11.9457 65.1554 12.0822C65.2033 12.2189 65.2402 12.4395 65.2677 12.742C65.2939 13.0444 65.332 13.4635 65.3799 13.9993C65.4354 14.6284 65.48 15.1293 65.5131 15.5015C65.5444 15.8512 65.5503 16.1143 65.5308 16.2921C65.5113 16.4699 65.4741 16.5789 65.4198 16.6191C65.3639 16.6593 65.2783 16.6847 65.1625 16.695L61.6685 17.0063C61.5291 17.0184 61.3722 17.0444 61.1997 17.0831C61.0273 17.1221 60.9209 17.1782 60.8811 17.2523C60.7981 17.3776 60.7523 17.4635 60.7455 17.5108C60.7375 17.5589 60.7446 17.6992 60.765 17.9317L60.9921 20.482C61.0066 20.6454 61.0214 20.8081 61.0358 20.9711C61.0506 21.1345 61.1324 21.2677 61.2824 21.3716C61.4074 21.4546 61.5282 21.4904 61.6451 21.4803C61.7842 21.4676 61.9239 21.4552 62.0642 21.4428L63.7755 21.2904C63.8683 21.2819 63.9462 21.2931 64.0077 21.3223C64.0679 21.3524 64.1178 21.4478 64.1556 21.6088C64.1937 21.7695 64.2289 22.0247 64.259 22.3741C64.2883 22.7001 64.329 23.1547 64.3807 23.7365C64.4303 24.2954 64.4705 24.7378 64.4997 25.0642C64.526 25.3669 64.5417 25.6002 64.5446 25.7641C64.5464 25.9287 64.5201 26.0305 64.4655 26.0707C64.4111 26.1106 64.3243 26.136 64.2082 26.1463L62.6363 26.2866C62.4491 26.3032 62.2754 26.3244 62.1139 26.3504C61.9511 26.377 61.838 26.4163 61.7716 26.4689C61.6197 26.6003 61.5503 26.7474 61.5651 26.9098C61.5799 27.0729 61.5973 27.2713 61.618 27.5038L61.8761 30.4036C61.8974 30.6366 61.9248 30.8868 61.9609 31.1529C61.996 31.4202 62.0622 31.5726 62.1596 31.6107C62.2571 31.6491 62.4119 31.6706 62.6237 31.6751C62.8351 31.6798 63.0339 31.6736 63.2203 31.657L66.5398 31.3614C66.6319 31.3531 66.7158 31.3632 66.7881 31.3921C66.8614 31.4205 66.9157 31.51 66.9527 31.6591C66.9887 31.8086 67.0277 32.0395 67.0678 32.3532C67.108 32.6666 67.1526 33.1025 67.2022 33.6613C67.2577 34.2904 67.2959 34.7801 67.3153 35.1304Z" fill="#F8F8F8"/>
<path d="M26.3274 56.6525C26.2659 56.2242 26.1989 55.7957 26.1247 55.3677C26.0518 54.94 25.9756 54.4775 25.8958 53.9799C25.8158 53.4822 25.7213 52.8859 25.6132 52.1915C25.6093 52.1448 25.5937 52.0406 25.5671 51.8784C25.5408 51.7169 25.5027 51.5497 25.4525 51.3784C25.4026 51.2065 25.353 51.0529 25.306 50.9161C25.2582 50.7794 25.2 50.7141 25.1297 50.7203C25.083 50.7242 25.044 50.8107 25.0116 50.9776C24.9797 51.1448 24.9611 51.3285 24.9551 51.5281C24.9492 51.7284 24.9492 51.9224 24.9543 52.1091C24.9593 52.2969 24.9628 52.4021 24.9649 52.4254C24.9737 53.0584 24.9882 53.6148 25.008 54.0939C25.0272 54.5735 25.0381 55.0245 25.0411 55.4466C25.0429 55.8689 25.0449 56.2913 25.0476 56.7137C25.0508 57.1363 25.0632 57.6163 25.0878 58.1538C25.1005 58.2935 25.1424 58.3724 25.2145 58.3889C25.2865 58.4063 25.4738 58.4013 25.7768 58.3741C26.0332 58.3517 26.2252 58.3405 26.3548 58.3405C26.4836 58.3411 26.54 58.2477 26.5235 58.0611C26.4541 57.5516 26.3888 57.0817 26.3274 56.6525ZM32.9569 66.432C32.7631 66.4967 32.5212 66.5534 32.2318 66.6021C31.942 66.6517 31.6352 66.6907 31.3088 66.7197C30.9821 66.7489 30.7036 66.7734 30.4706 66.7941C29.9579 66.8399 29.4687 66.878 29.0018 66.9075C28.5351 66.9376 28.2669 66.8269 28.1978 66.5741C28.0838 66.0914 27.9872 65.6661 27.9084 65.2972C27.8275 64.9295 27.7424 64.5724 27.6541 64.228C27.5643 63.8843 27.4795 63.5278 27.4004 63.1592C27.3206 62.7912 27.2243 62.365 27.11 61.8821C27.0702 61.698 26.9686 61.6136 26.8061 61.6277C26.6667 61.6399 26.457 61.6588 26.1776 61.6842C25.851 61.7125 25.5946 61.7359 25.4085 61.7524C25.2455 61.7666 25.1598 61.8682 25.1542 62.0566C25.1501 62.5498 25.1436 62.9855 25.1297 63.3618C25.1161 63.7384 25.1072 64.1031 25.1034 64.4555C25.1005 64.8078 25.0975 65.1773 25.0966 65.5654C25.0957 65.9526 25.0957 66.4051 25.0948 66.9214C25.0878 67.1098 24.8355 67.238 24.3364 67.3056C23.8375 67.3739 23.3091 67.4326 22.7497 67.4826C22.6103 67.4944 22.4009 67.5133 22.1209 67.5387C21.8412 67.5632 21.5606 67.5765 21.28 67.5777C20.9986 67.5797 20.7505 67.567 20.5369 67.5387C20.3228 67.5106 20.2126 67.4619 20.207 67.3919C20.3736 65.053 20.5307 62.9208 20.6755 60.9942C20.8211 59.0685 20.9525 57.1842 21.0706 55.3426C21.1873 53.5014 21.3072 51.6244 21.431 49.7117C21.5538 47.7999 21.6776 45.6996 21.8022 43.4109C21.8149 43.2928 21.9174 43.1894 22.1094 43.102C22.3005 43.0142 22.5353 42.9407 22.8121 42.8807C23.0879 42.8208 23.3762 42.7723 23.6795 42.7334C23.9805 42.695 24.2241 42.6669 24.4105 42.6504C24.6208 42.6318 24.8704 42.6152 25.1637 42.601C25.4561 42.5869 25.731 42.5857 25.9912 42.5975C26.2497 42.6096 26.4765 42.6542 26.6717 42.7304C26.8667 42.8075 26.9813 42.9141 27.0164 43.052C27.5885 45.2545 28.1157 47.2795 28.5974 49.1263C29.0789 50.9734 29.5573 52.7851 30.032 54.5617C30.5078 56.3391 30.999 58.1618 31.5058 60.0293C32.0126 61.8974 32.5768 63.9543 33.1994 66.1992C33.2307 66.2902 33.1497 66.3679 32.9569 66.432Z" fill="#F8F8F8"/>
<path d="M48.282 64.9432C48.2769 65.0262 48.1954 65.0915 48.0353 65.1414C47.8755 65.1908 47.6221 65.2371 47.273 65.2797C46.9254 65.3228 46.4124 65.3742 45.7372 65.4344C45.085 65.4923 44.6476 65.5195 44.4243 65.5159C44.201 65.5127 44.0179 65.3644 43.8747 65.0717C43.4665 64.1928 43.1292 63.4248 42.8593 62.768C42.5893 62.1114 42.3258 61.466 42.0698 60.8313C41.8143 60.1969 41.5414 59.5052 41.2522 58.7562C40.9616 58.0072 40.6039 57.0883 40.178 55.9999C40.0581 55.7052 39.9178 55.3832 39.758 55.0335C39.598 54.6844 39.4479 54.5155 39.3088 54.5279C39.1449 54.5424 39.0826 54.7589 39.1195 55.1786C39.1546 55.5746 39.1877 55.9474 39.219 56.2965L40.0259 65.3443C40.0374 65.4843 40.0298 65.5969 40.0026 65.6808C39.9754 65.7661 39.875 65.8334 39.7034 65.884C39.5321 65.9342 39.2657 65.9817 38.9059 66.0254C38.5456 66.0694 38.0281 66.1214 37.3538 66.1814C36.725 66.2372 36.2466 66.2747 35.919 66.2912C35.5927 66.3093 35.3578 66.3063 35.2143 66.2839C35.0719 66.2611 34.9913 66.2156 34.9736 66.1468C34.955 66.078 34.9417 65.9856 34.9305 65.8686L32.8577 42.6021C32.8432 42.439 32.8382 42.3165 32.8432 42.2338C32.847 42.1514 32.917 42.0861 33.0547 42.0388C33.1911 41.9916 33.4209 41.9476 33.7467 41.9065C34.071 41.8663 34.5486 41.8176 35.1771 41.7615C35.6668 41.7181 36.0564 41.6897 36.3488 41.675C36.6412 41.6608 36.8642 41.6702 37.0213 41.7027C37.1763 41.7361 37.2874 41.7907 37.3527 41.8672C37.4179 41.944 37.4812 42.0613 37.5426 42.2199C37.6663 42.561 37.8642 43.0717 38.1362 43.7519C38.4083 44.4315 38.7101 45.1855 39.0424 46.0125C39.3738 46.8401 39.7267 47.7005 40.1001 48.5945C40.4725 49.4886 40.8213 50.3085 41.1456 51.0542C41.2091 51.2365 41.2921 51.4346 41.3922 51.6482C41.4938 51.8623 41.6028 51.9642 41.7201 51.9539C41.8828 51.9391 41.954 51.7566 41.9351 51.4063C41.9147 51.0557 41.8943 50.753 41.8707 50.4963L41.1031 41.8675C41.0883 41.7048 41.0942 41.5807 41.1223 41.496C41.1506 41.4115 41.2375 41.3451 41.3866 41.2963C41.5349 41.2479 41.7762 41.203 42.1138 41.161C42.4496 41.12 42.9331 41.0704 43.5619 41.0143C44.2374 40.9546 44.7557 40.9144 45.1184 40.8935C45.4799 40.8734 45.7381 40.8793 45.8943 40.9124C46.0491 40.946 46.1368 41.0024 46.1563 41.0828C46.1749 41.1637 46.1911 41.2851 46.2059 41.4475L48.2701 64.6101C48.282 64.7495 48.2867 64.8611 48.282 64.9432Z" fill="#F8F8F8"/>
<path d="M60.1226 62.6383C59.1783 63.7317 57.7896 64.3602 55.9551 64.5238C55.0723 64.6024 54.2595 64.54 53.5158 64.336C52.7724 64.1328 52.1229 63.8031 51.5674 63.348C51.0121 62.8929 50.5629 62.3225 50.2208 61.6364C49.8797 60.9512 49.67 60.1777 49.5929 59.3155L49.4653 57.8834C49.4429 57.6276 49.4314 57.4285 49.4302 57.2876C49.4293 57.147 49.4958 57.0357 49.6272 56.9533C49.7595 56.8712 49.9869 56.81 50.3095 56.7693C50.6329 56.7291 51.1057 56.6807 51.7304 56.6254C52.3542 56.5693 52.8288 56.5395 53.1552 56.5333C53.4807 56.528 53.7167 56.554 53.8608 56.6113C54.0061 56.6686 54.09 56.7669 54.1151 56.906C54.1387 57.0446 54.1612 57.2303 54.1815 57.4628C54.2256 57.9525 54.3384 58.4176 54.5209 58.8589C54.7031 59.3008 55.0313 59.5004 55.5041 59.4579C55.7641 59.4351 55.9649 59.3527 56.1076 59.2107C56.2496 59.0689 56.348 58.8958 56.4017 58.6917C56.4543 58.4874 56.4815 58.2617 56.4835 58.0151C56.4856 57.7685 56.4759 57.5171 56.4525 57.2608C56.3946 56.6092 56.3267 55.8519 56.2505 54.9898C56.1716 54.1055 56.0886 53.1733 56.0009 52.1951C55.9123 51.1939 55.8219 50.1808 55.7301 49.1556C55.6368 48.1077 55.547 47.0947 55.4601 46.1167C55.3703 45.1152 55.2876 44.1837 55.2106 43.3218C55.1317 42.4369 55.0635 41.6681 55.005 41.0157C54.9846 40.7835 54.9846 40.5954 55.0071 40.4524C55.0304 40.3095 55.1131 40.1961 55.2566 40.1128C55.3999 40.0301 55.622 39.9633 55.9203 39.9134C56.2186 39.8638 56.6221 39.8154 57.1307 39.7702C57.779 39.7126 58.2757 39.6742 58.6237 39.6547C58.9719 39.6358 59.2229 39.6538 59.3801 39.7102C59.536 39.7672 59.6267 39.8644 59.6512 40.0032C59.6754 40.1423 59.6988 40.3399 59.7212 40.596L61.2963 58.2729C61.4579 60.0897 61.0671 61.5449 60.1226 62.6383Z" fill="#F8F8F8"/>
<path d="M69.6625 53.3721C69.5905 52.5573 69.5193 51.7654 69.4511 50.9969C69.3828 50.2281 69.3117 49.4365 69.2393 48.6211C69.1663 47.8065 69.0866 46.9095 68.9998 45.931C68.9794 45.6988 68.9566 45.4543 68.9345 45.1976C68.912 44.9415 68.8671 44.7168 68.8019 44.5227C68.7366 44.3296 68.64 44.1736 68.5098 44.0558C68.3789 43.9385 68.1831 43.891 67.922 43.9143C67.6606 43.9376 67.4704 44.0197 67.3508 44.1589C67.2321 44.2989 67.1579 44.4702 67.1275 44.6722C67.0983 44.8739 67.1 45.1031 67.1352 45.358C67.1694 45.6135 67.1975 45.8574 67.2182 46.0899L68.1205 56.2211C68.1438 56.4772 68.1595 56.7282 68.1704 56.974C68.1801 57.2197 68.2179 57.4392 68.2823 57.6329C68.3476 57.8267 68.4513 57.9817 68.5934 58.0978C68.7354 58.2145 68.9374 58.2611 69.1985 58.2378C69.4599 58.2145 69.6442 58.1338 69.7511 57.995C69.8583 57.8565 69.9278 57.6861 69.9567 57.4838C69.9871 57.2817 69.9918 57.0638 69.9715 56.8307C69.9481 56.575 69.9257 56.3189 69.9024 56.0625C69.8155 55.084 69.7355 54.1879 69.6625 53.3721ZM73.9399 61.4069C72.915 62.508 71.4849 63.1401 69.6498 63.3031C68.767 63.382 67.9424 63.3208 67.1753 63.1191C66.4083 62.9177 65.7299 62.591 65.1395 62.1385C64.5488 61.6864 64.0709 61.119 63.7055 60.4352C63.3414 59.7518 63.1201 58.9791 63.0431 58.1173L61.885 45.1211C61.8082 44.2605 61.8891 43.4606 62.1277 42.7228C62.3667 41.9859 62.7359 41.3429 63.2377 40.793C63.7386 40.2439 64.3491 39.8024 65.068 39.468C65.7875 39.134 66.5885 38.9275 67.4704 38.8487C69.3057 38.6854 70.8253 39.0551 72.0289 39.9569C73.2325 40.8592 73.9156 42.2187 74.0775 44.0351L75.2353 57.031C75.3971 58.8474 74.9653 60.3068 73.9399 61.4069Z" fill="#F8F8F8"/>
</svg>
